G04 (created by PCBNEW (2013-07-07 BZR 4022)-stable) date 2/4/2014 11:58:10 PM*
%MOIN*%
G04 Gerber Fmt 3.4, Leading zero omitted, Abs format*
%FSLAX34Y34*%
G01*
G70*
G90*
G04 APERTURE LIST*
%ADD10C,0.00590551*%
%ADD11R,0.05X0.1*%
%ADD12O,0.05X0.1*%
%ADD13R,0.055X0.055*%
%ADD14C,0.055*%
%ADD15R,0.06X0.06*%
%ADD16C,0.06*%
%ADD17R,0.065X0.065*%
%ADD18C,0.065*%
%ADD19R,0.07X0.07*%
%ADD20C,0.07*%
%ADD21C,0.1*%
%ADD22R,0.1X0.1*%
%ADD23R,0.056X0.056*%
%ADD24C,0.056*%
%ADD25R,0.35X0.35*%
G04 APERTURE END LIST*
G54D10*
G54D11*
X62250Y-41750D03*
G54D12*
X63250Y-41750D03*
X64250Y-41750D03*
X65250Y-41750D03*
X65250Y-38750D03*
X64250Y-38750D03*
X63250Y-38750D03*
X62250Y-38750D03*
G54D13*
X66750Y-41750D03*
G54D14*
X67750Y-41750D03*
X68750Y-41750D03*
X69750Y-41750D03*
X69750Y-38750D03*
X68750Y-38750D03*
X67750Y-38750D03*
X66750Y-38750D03*
X71000Y-49000D03*
X71000Y-48000D03*
G54D13*
X79000Y-41000D03*
G54D14*
X79000Y-39500D03*
G54D15*
X71750Y-40750D03*
G54D16*
X71750Y-39750D03*
G54D17*
X75000Y-40750D03*
G54D18*
X75000Y-39750D03*
G54D14*
X69750Y-49000D03*
X69750Y-47000D03*
G54D19*
X76750Y-44750D03*
G54D20*
X76750Y-42750D03*
G54D19*
X72250Y-45250D03*
G54D20*
X72250Y-43250D03*
G54D13*
X62500Y-45750D03*
G54D14*
X62500Y-48750D03*
G54D20*
X66250Y-48750D03*
G54D19*
X66250Y-44750D03*
G54D20*
X67750Y-48750D03*
G54D19*
X67750Y-43750D03*
G54D21*
X68500Y-50750D03*
G54D22*
X62500Y-50750D03*
G54D23*
X63750Y-45750D03*
G54D24*
X63750Y-48750D03*
G54D15*
X65000Y-44750D03*
G54D16*
X65000Y-48750D03*
G54D24*
X63250Y-56000D03*
X63250Y-54000D03*
G54D13*
X67250Y-55250D03*
G54D14*
X66250Y-55250D03*
X66250Y-56250D03*
G54D20*
X70250Y-56250D03*
G54D19*
X70250Y-55250D03*
G54D20*
X70250Y-54250D03*
G54D14*
X70750Y-51250D03*
X70750Y-52250D03*
X73000Y-52500D03*
X73000Y-49500D03*
G54D16*
X74250Y-52500D03*
X74250Y-48500D03*
X75750Y-52500D03*
X75750Y-47500D03*
G54D20*
X77250Y-52500D03*
X77250Y-46500D03*
X79500Y-52500D03*
X79500Y-45500D03*
G54D19*
X72250Y-56250D03*
G54D20*
X72250Y-54250D03*
X72250Y-55250D03*
G54D25*
X78750Y-55250D03*
M02*
