M48
INCH,TZ
T1C0.024
T2C0.030
T3C0.032
T4C0.035
T5C0.040
T6C0.045
T7C0.050
T8C0.120
%
G90
G05
T1
X63750Y-45750
X63750Y-48750
T2
X63250Y-54000
X63250Y-56000
T3
X62250Y-38750
X62250Y-41750
X62500Y-45750
X62500Y-48750
X63250Y-38750
X63250Y-41750
X64250Y-38750
X64250Y-41750
X65250Y-38750
X65250Y-41750
X66250Y-55250
X66250Y-56250
X66750Y-38750
X66750Y-41750
X67250Y-55250
X67750Y-38750
X67750Y-41750
X68750Y-38750
X68750Y-41750
X69750Y-38750
X69750Y-41750
X69750Y-47000
X69750Y-49000
X70750Y-51250
X70750Y-52250
X71000Y-48000
X71000Y-49000
X71750Y-39750
X71750Y-40750
X73000Y-49500
X73000Y-52500
X74250Y-48500
X74250Y-52500
X75000Y-39750
X75000Y-40750
X75750Y-47500
X75750Y-52500
X79000Y-39500
X79000Y-41000
T4
X65000Y-44750
X65000Y-48750
T5
X66250Y-44750
X66250Y-48750
X72250Y-43250
X72250Y-45250
X76750Y-42750
X76750Y-44750
T6
X67750Y-43750
X67750Y-48750
X70250Y-54250
X70250Y-55250
X70250Y-56250
X72250Y-54250
X72250Y-55250
X72250Y-56250
X77250Y-46500
X77250Y-52500
T7
X62500Y-50750
X68500Y-50750
X79500Y-45500
X79500Y-52500
T8
X78750Y-55250
T0
M30
