G04 (created by PCBNEW (2013-07-07 BZR 4022)-stable) date 2/4/2014 11:58:10 PM*
%MOIN*%
G04 Gerber Fmt 3.4, Leading zero omitted, Abs format*
%FSLAX34Y34*%
G01*
G70*
G90*
G04 APERTURE LIST*
%ADD10C,0.00590551*%
%ADD11C,0.012*%
%ADD12C,0.01*%
%ADD13C,0.015*%
%ADD14C,0.005*%
%ADD15C,0.008*%
%ADD16C,0.0125*%
%ADD17C,0.01125*%
G04 APERTURE END LIST*
G54D10*
G54D11*
X62250Y-40250D02*
G75*
G03X61750Y-39750I-500J0D01*
G74*
G01*
X61750Y-40750D02*
G75*
G03X62250Y-40250I0J500D01*
G74*
G01*
X61750Y-39250D02*
X65750Y-39250D01*
X65750Y-39250D02*
X65750Y-41250D01*
X65750Y-41250D02*
X61750Y-41250D01*
X61750Y-41250D02*
X61750Y-39250D01*
G54D12*
X66250Y-39750D02*
X66750Y-39750D01*
X66750Y-39750D02*
X66750Y-40750D01*
X66750Y-40750D02*
X66250Y-40750D01*
X66250Y-39250D02*
X70250Y-39250D01*
X70250Y-39250D02*
X70250Y-41250D01*
X70250Y-41250D02*
X66250Y-41250D01*
X66250Y-41250D02*
X66250Y-39250D01*
G54D11*
X70500Y-49480D02*
X70500Y-47500D01*
X70500Y-47500D02*
X71500Y-47500D01*
X71500Y-47500D02*
X71500Y-49500D01*
X71500Y-49500D02*
X70500Y-49500D01*
X70750Y-49500D02*
X70500Y-49250D01*
G54D13*
X80750Y-40250D02*
G75*
G03X80750Y-40250I-1750J0D01*
G74*
G01*
G54D14*
X73000Y-40250D02*
G75*
G03X73000Y-40250I-1250J0D01*
G74*
G01*
G54D15*
X76600Y-40250D02*
G75*
G03X76600Y-40250I-1600J0D01*
G74*
G01*
G54D11*
X69350Y-49400D02*
X69350Y-46600D01*
X69350Y-46600D02*
X70150Y-46600D01*
X70150Y-46600D02*
X70150Y-49400D01*
X70150Y-49400D02*
X69350Y-49400D01*
X69550Y-49400D02*
X69350Y-49200D01*
X78500Y-43750D02*
G75*
G03X78500Y-43750I-1750J0D01*
G74*
G01*
X74445Y-44250D02*
G75*
G03X74445Y-44250I-2195J0D01*
G74*
G01*
X62500Y-45750D02*
X62500Y-46050D01*
X62500Y-46050D02*
X62100Y-46050D01*
X62100Y-46050D02*
X62100Y-48450D01*
X62100Y-48450D02*
X62500Y-48450D01*
X62500Y-48450D02*
X62500Y-48750D01*
X62500Y-48450D02*
X62900Y-48450D01*
X62900Y-48450D02*
X62900Y-46050D01*
X62900Y-46050D02*
X62500Y-46050D01*
X62100Y-46250D02*
X62900Y-46250D01*
X62900Y-46350D02*
X62100Y-46350D01*
X65750Y-48250D02*
X65750Y-45250D01*
X65750Y-45250D02*
X66750Y-45250D01*
X66750Y-45250D02*
X66750Y-48250D01*
X66750Y-48250D02*
X65750Y-48250D01*
X65750Y-45500D02*
X66750Y-45500D01*
X66750Y-45750D02*
X65750Y-45750D01*
X66250Y-48250D02*
X66250Y-48750D01*
X66250Y-45250D02*
X66250Y-44750D01*
X67750Y-43750D02*
X67750Y-44250D01*
X67750Y-44250D02*
X67250Y-44250D01*
X67250Y-44250D02*
X67250Y-48250D01*
X67250Y-48250D02*
X67750Y-48250D01*
X67750Y-48250D02*
X67750Y-48750D01*
X67750Y-48250D02*
X68250Y-48250D01*
X68250Y-48250D02*
X68250Y-44250D01*
X68250Y-44250D02*
X67750Y-44250D01*
X67250Y-44750D02*
X68250Y-44750D01*
X67250Y-44650D02*
X68250Y-44650D01*
X67750Y-52000D02*
X67750Y-49500D01*
X67750Y-49500D02*
X63250Y-49500D01*
X63250Y-49500D02*
X63250Y-52000D01*
X63250Y-52000D02*
X67750Y-52000D01*
X63500Y-52000D02*
X63500Y-49500D01*
X63750Y-49500D02*
X63750Y-52000D01*
X63250Y-50750D02*
X62500Y-50750D01*
X67750Y-50750D02*
X68500Y-50750D01*
G54D16*
X63750Y-46450D02*
X63750Y-45750D01*
X63750Y-48050D02*
X63750Y-48750D01*
X63350Y-46650D02*
X64150Y-46650D01*
X63350Y-48050D02*
X64150Y-48050D01*
X64150Y-48050D02*
X64150Y-46450D01*
X64150Y-46450D02*
X63350Y-46450D01*
X63350Y-46450D02*
X63350Y-48050D01*
X65000Y-48250D02*
X65000Y-48750D01*
X65000Y-45250D02*
X65000Y-44750D01*
X65000Y-45250D02*
X65000Y-45550D01*
G54D11*
X65000Y-45550D02*
X64600Y-45550D01*
X64600Y-45550D02*
X64600Y-47950D01*
X64600Y-47950D02*
X65000Y-47950D01*
X65000Y-47950D02*
X65000Y-48250D01*
X65000Y-47950D02*
X65400Y-47950D01*
X65400Y-47950D02*
X65400Y-45550D01*
X65400Y-45550D02*
X65000Y-45550D01*
X64600Y-45750D02*
X65400Y-45750D01*
X65400Y-45850D02*
X64600Y-45850D01*
G54D16*
X64250Y-56250D02*
X64250Y-53750D01*
X62250Y-56250D02*
X62250Y-53750D01*
X63250Y-52750D02*
G75*
G03X62250Y-53750I0J-1000D01*
G74*
G01*
X64250Y-53750D02*
G75*
G03X63250Y-52750I-1000J0D01*
G74*
G01*
X62250Y-56250D02*
G75*
G03X63250Y-57250I1000J0D01*
G74*
G01*
X63250Y-57250D02*
G75*
G03X64250Y-56250I0J1000D01*
G74*
G01*
G54D11*
X66250Y-56750D02*
X67750Y-55250D01*
X67750Y-55250D02*
X67750Y-54750D01*
X67750Y-54750D02*
X67250Y-54250D01*
X67250Y-54250D02*
X66250Y-54250D01*
X66250Y-54250D02*
X65250Y-55250D01*
X65250Y-55250D02*
X65250Y-56250D01*
X65250Y-56250D02*
X65750Y-56750D01*
X65750Y-56750D02*
X66250Y-56750D01*
G54D12*
X69500Y-57000D02*
X69250Y-57000D01*
X69250Y-57000D02*
X69250Y-53500D01*
X69250Y-53500D02*
X69500Y-53500D01*
X71000Y-57000D02*
X69500Y-57000D01*
X69500Y-57000D02*
X69500Y-53500D01*
X69500Y-53500D02*
X71000Y-53500D01*
X71000Y-53500D02*
X71000Y-57000D01*
G54D13*
X70750Y-51250D02*
X70750Y-52250D01*
X71309Y-51250D02*
G75*
G03X71309Y-51250I-559J0D01*
G74*
G01*
G54D15*
X73000Y-52500D02*
X73000Y-52300D01*
X73000Y-49500D02*
X73000Y-49700D01*
X73000Y-49700D02*
X72600Y-49700D01*
X72600Y-49700D02*
X72600Y-52300D01*
X72600Y-52300D02*
X73400Y-52300D01*
X73400Y-52300D02*
X73400Y-49700D01*
X73400Y-49700D02*
X73000Y-49700D01*
X72800Y-52300D02*
X72600Y-52100D01*
G54D11*
X74250Y-52500D02*
X74250Y-52100D01*
X74250Y-52100D02*
X73850Y-52100D01*
X73850Y-52100D02*
X73850Y-48900D01*
X73850Y-48900D02*
X74650Y-48900D01*
X74650Y-48900D02*
X74650Y-52100D01*
X74650Y-52100D02*
X74250Y-52100D01*
X74050Y-52100D02*
X73850Y-51900D01*
X74250Y-48500D02*
X74250Y-48900D01*
X75750Y-52500D02*
X75750Y-52100D01*
X75750Y-47500D02*
X75750Y-47900D01*
X75250Y-47900D02*
X76250Y-47900D01*
X76250Y-47900D02*
X76250Y-52100D01*
X76250Y-52100D02*
X75250Y-52100D01*
X75250Y-52100D02*
X75250Y-47900D01*
X75450Y-52100D02*
X75250Y-51900D01*
X76750Y-52000D02*
X76750Y-47000D01*
X76750Y-47000D02*
X77750Y-47000D01*
X77750Y-47000D02*
X77750Y-52000D01*
X77250Y-47000D02*
X77250Y-46500D01*
X77250Y-52500D02*
X77250Y-52000D01*
X77050Y-52000D02*
X76750Y-51700D01*
X76750Y-52000D02*
X77750Y-52000D01*
X79500Y-52500D02*
X79500Y-52500D01*
X79500Y-52500D02*
X79500Y-52500D01*
X79500Y-46250D02*
X79500Y-45500D01*
X79500Y-45500D02*
X79500Y-45500D01*
X80500Y-46250D02*
X80500Y-51750D01*
X78500Y-51750D02*
X78500Y-46250D01*
X79000Y-51750D02*
X78500Y-51250D01*
X78500Y-46250D02*
X80500Y-46250D01*
X78500Y-51750D02*
X80500Y-51750D01*
X79500Y-52500D02*
X79500Y-51750D01*
X72250Y-54250D02*
X74250Y-54250D01*
X72250Y-55250D02*
X74250Y-55250D01*
X72250Y-56250D02*
X74250Y-56250D01*
X74250Y-57250D02*
X80250Y-57250D01*
X80250Y-57250D02*
X80250Y-53250D01*
X80250Y-53250D02*
X74250Y-53250D01*
X74250Y-53250D02*
X74250Y-57250D01*
X77250Y-56750D02*
X77250Y-53250D01*
X77250Y-56750D02*
X77250Y-57250D01*
G54D15*
X61161Y-40821D02*
X61485Y-40821D01*
X61523Y-40802D01*
X61542Y-40783D01*
X61561Y-40745D01*
X61561Y-40669D01*
X61542Y-40630D01*
X61523Y-40611D01*
X61485Y-40592D01*
X61161Y-40592D01*
X61161Y-40345D02*
X61257Y-40345D01*
X61219Y-40440D02*
X61257Y-40345D01*
X61219Y-40250D01*
X61333Y-40402D02*
X61257Y-40345D01*
X61333Y-40288D01*
X61161Y-40040D02*
X61257Y-40040D01*
X61219Y-40135D02*
X61257Y-40040D01*
X61219Y-39945D01*
X61333Y-40097D02*
X61257Y-40040D01*
X61333Y-39983D01*
X61161Y-39735D02*
X61257Y-39735D01*
X61219Y-39830D02*
X61257Y-39735D01*
X61219Y-39640D01*
X61333Y-39792D02*
X61257Y-39735D01*
X61333Y-39678D01*
X63159Y-40411D02*
X63159Y-40011D01*
X63254Y-40011D01*
X63311Y-40030D01*
X63350Y-40069D01*
X63369Y-40107D01*
X63388Y-40183D01*
X63388Y-40240D01*
X63369Y-40316D01*
X63350Y-40354D01*
X63311Y-40392D01*
X63254Y-40411D01*
X63159Y-40411D01*
X63559Y-40411D02*
X63559Y-40011D01*
X63750Y-40411D02*
X63750Y-40011D01*
X63902Y-40011D01*
X63940Y-40030D01*
X63959Y-40050D01*
X63978Y-40088D01*
X63978Y-40145D01*
X63959Y-40183D01*
X63940Y-40202D01*
X63902Y-40221D01*
X63750Y-40221D01*
X64207Y-40183D02*
X64169Y-40164D01*
X64150Y-40145D01*
X64130Y-40107D01*
X64130Y-40088D01*
X64150Y-40050D01*
X64169Y-40030D01*
X64207Y-40011D01*
X64283Y-40011D01*
X64321Y-40030D01*
X64340Y-40050D01*
X64359Y-40088D01*
X64359Y-40107D01*
X64340Y-40145D01*
X64321Y-40164D01*
X64283Y-40183D01*
X64207Y-40183D01*
X64169Y-40202D01*
X64150Y-40221D01*
X64130Y-40259D01*
X64130Y-40335D01*
X64150Y-40373D01*
X64169Y-40392D01*
X64207Y-40411D01*
X64283Y-40411D01*
X64321Y-40392D01*
X64340Y-40373D01*
X64359Y-40335D01*
X64359Y-40259D01*
X64340Y-40221D01*
X64321Y-40202D01*
X64283Y-40183D01*
X65452Y-40892D02*
X65857Y-40892D01*
X65904Y-40871D01*
X65928Y-40850D01*
X65952Y-40807D01*
X65952Y-40721D01*
X65928Y-40678D01*
X65904Y-40657D01*
X65857Y-40635D01*
X65452Y-40635D01*
X65452Y-40357D02*
X65571Y-40357D01*
X65523Y-40464D02*
X65571Y-40357D01*
X65523Y-40250D01*
X65666Y-40421D02*
X65571Y-40357D01*
X65666Y-40292D01*
X65452Y-40014D02*
X65571Y-40014D01*
X65523Y-40121D02*
X65571Y-40014D01*
X65523Y-39907D01*
X65666Y-40078D02*
X65571Y-40014D01*
X65666Y-39950D01*
X65452Y-39671D02*
X65571Y-39671D01*
X65523Y-39778D02*
X65571Y-39671D01*
X65523Y-39564D01*
X65666Y-39735D02*
X65571Y-39671D01*
X65666Y-39607D01*
X66688Y-40452D02*
X66688Y-39952D01*
X66783Y-39952D01*
X66840Y-39976D01*
X66878Y-40023D01*
X66897Y-40071D01*
X66916Y-40166D01*
X66916Y-40238D01*
X66897Y-40333D01*
X66878Y-40380D01*
X66840Y-40428D01*
X66783Y-40452D01*
X66688Y-40452D01*
X67088Y-40452D02*
X67088Y-39952D01*
X67278Y-40452D02*
X67278Y-39952D01*
X67430Y-39952D01*
X67469Y-39976D01*
X67488Y-40000D01*
X67507Y-40047D01*
X67507Y-40119D01*
X67488Y-40166D01*
X67469Y-40190D01*
X67430Y-40214D01*
X67278Y-40214D01*
X67678Y-40261D02*
X67983Y-40261D01*
X68230Y-40166D02*
X68192Y-40142D01*
X68173Y-40119D01*
X68154Y-40071D01*
X68154Y-40047D01*
X68173Y-40000D01*
X68192Y-39976D01*
X68230Y-39952D01*
X68307Y-39952D01*
X68345Y-39976D01*
X68364Y-40000D01*
X68383Y-40047D01*
X68383Y-40071D01*
X68364Y-40119D01*
X68345Y-40142D01*
X68307Y-40166D01*
X68230Y-40166D01*
X68192Y-40190D01*
X68173Y-40214D01*
X68154Y-40261D01*
X68154Y-40357D01*
X68173Y-40404D01*
X68192Y-40428D01*
X68230Y-40452D01*
X68307Y-40452D01*
X68345Y-40428D01*
X68364Y-40404D01*
X68383Y-40357D01*
X68383Y-40261D01*
X68364Y-40214D01*
X68345Y-40190D01*
X68307Y-40166D01*
X68459Y-40500D02*
X68764Y-40500D01*
X68821Y-39952D02*
X69069Y-39952D01*
X68935Y-40142D01*
X68992Y-40142D01*
X69030Y-40166D01*
X69050Y-40190D01*
X69069Y-40238D01*
X69069Y-40357D01*
X69050Y-40404D01*
X69030Y-40428D01*
X68992Y-40452D01*
X68878Y-40452D01*
X68840Y-40428D01*
X68821Y-40404D01*
X69316Y-39952D02*
X69354Y-39952D01*
X69392Y-39976D01*
X69411Y-40000D01*
X69430Y-40047D01*
X69450Y-40142D01*
X69450Y-40261D01*
X69430Y-40357D01*
X69411Y-40404D01*
X69392Y-40428D01*
X69354Y-40452D01*
X69316Y-40452D01*
X69278Y-40428D01*
X69259Y-40404D01*
X69240Y-40357D01*
X69221Y-40261D01*
X69221Y-40142D01*
X69240Y-40047D01*
X69259Y-40000D01*
X69278Y-39976D01*
X69316Y-39952D01*
X69697Y-39952D02*
X69735Y-39952D01*
X69773Y-39976D01*
X69792Y-40000D01*
X69811Y-40047D01*
X69830Y-40142D01*
X69830Y-40261D01*
X69811Y-40357D01*
X69792Y-40404D01*
X69773Y-40428D01*
X69735Y-40452D01*
X69697Y-40452D01*
X69659Y-40428D01*
X69640Y-40404D01*
X69621Y-40357D01*
X69602Y-40261D01*
X69602Y-40142D01*
X69621Y-40047D01*
X69640Y-40000D01*
X69659Y-39976D01*
X69697Y-39952D01*
X70223Y-48466D02*
X70242Y-48485D01*
X70261Y-48542D01*
X70261Y-48580D01*
X70242Y-48638D01*
X70204Y-48676D01*
X70166Y-48695D01*
X70090Y-48714D01*
X70033Y-48714D01*
X69957Y-48695D01*
X69919Y-48676D01*
X69880Y-48638D01*
X69861Y-48580D01*
X69861Y-48542D01*
X69880Y-48485D01*
X69900Y-48466D01*
X70261Y-48085D02*
X70261Y-48314D01*
X70261Y-48199D02*
X69861Y-48199D01*
X69919Y-48238D01*
X69957Y-48276D01*
X69976Y-48314D01*
X80023Y-41135D02*
X80042Y-41154D01*
X80061Y-41211D01*
X80061Y-41250D01*
X80042Y-41307D01*
X80004Y-41345D01*
X79966Y-41364D01*
X79890Y-41383D01*
X79833Y-41383D01*
X79757Y-41364D01*
X79719Y-41345D01*
X79680Y-41307D01*
X79661Y-41250D01*
X79661Y-41211D01*
X79680Y-41154D01*
X79700Y-41135D01*
X80061Y-40754D02*
X80061Y-40983D01*
X80061Y-40869D02*
X79661Y-40869D01*
X79719Y-40907D01*
X79757Y-40945D01*
X79776Y-40983D01*
X80023Y-40583D02*
X80042Y-40564D01*
X80061Y-40583D01*
X80042Y-40602D01*
X80023Y-40583D01*
X80061Y-40583D01*
X79661Y-40202D02*
X79661Y-40392D01*
X79852Y-40411D01*
X79833Y-40392D01*
X79814Y-40354D01*
X79814Y-40259D01*
X79833Y-40221D01*
X79852Y-40202D01*
X79890Y-40183D01*
X79985Y-40183D01*
X80023Y-40202D01*
X80042Y-40221D01*
X80061Y-40259D01*
X80061Y-40354D01*
X80042Y-40392D01*
X80023Y-40411D01*
X79661Y-40069D02*
X80061Y-39935D01*
X79661Y-39802D01*
X79833Y-39611D02*
X79814Y-39649D01*
X79795Y-39669D01*
X79757Y-39688D01*
X79738Y-39688D01*
X79700Y-39669D01*
X79680Y-39649D01*
X79661Y-39611D01*
X79661Y-39535D01*
X79680Y-39497D01*
X79700Y-39478D01*
X79738Y-39459D01*
X79757Y-39459D01*
X79795Y-39478D01*
X79814Y-39497D01*
X79833Y-39535D01*
X79833Y-39611D01*
X79852Y-39649D01*
X79871Y-39669D01*
X79909Y-39688D01*
X79985Y-39688D01*
X80023Y-39669D01*
X80042Y-39649D01*
X80061Y-39611D01*
X80061Y-39535D01*
X80042Y-39497D01*
X80023Y-39478D01*
X79985Y-39459D01*
X79909Y-39459D01*
X79871Y-39478D01*
X79852Y-39497D01*
X79833Y-39535D01*
X79661Y-39345D02*
X80061Y-39211D01*
X79661Y-39078D01*
X77861Y-40840D02*
X78261Y-40707D01*
X77861Y-40573D01*
X77861Y-40383D02*
X77957Y-40383D01*
X77919Y-40478D02*
X77957Y-40383D01*
X77919Y-40288D01*
X78033Y-40440D02*
X77957Y-40383D01*
X78033Y-40326D01*
X77861Y-40078D02*
X77957Y-40078D01*
X77919Y-40173D02*
X77957Y-40078D01*
X77919Y-39983D01*
X78033Y-40135D02*
X77957Y-40078D01*
X78033Y-40021D01*
X77861Y-39773D02*
X77957Y-39773D01*
X77919Y-39869D02*
X77957Y-39773D01*
X77919Y-39678D01*
X78033Y-39830D02*
X77957Y-39773D01*
X78033Y-39716D01*
G54D11*
X78964Y-41828D02*
X78964Y-41371D01*
X79192Y-41599D02*
X78735Y-41599D01*
G54D15*
X72489Y-40625D02*
X72510Y-40641D01*
X72532Y-40691D01*
X72532Y-40725D01*
X72510Y-40775D01*
X72467Y-40808D01*
X72425Y-40825D01*
X72339Y-40841D01*
X72275Y-40841D01*
X72189Y-40825D01*
X72146Y-40808D01*
X72103Y-40775D01*
X72082Y-40725D01*
X72082Y-40691D01*
X72103Y-40641D01*
X72125Y-40625D01*
X72532Y-40291D02*
X72532Y-40491D01*
X72532Y-40391D02*
X72082Y-40391D01*
X72146Y-40425D01*
X72189Y-40458D01*
X72210Y-40491D01*
X72082Y-40191D02*
X72532Y-40075D01*
X72082Y-39958D01*
X72082Y-39875D02*
X72082Y-39641D01*
X72532Y-39791D01*
X70882Y-40883D02*
X71332Y-40766D01*
X70882Y-40650D01*
X71332Y-40383D02*
X71096Y-40383D01*
X71053Y-40400D01*
X71032Y-40433D01*
X71032Y-40500D01*
X71053Y-40533D01*
X71310Y-40383D02*
X71332Y-40416D01*
X71332Y-40500D01*
X71310Y-40533D01*
X71267Y-40550D01*
X71225Y-40550D01*
X71182Y-40533D01*
X71160Y-40500D01*
X71160Y-40416D01*
X71139Y-40383D01*
X71332Y-40166D02*
X71310Y-40200D01*
X71267Y-40216D01*
X70882Y-40216D01*
X70882Y-39983D02*
X70989Y-39983D01*
X70946Y-40066D02*
X70989Y-39983D01*
X70946Y-39900D01*
X71075Y-40033D02*
X70989Y-39983D01*
X71075Y-39933D01*
X70882Y-39716D02*
X70989Y-39716D01*
X70946Y-39800D02*
X70989Y-39716D01*
X70946Y-39633D01*
X71075Y-39766D02*
X70989Y-39716D01*
X71075Y-39666D01*
G54D17*
X71760Y-41421D02*
X71760Y-41078D01*
X71932Y-41250D02*
X71589Y-41250D01*
G54D11*
G54D15*
X75923Y-40625D02*
X75942Y-40641D01*
X75961Y-40691D01*
X75961Y-40725D01*
X75942Y-40775D01*
X75904Y-40808D01*
X75866Y-40825D01*
X75790Y-40841D01*
X75733Y-40841D01*
X75657Y-40825D01*
X75619Y-40808D01*
X75580Y-40775D01*
X75561Y-40725D01*
X75561Y-40691D01*
X75580Y-40641D01*
X75600Y-40625D01*
X75961Y-40291D02*
X75961Y-40491D01*
X75961Y-40391D02*
X75561Y-40391D01*
X75619Y-40425D01*
X75657Y-40458D01*
X75676Y-40491D01*
X75561Y-40191D02*
X75961Y-40075D01*
X75561Y-39958D01*
X75733Y-39791D02*
X75714Y-39825D01*
X75695Y-39841D01*
X75657Y-39858D01*
X75638Y-39858D01*
X75600Y-39841D01*
X75580Y-39825D01*
X75561Y-39791D01*
X75561Y-39725D01*
X75580Y-39691D01*
X75600Y-39675D01*
X75638Y-39658D01*
X75657Y-39658D01*
X75695Y-39675D01*
X75714Y-39691D01*
X75733Y-39725D01*
X75733Y-39791D01*
X75752Y-39825D01*
X75771Y-39841D01*
X75809Y-39858D01*
X75885Y-39858D01*
X75923Y-39841D01*
X75942Y-39825D01*
X75961Y-39791D01*
X75961Y-39725D01*
X75942Y-39691D01*
X75923Y-39675D01*
X75885Y-39658D01*
X75809Y-39658D01*
X75771Y-39675D01*
X75752Y-39691D01*
X75733Y-39725D01*
X74062Y-40883D02*
X74462Y-40766D01*
X74062Y-40650D01*
X74462Y-40383D02*
X74253Y-40383D01*
X74215Y-40400D01*
X74196Y-40433D01*
X74196Y-40500D01*
X74215Y-40533D01*
X74443Y-40383D02*
X74462Y-40416D01*
X74462Y-40500D01*
X74443Y-40533D01*
X74405Y-40550D01*
X74367Y-40550D01*
X74329Y-40533D01*
X74310Y-40500D01*
X74310Y-40416D01*
X74291Y-40383D01*
X74462Y-40166D02*
X74443Y-40200D01*
X74405Y-40216D01*
X74062Y-40216D01*
X74062Y-39983D02*
X74158Y-39983D01*
X74120Y-40066D02*
X74158Y-39983D01*
X74120Y-39900D01*
X74234Y-40033D02*
X74158Y-39983D01*
X74234Y-39933D01*
X74062Y-39716D02*
X74158Y-39716D01*
X74120Y-39800D02*
X74158Y-39716D01*
X74120Y-39633D01*
X74234Y-39766D02*
X74158Y-39716D01*
X74234Y-39666D01*
X75014Y-41677D02*
X75014Y-41220D01*
X75242Y-41448D02*
X74785Y-41448D01*
X69873Y-48066D02*
X69892Y-48085D01*
X69911Y-48142D01*
X69911Y-48180D01*
X69892Y-48238D01*
X69854Y-48276D01*
X69816Y-48295D01*
X69740Y-48314D01*
X69683Y-48314D01*
X69607Y-48295D01*
X69569Y-48276D01*
X69530Y-48238D01*
X69511Y-48180D01*
X69511Y-48142D01*
X69530Y-48085D01*
X69550Y-48066D01*
X69550Y-47914D02*
X69530Y-47895D01*
X69511Y-47857D01*
X69511Y-47761D01*
X69530Y-47723D01*
X69550Y-47704D01*
X69588Y-47685D01*
X69626Y-47685D01*
X69683Y-47704D01*
X69911Y-47933D01*
X69911Y-47685D01*
X77873Y-44178D02*
X77892Y-44197D01*
X77911Y-44254D01*
X77911Y-44292D01*
X77892Y-44349D01*
X77854Y-44388D01*
X77816Y-44407D01*
X77740Y-44426D01*
X77683Y-44426D01*
X77607Y-44407D01*
X77569Y-44388D01*
X77530Y-44349D01*
X77511Y-44292D01*
X77511Y-44254D01*
X77530Y-44197D01*
X77550Y-44178D01*
X77550Y-44026D02*
X77530Y-44007D01*
X77511Y-43969D01*
X77511Y-43873D01*
X77530Y-43835D01*
X77550Y-43816D01*
X77588Y-43797D01*
X77626Y-43797D01*
X77683Y-43816D01*
X77911Y-44045D01*
X77911Y-43797D01*
X77511Y-43683D02*
X77911Y-43549D01*
X77511Y-43416D01*
X77683Y-43226D02*
X77664Y-43264D01*
X77645Y-43283D01*
X77607Y-43302D01*
X77588Y-43302D01*
X77550Y-43283D01*
X77530Y-43264D01*
X77511Y-43226D01*
X77511Y-43150D01*
X77530Y-43111D01*
X77550Y-43092D01*
X77588Y-43073D01*
X77607Y-43073D01*
X77645Y-43092D01*
X77664Y-43111D01*
X77683Y-43150D01*
X77683Y-43226D01*
X77702Y-43264D01*
X77721Y-43283D01*
X77759Y-43302D01*
X77835Y-43302D01*
X77873Y-43283D01*
X77892Y-43264D01*
X77911Y-43226D01*
X77911Y-43150D01*
X77892Y-43111D01*
X77873Y-43092D01*
X77835Y-43073D01*
X77759Y-43073D01*
X77721Y-43092D01*
X77702Y-43111D01*
X77683Y-43150D01*
X75873Y-44083D02*
X75892Y-44102D01*
X75911Y-44159D01*
X75911Y-44197D01*
X75892Y-44254D01*
X75854Y-44292D01*
X75816Y-44311D01*
X75740Y-44330D01*
X75683Y-44330D01*
X75607Y-44311D01*
X75569Y-44292D01*
X75530Y-44254D01*
X75511Y-44197D01*
X75511Y-44159D01*
X75530Y-44102D01*
X75550Y-44083D01*
X75511Y-43854D02*
X75607Y-43854D01*
X75569Y-43949D02*
X75607Y-43854D01*
X75569Y-43759D01*
X75683Y-43911D02*
X75607Y-43854D01*
X75683Y-43797D01*
X75511Y-43549D02*
X75607Y-43549D01*
X75569Y-43645D02*
X75607Y-43549D01*
X75569Y-43454D01*
X75683Y-43607D02*
X75607Y-43549D01*
X75683Y-43492D01*
X75511Y-43245D02*
X75607Y-43245D01*
X75569Y-43340D02*
X75607Y-43245D01*
X75569Y-43150D01*
X75683Y-43302D02*
X75607Y-43245D01*
X75683Y-43188D01*
G54D12*
X73404Y-45023D02*
X73428Y-45047D01*
X73452Y-45119D01*
X73452Y-45166D01*
X73428Y-45238D01*
X73380Y-45285D01*
X73333Y-45309D01*
X73238Y-45333D01*
X73166Y-45333D01*
X73071Y-45309D01*
X73023Y-45285D01*
X72976Y-45238D01*
X72952Y-45166D01*
X72952Y-45119D01*
X72976Y-45047D01*
X73000Y-45023D01*
X73000Y-44833D02*
X72976Y-44809D01*
X72952Y-44761D01*
X72952Y-44642D01*
X72976Y-44595D01*
X73000Y-44571D01*
X73047Y-44547D01*
X73095Y-44547D01*
X73166Y-44571D01*
X73452Y-44857D01*
X73452Y-44547D01*
X72952Y-44404D02*
X73452Y-44238D01*
X72952Y-44071D01*
X73452Y-43642D02*
X73452Y-43928D01*
X73452Y-43785D02*
X72952Y-43785D01*
X73023Y-43833D01*
X73071Y-43880D01*
X73095Y-43928D01*
X72952Y-43333D02*
X72952Y-43285D01*
X72976Y-43238D01*
X73000Y-43214D01*
X73047Y-43190D01*
X73142Y-43166D01*
X73261Y-43166D01*
X73357Y-43190D01*
X73404Y-43214D01*
X73428Y-43238D01*
X73452Y-43285D01*
X73452Y-43333D01*
X73428Y-43380D01*
X73404Y-43404D01*
X73357Y-43428D01*
X73261Y-43452D01*
X73142Y-43452D01*
X73047Y-43428D01*
X73000Y-43404D01*
X72976Y-43380D01*
X72952Y-43333D01*
X71404Y-44666D02*
X71428Y-44690D01*
X71452Y-44761D01*
X71452Y-44809D01*
X71428Y-44880D01*
X71380Y-44928D01*
X71333Y-44952D01*
X71238Y-44976D01*
X71166Y-44976D01*
X71071Y-44952D01*
X71023Y-44928D01*
X70976Y-44880D01*
X70952Y-44809D01*
X70952Y-44761D01*
X70976Y-44690D01*
X71000Y-44666D01*
X70952Y-44380D02*
X71071Y-44380D01*
X71023Y-44499D02*
X71071Y-44380D01*
X71023Y-44261D01*
X71166Y-44452D02*
X71071Y-44380D01*
X71166Y-44309D01*
X70952Y-43999D02*
X71071Y-43999D01*
X71023Y-44119D02*
X71071Y-43999D01*
X71023Y-43880D01*
X71166Y-44071D02*
X71071Y-43999D01*
X71166Y-43928D01*
X70952Y-43619D02*
X71071Y-43619D01*
X71023Y-43738D02*
X71071Y-43619D01*
X71023Y-43500D01*
X71166Y-43690D02*
X71071Y-43619D01*
X71166Y-43547D01*
G54D15*
X62661Y-47545D02*
X62261Y-47545D01*
X62261Y-47449D01*
X62280Y-47392D01*
X62319Y-47354D01*
X62357Y-47335D01*
X62433Y-47316D01*
X62490Y-47316D01*
X62566Y-47335D01*
X62604Y-47354D01*
X62642Y-47392D01*
X62661Y-47449D01*
X62661Y-47545D01*
X62261Y-47183D02*
X62261Y-46935D01*
X62414Y-47069D01*
X62414Y-47011D01*
X62433Y-46973D01*
X62452Y-46954D01*
X62490Y-46935D01*
X62585Y-46935D01*
X62623Y-46954D01*
X62642Y-46973D01*
X62661Y-47011D01*
X62661Y-47126D01*
X62642Y-47164D01*
X62623Y-47183D01*
X66452Y-47045D02*
X65952Y-47045D01*
X65952Y-46949D01*
X65976Y-46892D01*
X66023Y-46854D01*
X66071Y-46835D01*
X66166Y-46816D01*
X66238Y-46816D01*
X66333Y-46835D01*
X66380Y-46854D01*
X66428Y-46892D01*
X66452Y-46949D01*
X66452Y-47045D01*
X66119Y-46473D02*
X66452Y-46473D01*
X65928Y-46569D02*
X66285Y-46664D01*
X66285Y-46416D01*
G54D12*
X67992Y-46545D02*
X67392Y-46545D01*
X67392Y-46449D01*
X67421Y-46392D01*
X67478Y-46354D01*
X67535Y-46335D01*
X67650Y-46316D01*
X67735Y-46316D01*
X67850Y-46335D01*
X67907Y-46354D01*
X67964Y-46392D01*
X67992Y-46449D01*
X67992Y-46545D01*
X67392Y-45954D02*
X67392Y-46145D01*
X67678Y-46164D01*
X67650Y-46145D01*
X67621Y-46107D01*
X67621Y-46011D01*
X67650Y-45973D01*
X67678Y-45954D01*
X67735Y-45935D01*
X67878Y-45935D01*
X67935Y-45954D01*
X67964Y-45973D01*
X67992Y-46011D01*
X67992Y-46107D01*
X67964Y-46145D01*
X67935Y-46164D01*
G54D11*
G54D12*
X65454Y-50492D02*
X65454Y-49892D01*
X65550Y-49892D01*
X65607Y-49921D01*
X65645Y-49978D01*
X65664Y-50035D01*
X65683Y-50150D01*
X65683Y-50235D01*
X65664Y-50350D01*
X65645Y-50407D01*
X65607Y-50464D01*
X65550Y-50492D01*
X65454Y-50492D01*
X66026Y-49892D02*
X65950Y-49892D01*
X65911Y-49921D01*
X65892Y-49950D01*
X65854Y-50035D01*
X65835Y-50150D01*
X65835Y-50378D01*
X65854Y-50435D01*
X65873Y-50464D01*
X65911Y-50492D01*
X65988Y-50492D01*
X66026Y-50464D01*
X66045Y-50435D01*
X66064Y-50378D01*
X66064Y-50235D01*
X66045Y-50178D01*
X66026Y-50150D01*
X65988Y-50121D01*
X65911Y-50121D01*
X65873Y-50150D01*
X65854Y-50178D01*
X65835Y-50235D01*
G54D11*
G54D12*
X65188Y-51492D02*
X65188Y-50892D01*
X65283Y-50892D01*
X65340Y-50921D01*
X65378Y-50978D01*
X65397Y-51035D01*
X65416Y-51150D01*
X65416Y-51235D01*
X65397Y-51350D01*
X65378Y-51407D01*
X65340Y-51464D01*
X65283Y-51492D01*
X65188Y-51492D01*
X65645Y-50892D02*
X65645Y-51035D01*
X65550Y-50978D02*
X65645Y-51035D01*
X65740Y-50978D01*
X65588Y-51150D02*
X65645Y-51035D01*
X65702Y-51150D01*
X65950Y-50892D02*
X65950Y-51035D01*
X65854Y-50978D02*
X65950Y-51035D01*
X66045Y-50978D01*
X65892Y-51150D02*
X65950Y-51035D01*
X66007Y-51150D01*
X66254Y-50892D02*
X66254Y-51035D01*
X66159Y-50978D02*
X66254Y-51035D01*
X66350Y-50978D01*
X66197Y-51150D02*
X66254Y-51035D01*
X66311Y-51150D01*
G54D11*
G54D15*
X63911Y-48192D02*
X63511Y-48192D01*
X63511Y-48097D01*
X63530Y-48040D01*
X63569Y-48002D01*
X63607Y-47983D01*
X63683Y-47964D01*
X63740Y-47964D01*
X63816Y-47983D01*
X63854Y-48002D01*
X63892Y-48040D01*
X63911Y-48097D01*
X63911Y-48192D01*
X63511Y-47716D02*
X63511Y-47640D01*
X63530Y-47602D01*
X63569Y-47564D01*
X63645Y-47545D01*
X63778Y-47545D01*
X63854Y-47564D01*
X63892Y-47602D01*
X63911Y-47640D01*
X63911Y-47716D01*
X63892Y-47754D01*
X63854Y-47792D01*
X63778Y-47811D01*
X63645Y-47811D01*
X63569Y-47792D01*
X63530Y-47754D01*
X63511Y-47716D01*
X63759Y-47373D02*
X63759Y-47069D01*
X63511Y-46916D02*
X63511Y-46669D01*
X63664Y-46802D01*
X63664Y-46745D01*
X63683Y-46707D01*
X63702Y-46688D01*
X63740Y-46669D01*
X63835Y-46669D01*
X63873Y-46688D01*
X63892Y-46707D01*
X63911Y-46745D01*
X63911Y-46859D01*
X63892Y-46897D01*
X63873Y-46916D01*
X63511Y-46307D02*
X63511Y-46497D01*
X63702Y-46516D01*
X63683Y-46497D01*
X63664Y-46459D01*
X63664Y-46364D01*
X63683Y-46326D01*
X63702Y-46307D01*
X63740Y-46288D01*
X63835Y-46288D01*
X63873Y-46307D01*
X63892Y-46326D01*
X63911Y-46364D01*
X63911Y-46459D01*
X63892Y-46497D01*
X63873Y-46516D01*
X65161Y-47692D02*
X64761Y-47692D01*
X64761Y-47597D01*
X64780Y-47540D01*
X64819Y-47502D01*
X64857Y-47483D01*
X64933Y-47464D01*
X64990Y-47464D01*
X65066Y-47483D01*
X65104Y-47502D01*
X65142Y-47540D01*
X65161Y-47597D01*
X65161Y-47692D01*
X64761Y-47216D02*
X64761Y-47140D01*
X64780Y-47102D01*
X64819Y-47064D01*
X64895Y-47045D01*
X65028Y-47045D01*
X65104Y-47064D01*
X65142Y-47102D01*
X65161Y-47140D01*
X65161Y-47216D01*
X65142Y-47254D01*
X65104Y-47292D01*
X65028Y-47311D01*
X64895Y-47311D01*
X64819Y-47292D01*
X64780Y-47254D01*
X64761Y-47216D01*
X65009Y-46873D02*
X65009Y-46569D01*
X64895Y-46207D02*
X65161Y-46207D01*
X64742Y-46302D02*
X65028Y-46397D01*
X65028Y-46150D01*
X65161Y-45788D02*
X65161Y-46016D01*
X65161Y-45902D02*
X64761Y-45902D01*
X64819Y-45940D01*
X64857Y-45978D01*
X64876Y-46016D01*
G54D11*
X61992Y-56671D02*
X61392Y-56671D01*
X61678Y-56671D02*
X61678Y-56328D01*
X61992Y-56328D02*
X61392Y-56328D01*
X61935Y-55700D02*
X61964Y-55728D01*
X61992Y-55814D01*
X61992Y-55871D01*
X61964Y-55957D01*
X61907Y-56014D01*
X61850Y-56042D01*
X61735Y-56071D01*
X61650Y-56071D01*
X61535Y-56042D01*
X61478Y-56014D01*
X61421Y-55957D01*
X61392Y-55871D01*
X61392Y-55814D01*
X61421Y-55728D01*
X61450Y-55700D01*
X61764Y-55442D02*
X61764Y-54985D01*
X61592Y-54442D02*
X61992Y-54442D01*
X61364Y-54585D02*
X61792Y-54728D01*
X61792Y-54357D01*
X61992Y-54100D02*
X61992Y-53985D01*
X61964Y-53928D01*
X61935Y-53900D01*
X61850Y-53842D01*
X61735Y-53814D01*
X61507Y-53814D01*
X61450Y-53842D01*
X61421Y-53871D01*
X61392Y-53928D01*
X61392Y-54042D01*
X61421Y-54100D01*
X61450Y-54128D01*
X61507Y-54157D01*
X61650Y-54157D01*
X61707Y-54128D01*
X61735Y-54100D01*
X61764Y-54042D01*
X61764Y-53928D01*
X61735Y-53871D01*
X61707Y-53842D01*
X61650Y-53814D01*
X61392Y-53642D02*
X61992Y-53442D01*
X61392Y-53242D01*
X64392Y-55885D02*
X64992Y-55685D01*
X64392Y-55485D01*
X64392Y-55200D02*
X64535Y-55200D01*
X64478Y-55342D02*
X64535Y-55200D01*
X64478Y-55057D01*
X64650Y-55285D02*
X64535Y-55200D01*
X64650Y-55114D01*
X64392Y-54742D02*
X64535Y-54742D01*
X64478Y-54885D02*
X64535Y-54742D01*
X64478Y-54599D01*
X64650Y-54828D02*
X64535Y-54742D01*
X64650Y-54657D01*
X64392Y-54285D02*
X64535Y-54285D01*
X64478Y-54428D02*
X64535Y-54285D01*
X64478Y-54142D01*
X64650Y-54371D02*
X64535Y-54285D01*
X64650Y-54199D01*
G54D15*
X64392Y-57411D02*
X64202Y-57411D01*
X64202Y-57011D01*
X64526Y-57411D02*
X64526Y-57011D01*
X64659Y-57297D01*
X64792Y-57011D01*
X64792Y-57411D01*
X64945Y-57011D02*
X65211Y-57011D01*
X65040Y-57411D01*
X65421Y-57183D02*
X65383Y-57164D01*
X65364Y-57145D01*
X65345Y-57107D01*
X65345Y-57088D01*
X65364Y-57050D01*
X65383Y-57030D01*
X65421Y-57011D01*
X65497Y-57011D01*
X65535Y-57030D01*
X65554Y-57050D01*
X65573Y-57088D01*
X65573Y-57107D01*
X65554Y-57145D01*
X65535Y-57164D01*
X65497Y-57183D01*
X65421Y-57183D01*
X65383Y-57202D01*
X65364Y-57221D01*
X65345Y-57259D01*
X65345Y-57335D01*
X65364Y-57373D01*
X65383Y-57392D01*
X65421Y-57411D01*
X65497Y-57411D01*
X65535Y-57392D01*
X65554Y-57373D01*
X65573Y-57335D01*
X65573Y-57259D01*
X65554Y-57221D01*
X65535Y-57202D01*
X65497Y-57183D01*
X65707Y-57011D02*
X65973Y-57411D01*
X65973Y-57011D02*
X65707Y-57411D01*
X66088Y-57011D02*
X66354Y-57411D01*
X66354Y-57011D02*
X66088Y-57411D01*
X66507Y-57259D02*
X66811Y-57259D01*
X66945Y-57011D02*
X67173Y-57011D01*
X67059Y-57411D02*
X67059Y-57011D01*
X67383Y-57011D02*
X67459Y-57011D01*
X67497Y-57030D01*
X67535Y-57069D01*
X67554Y-57145D01*
X67554Y-57278D01*
X67535Y-57354D01*
X67497Y-57392D01*
X67459Y-57411D01*
X67383Y-57411D01*
X67345Y-57392D01*
X67307Y-57354D01*
X67288Y-57278D01*
X67288Y-57145D01*
X67307Y-57069D01*
X67345Y-57030D01*
X67383Y-57011D01*
X67745Y-57411D02*
X67821Y-57411D01*
X67859Y-57392D01*
X67878Y-57373D01*
X67916Y-57316D01*
X67935Y-57240D01*
X67935Y-57088D01*
X67916Y-57050D01*
X67897Y-57030D01*
X67859Y-57011D01*
X67783Y-57011D01*
X67745Y-57030D01*
X67726Y-57050D01*
X67707Y-57088D01*
X67707Y-57183D01*
X67726Y-57221D01*
X67745Y-57240D01*
X67783Y-57259D01*
X67859Y-57259D01*
X67897Y-57240D01*
X67916Y-57221D01*
X67935Y-57183D01*
X68088Y-57050D02*
X68107Y-57030D01*
X68145Y-57011D01*
X68240Y-57011D01*
X68278Y-57030D01*
X68297Y-57050D01*
X68316Y-57088D01*
X68316Y-57126D01*
X68297Y-57183D01*
X68069Y-57411D01*
X68316Y-57411D01*
X65478Y-53511D02*
X65611Y-53911D01*
X65745Y-53511D01*
X65859Y-53797D02*
X66050Y-53797D01*
X65821Y-53911D02*
X65954Y-53511D01*
X66088Y-53911D01*
X66411Y-53911D02*
X66221Y-53911D01*
X66221Y-53511D01*
X66602Y-53511D02*
X66602Y-53607D01*
X66507Y-53569D02*
X66602Y-53607D01*
X66697Y-53569D01*
X66545Y-53683D02*
X66602Y-53607D01*
X66659Y-53683D01*
X66907Y-53511D02*
X66907Y-53607D01*
X66811Y-53569D02*
X66907Y-53607D01*
X67002Y-53569D01*
X66850Y-53683D02*
X66907Y-53607D01*
X66964Y-53683D01*
X68992Y-56288D02*
X68992Y-56478D01*
X68392Y-56478D01*
X68992Y-56154D02*
X68392Y-56154D01*
X68821Y-56021D01*
X68392Y-55888D01*
X68992Y-55888D01*
X68392Y-55735D02*
X68392Y-55469D01*
X68992Y-55640D01*
X68650Y-55259D02*
X68621Y-55297D01*
X68592Y-55316D01*
X68535Y-55335D01*
X68507Y-55335D01*
X68450Y-55316D01*
X68421Y-55297D01*
X68392Y-55259D01*
X68392Y-55183D01*
X68421Y-55145D01*
X68450Y-55126D01*
X68507Y-55107D01*
X68535Y-55107D01*
X68592Y-55126D01*
X68621Y-55145D01*
X68650Y-55183D01*
X68650Y-55259D01*
X68678Y-55297D01*
X68707Y-55316D01*
X68764Y-55335D01*
X68878Y-55335D01*
X68935Y-55316D01*
X68964Y-55297D01*
X68992Y-55259D01*
X68992Y-55183D01*
X68964Y-55145D01*
X68935Y-55126D01*
X68878Y-55107D01*
X68764Y-55107D01*
X68707Y-55126D01*
X68678Y-55145D01*
X68650Y-55183D01*
X68392Y-54973D02*
X68992Y-54707D01*
X68392Y-54707D02*
X68992Y-54973D01*
X68392Y-54592D02*
X68992Y-54326D01*
X68392Y-54326D02*
X68992Y-54592D01*
X68392Y-54230D02*
X68992Y-54097D01*
X68392Y-53964D01*
X71142Y-56119D02*
X71742Y-55985D01*
X71142Y-55852D01*
X71571Y-55738D02*
X71571Y-55547D01*
X71742Y-55776D02*
X71142Y-55642D01*
X71742Y-55509D01*
X71742Y-55185D02*
X71742Y-55376D01*
X71142Y-55376D01*
X71142Y-54995D02*
X71285Y-54995D01*
X71228Y-55090D02*
X71285Y-54995D01*
X71228Y-54900D01*
X71400Y-55052D02*
X71285Y-54995D01*
X71400Y-54938D01*
X69972Y-51433D02*
X69710Y-51600D01*
X69972Y-51719D02*
X69422Y-51719D01*
X69422Y-51528D01*
X69448Y-51480D01*
X69475Y-51457D01*
X69527Y-51433D01*
X69605Y-51433D01*
X69658Y-51457D01*
X69684Y-51480D01*
X69710Y-51528D01*
X69710Y-51719D01*
X69972Y-50957D02*
X69972Y-51242D01*
X69972Y-51100D02*
X69422Y-51100D01*
X69501Y-51147D01*
X69553Y-51195D01*
X69579Y-51242D01*
X72722Y-51714D02*
X73272Y-51547D01*
X72722Y-51380D01*
X73272Y-51000D02*
X72984Y-51000D01*
X72932Y-51023D01*
X72905Y-51071D01*
X72905Y-51166D01*
X72932Y-51214D01*
X73246Y-51000D02*
X73272Y-51047D01*
X73272Y-51166D01*
X73246Y-51214D01*
X73194Y-51238D01*
X73141Y-51238D01*
X73089Y-51214D01*
X73063Y-51166D01*
X73063Y-51047D01*
X73036Y-51000D01*
X73272Y-50690D02*
X73246Y-50738D01*
X73194Y-50761D01*
X72722Y-50761D01*
X72722Y-50428D02*
X72853Y-50428D01*
X72801Y-50547D02*
X72853Y-50428D01*
X72801Y-50309D01*
X72958Y-50500D02*
X72853Y-50428D01*
X72958Y-50357D01*
X74472Y-50583D02*
X74210Y-50750D01*
X74472Y-50869D02*
X73922Y-50869D01*
X73922Y-50678D01*
X73948Y-50630D01*
X73975Y-50607D01*
X74027Y-50583D01*
X74105Y-50583D01*
X74158Y-50607D01*
X74184Y-50630D01*
X74210Y-50678D01*
X74210Y-50869D01*
X74105Y-50154D02*
X74472Y-50154D01*
X73896Y-50273D02*
X74289Y-50392D01*
X74289Y-50083D01*
X75972Y-50083D02*
X75710Y-50250D01*
X75972Y-50369D02*
X75422Y-50369D01*
X75422Y-50178D01*
X75448Y-50130D01*
X75475Y-50107D01*
X75527Y-50083D01*
X75605Y-50083D01*
X75658Y-50107D01*
X75684Y-50130D01*
X75710Y-50178D01*
X75710Y-50369D01*
X75422Y-49630D02*
X75422Y-49869D01*
X75684Y-49892D01*
X75658Y-49869D01*
X75632Y-49821D01*
X75632Y-49702D01*
X75658Y-49654D01*
X75684Y-49630D01*
X75736Y-49607D01*
X75867Y-49607D01*
X75920Y-49630D01*
X75946Y-49654D01*
X75972Y-49702D01*
X75972Y-49821D01*
X75946Y-49869D01*
X75920Y-49892D01*
X77472Y-49583D02*
X77210Y-49750D01*
X77472Y-49869D02*
X76922Y-49869D01*
X76922Y-49678D01*
X76948Y-49630D01*
X76975Y-49607D01*
X77027Y-49583D01*
X77105Y-49583D01*
X77158Y-49607D01*
X77184Y-49630D01*
X77210Y-49678D01*
X77210Y-49869D01*
X76922Y-49154D02*
X76922Y-49250D01*
X76948Y-49297D01*
X76975Y-49321D01*
X77053Y-49369D01*
X77158Y-49392D01*
X77367Y-49392D01*
X77420Y-49369D01*
X77446Y-49345D01*
X77472Y-49297D01*
X77472Y-49202D01*
X77446Y-49154D01*
X77420Y-49130D01*
X77367Y-49107D01*
X77236Y-49107D01*
X77184Y-49130D01*
X77158Y-49154D01*
X77132Y-49202D01*
X77132Y-49297D01*
X77158Y-49345D01*
X77184Y-49369D01*
X77236Y-49392D01*
X80122Y-48183D02*
X79860Y-48350D01*
X80122Y-48469D02*
X79572Y-48469D01*
X79572Y-48278D01*
X79598Y-48230D01*
X79625Y-48207D01*
X79677Y-48183D01*
X79755Y-48183D01*
X79808Y-48207D01*
X79834Y-48230D01*
X79860Y-48278D01*
X79860Y-48469D01*
X79572Y-48016D02*
X79572Y-47683D01*
X80122Y-47897D01*
X78672Y-50614D02*
X79222Y-50447D01*
X78672Y-50280D01*
X79222Y-49900D02*
X78934Y-49900D01*
X78882Y-49923D01*
X78855Y-49971D01*
X78855Y-50066D01*
X78882Y-50114D01*
X79196Y-49900D02*
X79222Y-49947D01*
X79222Y-50066D01*
X79196Y-50114D01*
X79144Y-50138D01*
X79091Y-50138D01*
X79039Y-50114D01*
X79013Y-50066D01*
X79013Y-49947D01*
X78986Y-49900D01*
X79222Y-49590D02*
X79196Y-49638D01*
X79144Y-49661D01*
X78672Y-49661D01*
X78672Y-49328D02*
X78803Y-49328D01*
X78751Y-49447D02*
X78803Y-49328D01*
X78751Y-49209D01*
X78908Y-49400D02*
X78803Y-49328D01*
X78908Y-49257D01*
X74761Y-56145D02*
X74761Y-55916D01*
X75161Y-56030D02*
X74761Y-56030D01*
X74761Y-55707D02*
X74761Y-55630D01*
X74780Y-55592D01*
X74819Y-55554D01*
X74895Y-55535D01*
X75028Y-55535D01*
X75104Y-55554D01*
X75142Y-55592D01*
X75161Y-55630D01*
X75161Y-55707D01*
X75142Y-55745D01*
X75104Y-55783D01*
X75028Y-55802D01*
X74895Y-55802D01*
X74819Y-55783D01*
X74780Y-55745D01*
X74761Y-55707D01*
X74800Y-55383D02*
X74780Y-55364D01*
X74761Y-55326D01*
X74761Y-55230D01*
X74780Y-55192D01*
X74800Y-55173D01*
X74838Y-55154D01*
X74876Y-55154D01*
X74933Y-55173D01*
X75161Y-55402D01*
X75161Y-55154D01*
X74800Y-55002D02*
X74780Y-54983D01*
X74761Y-54945D01*
X74761Y-54850D01*
X74780Y-54811D01*
X74800Y-54792D01*
X74838Y-54773D01*
X74876Y-54773D01*
X74933Y-54792D01*
X75161Y-55021D01*
X75161Y-54773D01*
X74761Y-54526D02*
X74761Y-54488D01*
X74780Y-54450D01*
X74800Y-54430D01*
X74838Y-54411D01*
X74914Y-54392D01*
X75009Y-54392D01*
X75085Y-54411D01*
X75123Y-54430D01*
X75142Y-54450D01*
X75161Y-54488D01*
X75161Y-54526D01*
X75142Y-54564D01*
X75123Y-54583D01*
X75085Y-54602D01*
X75009Y-54621D01*
X74914Y-54621D01*
X74838Y-54602D01*
X74800Y-54583D01*
X74780Y-54564D01*
X74761Y-54526D01*
X76261Y-55869D02*
X76661Y-55735D01*
X76261Y-55602D01*
X76547Y-55488D02*
X76547Y-55297D01*
X76661Y-55526D02*
X76261Y-55392D01*
X76661Y-55259D01*
X76661Y-54935D02*
X76661Y-55126D01*
X76261Y-55126D01*
X76261Y-54745D02*
X76357Y-54745D01*
X76319Y-54840D02*
X76357Y-54745D01*
X76319Y-54650D01*
X76433Y-54802D02*
X76357Y-54745D01*
X76433Y-54688D01*
M02*
