G04 (created by PCBNEW (2013-07-07 BZR 4022)-stable) date 2/4/2014 11:59:03 PM*
%MOIN*%
G04 Gerber Fmt 3.4, Leading zero omitted, Abs format*
%FSLAX34Y34*%
G01*
G70*
G90*
G04 APERTURE LIST*
%ADD10C,0.00590551*%
%ADD11R,0.16X0.16*%
%ADD12R,0.06X0.08*%
%ADD13R,0.0709X0.0866*%
%ADD14R,0.065X0.12*%
%ADD15R,0.24X0.24*%
%ADD16R,0.042X0.09*%
%ADD17R,0.42X0.35*%
%ADD18R,0.07X0.09*%
%ADD19R,0.015748X0.011811*%
%ADD20R,0.0157X0.0236*%
%ADD21R,0.045X0.025*%
%ADD22R,0.055X0.035*%
%ADD23R,0.05X0.1*%
%ADD24R,0.0236X0.0551*%
%ADD25R,0.02X0.045*%
%ADD26R,0.0315X0.0394*%
%ADD27R,0.02X0.03*%
%ADD28R,0.0276X0.0394*%
%ADD29R,0.144X0.08*%
%ADD30R,0.04X0.08*%
%ADD31R,0.0236X0.0394*%
%ADD32R,0.02X0.012*%
%ADD33R,0.0177X0.0118*%
%ADD34R,0.05X0.016*%
%ADD35R,0.0512X0.0118*%
%ADD36R,0.09X0.045*%
%ADD37R,0.2755X0.4252*%
%ADD38R,0.3937X0.4252*%
%ADD39R,0.012X0.02*%
G04 APERTURE END LIST*
G54D10*
G54D11*
X63000Y-40000D03*
G54D12*
X65000Y-41750D03*
X66000Y-41750D03*
X67000Y-41750D03*
X68000Y-41750D03*
X68000Y-38750D03*
X67000Y-38750D03*
X66000Y-38750D03*
X65000Y-38750D03*
G54D13*
X79540Y-39000D03*
X77960Y-39000D03*
G54D14*
X73400Y-53500D03*
G54D15*
X72500Y-56000D03*
G54D14*
X71600Y-53500D03*
G54D16*
X65340Y-52000D03*
G54D17*
X64000Y-55450D03*
G54D16*
X64000Y-52000D03*
X64670Y-52000D03*
X63330Y-52000D03*
X62660Y-52000D03*
G54D17*
X68750Y-55450D03*
G54D18*
X68750Y-52000D03*
X69750Y-52000D03*
X67750Y-52000D03*
G54D19*
X74750Y-44118D03*
X74750Y-43881D03*
G54D20*
X77427Y-44250D03*
X77073Y-44250D03*
G54D21*
X80250Y-44050D03*
X80250Y-43450D03*
G54D22*
X80250Y-45625D03*
X80250Y-44875D03*
G54D23*
X79150Y-46750D03*
X80350Y-46750D03*
G54D24*
X62750Y-48450D03*
X62750Y-50550D03*
X63250Y-48450D03*
X63750Y-48450D03*
X64250Y-48450D03*
X63250Y-50550D03*
X63750Y-50550D03*
X64250Y-50550D03*
G54D25*
X68500Y-48000D03*
X69000Y-48000D03*
X69500Y-48000D03*
X70000Y-48000D03*
X70000Y-50500D03*
X69500Y-50500D03*
X69000Y-50500D03*
X68500Y-50500D03*
G54D26*
X69250Y-45817D03*
X69625Y-46683D03*
X68875Y-46683D03*
G54D27*
X68875Y-44750D03*
X69625Y-44750D03*
X68875Y-43750D03*
X69250Y-44750D03*
X69625Y-43750D03*
G54D28*
X70625Y-43750D03*
X71000Y-43750D03*
X71375Y-43750D03*
X71375Y-44750D03*
X71000Y-44750D03*
X70625Y-44750D03*
G54D29*
X70500Y-38950D03*
G54D30*
X70500Y-41550D03*
X71400Y-41550D03*
X69600Y-41550D03*
G54D31*
X72744Y-38626D03*
X73256Y-38626D03*
X73000Y-39374D03*
G54D32*
X74350Y-38500D03*
X74350Y-39000D03*
X75150Y-38500D03*
X74350Y-38750D03*
X75150Y-39000D03*
G54D33*
X76224Y-38803D03*
X76224Y-39197D03*
X76776Y-38803D03*
X76224Y-39000D03*
X76776Y-39197D03*
G54D34*
X65875Y-46615D03*
X65875Y-46870D03*
X65875Y-47130D03*
X65875Y-47385D03*
X67625Y-47385D03*
X67625Y-47130D03*
X67625Y-46870D03*
X67625Y-46615D03*
G54D35*
X64600Y-47260D03*
X64600Y-47010D03*
X64600Y-46750D03*
X64600Y-46500D03*
X64600Y-46240D03*
X64600Y-45985D03*
X64600Y-45730D03*
X62400Y-45730D03*
X62400Y-45985D03*
X62400Y-46240D03*
X62400Y-46500D03*
X62400Y-46755D03*
X62400Y-47010D03*
X62400Y-47265D03*
G54D36*
X75000Y-54000D03*
G54D37*
X79250Y-55000D03*
G54D36*
X75000Y-56000D03*
X75000Y-55000D03*
X74250Y-49331D03*
G54D38*
X78500Y-50000D03*
G54D36*
X74250Y-50669D03*
X74250Y-50000D03*
X74250Y-48661D03*
X74250Y-51339D03*
G54D23*
X76900Y-46750D03*
X78100Y-46750D03*
X74650Y-46750D03*
X75850Y-46750D03*
G54D22*
X79250Y-45625D03*
X79250Y-44875D03*
X78250Y-45625D03*
X78250Y-44875D03*
X77250Y-45625D03*
X77250Y-44875D03*
X76500Y-45625D03*
X76500Y-44875D03*
X75750Y-45625D03*
X75750Y-44875D03*
X75000Y-45625D03*
X75000Y-44875D03*
G54D21*
X79500Y-44050D03*
X79500Y-43450D03*
X78750Y-44050D03*
X78750Y-43450D03*
X78000Y-44050D03*
X78000Y-43450D03*
G54D20*
X77073Y-43750D03*
X77427Y-43750D03*
X77073Y-43250D03*
X77427Y-43250D03*
X76323Y-44250D03*
X76677Y-44250D03*
X76323Y-43750D03*
X76677Y-43750D03*
X76323Y-43250D03*
X76677Y-43250D03*
G54D19*
X75250Y-44118D03*
X75250Y-43881D03*
X75750Y-44118D03*
X75750Y-43881D03*
X74750Y-43368D03*
X74750Y-43131D03*
X75250Y-43368D03*
X75250Y-43131D03*
X75750Y-43368D03*
X75750Y-43131D03*
G54D24*
X65500Y-48450D03*
X65500Y-50550D03*
X66000Y-48450D03*
X66500Y-48450D03*
X67000Y-48450D03*
X66000Y-50550D03*
X66500Y-50550D03*
X67000Y-50550D03*
G54D25*
X71250Y-48000D03*
X71750Y-48000D03*
X72250Y-48000D03*
X72750Y-48000D03*
X72750Y-50500D03*
X72250Y-50500D03*
X71750Y-50500D03*
X71250Y-50500D03*
G54D35*
X64600Y-45010D03*
X64600Y-44760D03*
X64600Y-44500D03*
X64600Y-44250D03*
X64600Y-43990D03*
X64600Y-43735D03*
X64600Y-43480D03*
X62400Y-43480D03*
X62400Y-43735D03*
X62400Y-43990D03*
X62400Y-44250D03*
X62400Y-44505D03*
X62400Y-44760D03*
X62400Y-45015D03*
G54D34*
X67625Y-45885D03*
X67625Y-45630D03*
X67625Y-45370D03*
X67625Y-45115D03*
X65875Y-45115D03*
X65875Y-45370D03*
X65875Y-45630D03*
X65875Y-45885D03*
X67625Y-44385D03*
X67625Y-44130D03*
X67625Y-43870D03*
X67625Y-43615D03*
X65875Y-43615D03*
X65875Y-43870D03*
X65875Y-44130D03*
X65875Y-44385D03*
G54D28*
X70625Y-45750D03*
X71000Y-45750D03*
X71375Y-45750D03*
X71375Y-46750D03*
X71000Y-46750D03*
X70625Y-46750D03*
X72375Y-45750D03*
X72750Y-45750D03*
X73125Y-45750D03*
X73125Y-46750D03*
X72750Y-46750D03*
X72375Y-46750D03*
X72375Y-43750D03*
X72750Y-43750D03*
X73125Y-43750D03*
X73125Y-44750D03*
X72750Y-44750D03*
X72375Y-44750D03*
G54D13*
X79540Y-41750D03*
X77960Y-41750D03*
G54D31*
X72744Y-40376D03*
X73256Y-40376D03*
X73000Y-41124D03*
X72744Y-42126D03*
X73256Y-42126D03*
X73000Y-42874D03*
G54D32*
X74350Y-39500D03*
X74350Y-40000D03*
X75150Y-39500D03*
X74350Y-39750D03*
X75150Y-40000D03*
X74350Y-40500D03*
X74350Y-41000D03*
X75150Y-40500D03*
X74350Y-40750D03*
X75150Y-41000D03*
G54D39*
X74500Y-42400D03*
X75000Y-42400D03*
X74500Y-41600D03*
X74750Y-42400D03*
X75000Y-41600D03*
G54D33*
X76224Y-40553D03*
X76224Y-40947D03*
X76776Y-40553D03*
X76224Y-40750D03*
X76776Y-40947D03*
X76224Y-41803D03*
X76224Y-42197D03*
X76776Y-41803D03*
X76224Y-42000D03*
X76776Y-42197D03*
M02*
