G04 (created by PCBNEW (2013-07-07 BZR 4022)-stable) date 2/4/2014 11:59:03 PM*
%MOIN*%
G04 Gerber Fmt 3.4, Leading zero omitted, Abs format*
%FSLAX34Y34*%
G01*
G70*
G90*
G04 APERTURE LIST*
%ADD10C,0.00590551*%
%ADD11C,0.015*%
%ADD12C,0.01*%
%ADD13C,0.005*%
%ADD14C,0.00314961*%
%ADD15C,0.0028*%
%ADD16C,0.0039*%
%ADD17C,0.0031*%
%ADD18C,0.008*%
%ADD19C,0.006*%
%ADD20C,0.0078*%
%ADD21C,0.0047*%
%ADD22C,0.0019685*%
%ADD23C,0.0045*%
%ADD24C,0.0043*%
%ADD25C,0.003*%
%ADD26C,0.00625*%
%ADD27C,0.0063*%
G04 APERTURE END LIST*
G54D10*
G54D11*
X62016Y-39016D02*
X63984Y-39016D01*
X63984Y-39016D02*
X63984Y-40984D01*
X63984Y-40984D02*
X62016Y-40984D01*
X62016Y-40984D02*
X62016Y-39016D01*
G54D12*
X64500Y-39250D02*
X64500Y-41250D01*
X64500Y-41250D02*
X68500Y-41250D01*
X68500Y-41250D02*
X68500Y-39250D01*
X68500Y-39250D02*
X64500Y-39250D01*
X64500Y-39750D02*
X65000Y-39750D01*
X65000Y-39750D02*
X65000Y-40750D01*
X65000Y-40750D02*
X64500Y-40750D01*
G54D13*
X79050Y-39000D02*
X79130Y-39000D01*
X79650Y-39750D02*
X77850Y-39750D01*
X77850Y-39750D02*
X77850Y-39500D01*
X78490Y-38250D02*
X78490Y-39750D01*
X78360Y-38250D02*
X78360Y-39750D01*
X79650Y-38500D02*
X79650Y-38250D01*
X79650Y-38250D02*
X77850Y-38250D01*
X77850Y-38250D02*
X77850Y-38500D01*
X79650Y-39500D02*
X79650Y-39750D01*
X78800Y-39000D02*
X79050Y-39187D01*
X79050Y-39187D02*
X79050Y-39000D01*
X79050Y-39000D02*
X79050Y-38813D01*
X79050Y-38813D02*
X78800Y-39000D01*
X78800Y-39000D02*
X78800Y-39125D01*
X78800Y-39125D02*
X78862Y-39187D01*
X78800Y-39000D02*
X78800Y-38875D01*
X78800Y-38875D02*
X78738Y-38813D01*
X78800Y-39000D02*
X78363Y-39000D01*
X71950Y-54100D02*
X71950Y-52850D01*
X71950Y-52850D02*
X71250Y-52850D01*
X71250Y-52850D02*
X71250Y-54100D01*
X73750Y-54100D02*
X73750Y-52850D01*
X73750Y-52850D02*
X73050Y-52850D01*
X73050Y-52850D02*
X73050Y-54100D01*
X71150Y-56500D02*
X71150Y-54100D01*
X71150Y-54100D02*
X73850Y-54100D01*
X73850Y-54100D02*
X73850Y-57200D01*
X73850Y-57250D02*
X71150Y-57250D01*
X71150Y-57200D02*
X71150Y-56500D01*
X62900Y-52950D02*
X62900Y-51500D01*
X62900Y-51500D02*
X62400Y-51500D01*
X62400Y-51500D02*
X62400Y-52950D01*
X63550Y-52950D02*
X63550Y-51500D01*
X63550Y-51500D02*
X63050Y-51500D01*
X63050Y-51500D02*
X63050Y-52950D01*
X64250Y-52950D02*
X64250Y-51500D01*
X64250Y-51500D02*
X63750Y-51500D01*
X63750Y-51500D02*
X63750Y-52950D01*
X64900Y-52950D02*
X64900Y-51500D01*
X64900Y-51500D02*
X64450Y-51500D01*
X64450Y-51500D02*
X64400Y-51500D01*
X64400Y-51500D02*
X64400Y-52950D01*
X65600Y-52950D02*
X65600Y-51500D01*
X65600Y-51500D02*
X65100Y-51500D01*
X65100Y-51500D02*
X65100Y-52950D01*
X66100Y-52950D02*
X61900Y-52950D01*
X61900Y-52950D02*
X61900Y-56950D01*
X61900Y-56950D02*
X66100Y-56950D01*
X66100Y-56950D02*
X66100Y-52950D01*
X68150Y-52950D02*
X68150Y-51500D01*
X68150Y-51500D02*
X67350Y-51500D01*
X67350Y-51500D02*
X67350Y-52950D01*
X69150Y-52950D02*
X69150Y-51500D01*
X69150Y-51500D02*
X68350Y-51500D01*
X68350Y-51500D02*
X68350Y-52950D01*
X70150Y-52950D02*
X70150Y-51500D01*
X70150Y-51500D02*
X69350Y-51500D01*
X69350Y-51500D02*
X69350Y-52950D01*
X70850Y-52950D02*
X66650Y-52950D01*
X66650Y-52950D02*
X66650Y-56950D01*
X66650Y-56950D02*
X70850Y-56950D01*
X70850Y-56950D02*
X70850Y-52950D01*
G54D14*
X74651Y-43921D02*
X74651Y-43822D01*
X74651Y-43822D02*
X74651Y-43803D01*
X74651Y-43803D02*
X74848Y-43803D01*
X74848Y-43803D02*
X74848Y-43921D01*
X74651Y-44078D02*
X74651Y-44196D01*
X74651Y-44196D02*
X74848Y-44196D01*
X74848Y-44196D02*
X74848Y-44078D01*
G54D15*
X77350Y-44400D02*
X77550Y-44400D01*
X77550Y-44400D02*
X77550Y-44100D01*
X77550Y-44100D02*
X77350Y-44100D01*
X77150Y-44400D02*
X76950Y-44400D01*
X76950Y-44400D02*
X76950Y-44100D01*
X76950Y-44100D02*
X77150Y-44100D01*
G54D13*
X80000Y-44200D02*
X80000Y-43300D01*
X80000Y-43300D02*
X80500Y-43300D01*
X80500Y-43300D02*
X80500Y-44200D01*
X80500Y-44200D02*
X80000Y-44200D01*
G54D16*
X80600Y-45900D02*
G75*
G03X80600Y-45900I-50J0D01*
G74*
G01*
X80550Y-45450D02*
X80550Y-45850D01*
X80550Y-45850D02*
X79950Y-45850D01*
X79950Y-45850D02*
X79950Y-45450D01*
X79950Y-45050D02*
X79950Y-44650D01*
X79950Y-44650D02*
X80550Y-44650D01*
X80550Y-44650D02*
X80550Y-45050D01*
G54D13*
X78870Y-47350D02*
G75*
G03X78870Y-47350I-70J0D01*
G74*
G01*
X79450Y-46200D02*
X78850Y-46200D01*
X78850Y-46200D02*
X78850Y-47300D01*
X78850Y-47300D02*
X79450Y-47300D01*
X80050Y-47300D02*
X80650Y-47300D01*
X80650Y-47300D02*
X80650Y-46200D01*
X80650Y-46200D02*
X80050Y-46200D01*
X62450Y-50200D02*
X62450Y-50250D01*
X62450Y-50250D02*
X64550Y-50250D01*
X64550Y-48750D02*
X62450Y-48750D01*
X62450Y-48750D02*
X62450Y-50200D01*
X62450Y-49300D02*
X62650Y-49300D01*
X62650Y-49300D02*
X62650Y-49700D01*
X62650Y-49700D02*
X62450Y-49700D01*
X64550Y-48750D02*
X64550Y-50250D01*
X68250Y-48350D02*
X70250Y-48350D01*
X70250Y-48350D02*
X70250Y-50150D01*
X70250Y-50150D02*
X68250Y-50150D01*
X68250Y-50150D02*
X68250Y-48350D01*
X68250Y-48950D02*
X68450Y-48950D01*
X68450Y-48950D02*
X68450Y-49450D01*
X68450Y-49450D02*
X68250Y-49450D01*
G54D17*
X68849Y-46388D02*
G75*
G03X68849Y-46388I-62J0D01*
G74*
G01*
X69750Y-46050D02*
X69750Y-46450D01*
X68725Y-46050D02*
X68725Y-46450D01*
X69750Y-46450D02*
X68725Y-46450D01*
X68725Y-46050D02*
X69750Y-46050D01*
G54D13*
X69850Y-43900D02*
X69850Y-44600D01*
X69850Y-44600D02*
X68650Y-44600D01*
X68650Y-44600D02*
X68650Y-43900D01*
X68650Y-43900D02*
X69850Y-43900D01*
X70800Y-44550D02*
X70500Y-44350D01*
X71500Y-44550D02*
X70475Y-44550D01*
X70475Y-44550D02*
X70475Y-43950D01*
X70475Y-43950D02*
X71500Y-43950D01*
X71500Y-43950D02*
X71500Y-44550D01*
G54D18*
X69100Y-40850D02*
X69100Y-42050D01*
X69100Y-42050D02*
X71900Y-42050D01*
X71900Y-42050D02*
X71900Y-40850D01*
X69100Y-39650D02*
X69100Y-39350D01*
X69100Y-39350D02*
X69700Y-38450D01*
X69700Y-38450D02*
X71300Y-38450D01*
X71300Y-38450D02*
X71900Y-39350D01*
X71900Y-39350D02*
X71900Y-39650D01*
G54D13*
X73100Y-39200D02*
X73350Y-39200D01*
X73350Y-39200D02*
X73350Y-38800D01*
X72650Y-38800D02*
X72650Y-39200D01*
X72650Y-39200D02*
X72900Y-39200D01*
X73100Y-39250D02*
X73100Y-39200D01*
X72900Y-39200D02*
X72900Y-39250D01*
X73350Y-38800D02*
X72650Y-38800D01*
X72900Y-39250D02*
X73100Y-39250D01*
G54D19*
X75000Y-39150D02*
X75000Y-38350D01*
X75000Y-38350D02*
X74500Y-38350D01*
X74500Y-38350D02*
X74500Y-39150D01*
X74500Y-39150D02*
X75000Y-39150D01*
G54D16*
X76087Y-38665D02*
X76913Y-38665D01*
X76913Y-38665D02*
X76913Y-39335D01*
X76913Y-39335D02*
X76087Y-39335D01*
X76087Y-39335D02*
X76087Y-38665D01*
G54D19*
X66450Y-46600D02*
G75*
G03X66450Y-46600I-100J0D01*
G74*
G01*
X66150Y-47600D02*
X66150Y-46400D01*
X66150Y-46400D02*
X67350Y-46400D01*
X67350Y-46400D02*
X67350Y-47600D01*
X67350Y-47600D02*
X66150Y-47600D01*
G54D18*
X62800Y-47450D02*
X62800Y-45550D01*
X62800Y-45550D02*
X64200Y-45550D01*
X64200Y-45550D02*
X64200Y-47450D01*
X64200Y-47450D02*
X62800Y-47450D01*
X64100Y-47200D02*
G75*
G03X64100Y-47200I-150J0D01*
G74*
G01*
G54D11*
X75950Y-55650D02*
X74400Y-55650D01*
X74400Y-55650D02*
X74400Y-56350D01*
X74400Y-56350D02*
X75950Y-56350D01*
X75950Y-54650D02*
X74400Y-54650D01*
X74400Y-54650D02*
X74400Y-55350D01*
X74400Y-55350D02*
X75950Y-55350D01*
X75950Y-53650D02*
X74450Y-53650D01*
X74450Y-53650D02*
X74450Y-54300D01*
X74450Y-54300D02*
X74450Y-54350D01*
X74450Y-54350D02*
X75950Y-54350D01*
X76900Y-53550D02*
G75*
G03X76900Y-53550I-300J0D01*
G74*
G01*
X75950Y-52900D02*
X80150Y-52900D01*
X80150Y-52900D02*
X80400Y-53150D01*
X80400Y-53150D02*
X80400Y-56700D01*
X80400Y-56700D02*
X80400Y-56800D01*
X80400Y-56800D02*
X80400Y-56850D01*
X80400Y-56850D02*
X80150Y-57100D01*
X80150Y-57100D02*
X75950Y-57100D01*
X75950Y-52900D02*
X75950Y-57100D01*
X79950Y-57100D02*
X79950Y-52900D01*
G54D20*
X75195Y-51654D02*
X73659Y-51654D01*
X75195Y-51024D02*
X73620Y-51024D01*
X75195Y-48307D02*
X73659Y-48307D01*
X75195Y-48976D02*
X73659Y-48976D01*
X75200Y-49650D02*
X73650Y-49650D01*
X73650Y-50350D02*
X75200Y-50350D01*
X76150Y-48550D02*
G75*
G03X76150Y-48550I-300J0D01*
G74*
G01*
X75200Y-47900D02*
X79400Y-47900D01*
X79400Y-47900D02*
X79650Y-48150D01*
X79650Y-48150D02*
X79650Y-51700D01*
X79650Y-51700D02*
X79650Y-51800D01*
X79650Y-51800D02*
X79650Y-51850D01*
X79650Y-51850D02*
X79400Y-52100D01*
X79400Y-52100D02*
X75200Y-52100D01*
X75200Y-47900D02*
X75200Y-52100D01*
X79200Y-52100D02*
X79200Y-47900D01*
G54D13*
X76620Y-47350D02*
G75*
G03X76620Y-47350I-70J0D01*
G74*
G01*
X77200Y-46200D02*
X76600Y-46200D01*
X76600Y-46200D02*
X76600Y-47300D01*
X76600Y-47300D02*
X77200Y-47300D01*
X77800Y-47300D02*
X78400Y-47300D01*
X78400Y-47300D02*
X78400Y-46200D01*
X78400Y-46200D02*
X77800Y-46200D01*
X74370Y-47350D02*
G75*
G03X74370Y-47350I-70J0D01*
G74*
G01*
X74950Y-46200D02*
X74350Y-46200D01*
X74350Y-46200D02*
X74350Y-47300D01*
X74350Y-47300D02*
X74950Y-47300D01*
X75550Y-47300D02*
X76150Y-47300D01*
X76150Y-47300D02*
X76150Y-46200D01*
X76150Y-46200D02*
X75550Y-46200D01*
G54D16*
X79600Y-45900D02*
G75*
G03X79600Y-45900I-50J0D01*
G74*
G01*
X79550Y-45450D02*
X79550Y-45850D01*
X79550Y-45850D02*
X78950Y-45850D01*
X78950Y-45850D02*
X78950Y-45450D01*
X78950Y-45050D02*
X78950Y-44650D01*
X78950Y-44650D02*
X79550Y-44650D01*
X79550Y-44650D02*
X79550Y-45050D01*
X78600Y-45900D02*
G75*
G03X78600Y-45900I-50J0D01*
G74*
G01*
X78550Y-45450D02*
X78550Y-45850D01*
X78550Y-45850D02*
X77950Y-45850D01*
X77950Y-45850D02*
X77950Y-45450D01*
X77950Y-45050D02*
X77950Y-44650D01*
X77950Y-44650D02*
X78550Y-44650D01*
X78550Y-44650D02*
X78550Y-45050D01*
X77600Y-45900D02*
G75*
G03X77600Y-45900I-50J0D01*
G74*
G01*
X77550Y-45450D02*
X77550Y-45850D01*
X77550Y-45850D02*
X76950Y-45850D01*
X76950Y-45850D02*
X76950Y-45450D01*
X76950Y-45050D02*
X76950Y-44650D01*
X76950Y-44650D02*
X77550Y-44650D01*
X77550Y-44650D02*
X77550Y-45050D01*
X76850Y-45900D02*
G75*
G03X76850Y-45900I-50J0D01*
G74*
G01*
X76800Y-45450D02*
X76800Y-45850D01*
X76800Y-45850D02*
X76200Y-45850D01*
X76200Y-45850D02*
X76200Y-45450D01*
X76200Y-45050D02*
X76200Y-44650D01*
X76200Y-44650D02*
X76800Y-44650D01*
X76800Y-44650D02*
X76800Y-45050D01*
X76100Y-45900D02*
G75*
G03X76100Y-45900I-50J0D01*
G74*
G01*
X76050Y-45450D02*
X76050Y-45850D01*
X76050Y-45850D02*
X75450Y-45850D01*
X75450Y-45850D02*
X75450Y-45450D01*
X75450Y-45050D02*
X75450Y-44650D01*
X75450Y-44650D02*
X76050Y-44650D01*
X76050Y-44650D02*
X76050Y-45050D01*
X75350Y-45900D02*
G75*
G03X75350Y-45900I-50J0D01*
G74*
G01*
X75300Y-45450D02*
X75300Y-45850D01*
X75300Y-45850D02*
X74700Y-45850D01*
X74700Y-45850D02*
X74700Y-45450D01*
X74700Y-45050D02*
X74700Y-44650D01*
X74700Y-44650D02*
X75300Y-44650D01*
X75300Y-44650D02*
X75300Y-45050D01*
G54D13*
X79250Y-44200D02*
X79250Y-43300D01*
X79250Y-43300D02*
X79750Y-43300D01*
X79750Y-43300D02*
X79750Y-44200D01*
X79750Y-44200D02*
X79250Y-44200D01*
X78500Y-44200D02*
X78500Y-43300D01*
X78500Y-43300D02*
X79000Y-43300D01*
X79000Y-43300D02*
X79000Y-44200D01*
X79000Y-44200D02*
X78500Y-44200D01*
X77750Y-44200D02*
X77750Y-43300D01*
X77750Y-43300D02*
X78250Y-43300D01*
X78250Y-43300D02*
X78250Y-44200D01*
X78250Y-44200D02*
X77750Y-44200D01*
G54D15*
X77150Y-43600D02*
X76950Y-43600D01*
X76950Y-43600D02*
X76950Y-43900D01*
X76950Y-43900D02*
X77150Y-43900D01*
X77350Y-43600D02*
X77550Y-43600D01*
X77550Y-43600D02*
X77550Y-43900D01*
X77550Y-43900D02*
X77350Y-43900D01*
X77150Y-43100D02*
X76950Y-43100D01*
X76950Y-43100D02*
X76950Y-43400D01*
X76950Y-43400D02*
X77150Y-43400D01*
X77350Y-43100D02*
X77550Y-43100D01*
X77550Y-43100D02*
X77550Y-43400D01*
X77550Y-43400D02*
X77350Y-43400D01*
X76400Y-44100D02*
X76200Y-44100D01*
X76200Y-44100D02*
X76200Y-44400D01*
X76200Y-44400D02*
X76400Y-44400D01*
X76600Y-44100D02*
X76800Y-44100D01*
X76800Y-44100D02*
X76800Y-44400D01*
X76800Y-44400D02*
X76600Y-44400D01*
X76400Y-43600D02*
X76200Y-43600D01*
X76200Y-43600D02*
X76200Y-43900D01*
X76200Y-43900D02*
X76400Y-43900D01*
X76600Y-43600D02*
X76800Y-43600D01*
X76800Y-43600D02*
X76800Y-43900D01*
X76800Y-43900D02*
X76600Y-43900D01*
X76400Y-43100D02*
X76200Y-43100D01*
X76200Y-43100D02*
X76200Y-43400D01*
X76200Y-43400D02*
X76400Y-43400D01*
X76600Y-43100D02*
X76800Y-43100D01*
X76800Y-43100D02*
X76800Y-43400D01*
X76800Y-43400D02*
X76600Y-43400D01*
G54D14*
X75151Y-43921D02*
X75151Y-43822D01*
X75151Y-43822D02*
X75151Y-43803D01*
X75151Y-43803D02*
X75348Y-43803D01*
X75348Y-43803D02*
X75348Y-43921D01*
X75151Y-44078D02*
X75151Y-44196D01*
X75151Y-44196D02*
X75348Y-44196D01*
X75348Y-44196D02*
X75348Y-44078D01*
X75651Y-43921D02*
X75651Y-43822D01*
X75651Y-43822D02*
X75651Y-43803D01*
X75651Y-43803D02*
X75848Y-43803D01*
X75848Y-43803D02*
X75848Y-43921D01*
X75651Y-44078D02*
X75651Y-44196D01*
X75651Y-44196D02*
X75848Y-44196D01*
X75848Y-44196D02*
X75848Y-44078D01*
X74651Y-43171D02*
X74651Y-43072D01*
X74651Y-43072D02*
X74651Y-43053D01*
X74651Y-43053D02*
X74848Y-43053D01*
X74848Y-43053D02*
X74848Y-43171D01*
X74651Y-43328D02*
X74651Y-43446D01*
X74651Y-43446D02*
X74848Y-43446D01*
X74848Y-43446D02*
X74848Y-43328D01*
X75151Y-43171D02*
X75151Y-43072D01*
X75151Y-43072D02*
X75151Y-43053D01*
X75151Y-43053D02*
X75348Y-43053D01*
X75348Y-43053D02*
X75348Y-43171D01*
X75151Y-43328D02*
X75151Y-43446D01*
X75151Y-43446D02*
X75348Y-43446D01*
X75348Y-43446D02*
X75348Y-43328D01*
X75651Y-43171D02*
X75651Y-43072D01*
X75651Y-43072D02*
X75651Y-43053D01*
X75651Y-43053D02*
X75848Y-43053D01*
X75848Y-43053D02*
X75848Y-43171D01*
X75651Y-43328D02*
X75651Y-43446D01*
X75651Y-43446D02*
X75848Y-43446D01*
X75848Y-43446D02*
X75848Y-43328D01*
G54D13*
X65200Y-50200D02*
X65200Y-50250D01*
X65200Y-50250D02*
X67300Y-50250D01*
X67300Y-48750D02*
X65200Y-48750D01*
X65200Y-48750D02*
X65200Y-50200D01*
X65200Y-49300D02*
X65400Y-49300D01*
X65400Y-49300D02*
X65400Y-49700D01*
X65400Y-49700D02*
X65200Y-49700D01*
X67300Y-48750D02*
X67300Y-50250D01*
X71000Y-48350D02*
X73000Y-48350D01*
X73000Y-48350D02*
X73000Y-50150D01*
X73000Y-50150D02*
X71000Y-50150D01*
X71000Y-50150D02*
X71000Y-48350D01*
X71000Y-48950D02*
X71200Y-48950D01*
X71200Y-48950D02*
X71200Y-49450D01*
X71200Y-49450D02*
X71000Y-49450D01*
G54D18*
X62800Y-45200D02*
X62800Y-43300D01*
X62800Y-43300D02*
X64200Y-43300D01*
X64200Y-43300D02*
X64200Y-45200D01*
X64200Y-45200D02*
X62800Y-45200D01*
X64100Y-44950D02*
G75*
G03X64100Y-44950I-150J0D01*
G74*
G01*
G54D19*
X67250Y-45900D02*
G75*
G03X67250Y-45900I-100J0D01*
G74*
G01*
X67350Y-44900D02*
X67350Y-46100D01*
X67350Y-46100D02*
X66150Y-46100D01*
X66150Y-46100D02*
X66150Y-44900D01*
X66150Y-44900D02*
X67350Y-44900D01*
X67250Y-44400D02*
G75*
G03X67250Y-44400I-100J0D01*
G74*
G01*
X67350Y-43400D02*
X67350Y-44600D01*
X67350Y-44600D02*
X66150Y-44600D01*
X66150Y-44600D02*
X66150Y-43400D01*
X66150Y-43400D02*
X67350Y-43400D01*
G54D13*
X70800Y-46550D02*
X70500Y-46350D01*
X71500Y-46550D02*
X70475Y-46550D01*
X70475Y-46550D02*
X70475Y-45950D01*
X70475Y-45950D02*
X71500Y-45950D01*
X71500Y-45950D02*
X71500Y-46550D01*
X72550Y-46550D02*
X72250Y-46350D01*
X73250Y-46550D02*
X72225Y-46550D01*
X72225Y-46550D02*
X72225Y-45950D01*
X72225Y-45950D02*
X73250Y-45950D01*
X73250Y-45950D02*
X73250Y-46550D01*
X72550Y-44550D02*
X72250Y-44350D01*
X73250Y-44550D02*
X72225Y-44550D01*
X72225Y-44550D02*
X72225Y-43950D01*
X72225Y-43950D02*
X73250Y-43950D01*
X73250Y-43950D02*
X73250Y-44550D01*
X79050Y-41750D02*
X79130Y-41750D01*
X79650Y-42500D02*
X77850Y-42500D01*
X77850Y-42500D02*
X77850Y-42250D01*
X78490Y-41000D02*
X78490Y-42500D01*
X78360Y-41000D02*
X78360Y-42500D01*
X79650Y-41250D02*
X79650Y-41000D01*
X79650Y-41000D02*
X77850Y-41000D01*
X77850Y-41000D02*
X77850Y-41250D01*
X79650Y-42250D02*
X79650Y-42500D01*
X78800Y-41750D02*
X79050Y-41937D01*
X79050Y-41937D02*
X79050Y-41750D01*
X79050Y-41750D02*
X79050Y-41563D01*
X79050Y-41563D02*
X78800Y-41750D01*
X78800Y-41750D02*
X78800Y-41875D01*
X78800Y-41875D02*
X78862Y-41937D01*
X78800Y-41750D02*
X78800Y-41625D01*
X78800Y-41625D02*
X78738Y-41563D01*
X78800Y-41750D02*
X78363Y-41750D01*
X73100Y-40950D02*
X73350Y-40950D01*
X73350Y-40950D02*
X73350Y-40550D01*
X72650Y-40550D02*
X72650Y-40950D01*
X72650Y-40950D02*
X72900Y-40950D01*
X73100Y-41000D02*
X73100Y-40950D01*
X72900Y-40950D02*
X72900Y-41000D01*
X73350Y-40550D02*
X72650Y-40550D01*
X72900Y-41000D02*
X73100Y-41000D01*
X73100Y-42700D02*
X73350Y-42700D01*
X73350Y-42700D02*
X73350Y-42300D01*
X72650Y-42300D02*
X72650Y-42700D01*
X72650Y-42700D02*
X72900Y-42700D01*
X73100Y-42750D02*
X73100Y-42700D01*
X72900Y-42700D02*
X72900Y-42750D01*
X73350Y-42300D02*
X72650Y-42300D01*
X72900Y-42750D02*
X73100Y-42750D01*
G54D19*
X75000Y-40150D02*
X75000Y-39350D01*
X75000Y-39350D02*
X74500Y-39350D01*
X74500Y-39350D02*
X74500Y-40150D01*
X74500Y-40150D02*
X75000Y-40150D01*
X75000Y-41150D02*
X75000Y-40350D01*
X75000Y-40350D02*
X74500Y-40350D01*
X74500Y-40350D02*
X74500Y-41150D01*
X74500Y-41150D02*
X75000Y-41150D01*
X75150Y-41750D02*
X74350Y-41750D01*
X74350Y-41750D02*
X74350Y-42250D01*
X74350Y-42250D02*
X75150Y-42250D01*
X75150Y-42250D02*
X75150Y-41750D01*
G54D16*
X76087Y-40415D02*
X76913Y-40415D01*
X76913Y-40415D02*
X76913Y-41085D01*
X76913Y-41085D02*
X76087Y-41085D01*
X76087Y-41085D02*
X76087Y-40415D01*
X76087Y-41665D02*
X76913Y-41665D01*
X76913Y-41665D02*
X76913Y-42335D01*
X76913Y-42335D02*
X76087Y-42335D01*
X76087Y-42335D02*
X76087Y-41665D01*
G54D12*
X61838Y-38783D02*
X61609Y-38783D01*
X61723Y-38783D02*
X61723Y-38383D01*
X61685Y-38441D01*
X61647Y-38479D01*
X61609Y-38498D01*
X62009Y-38783D02*
X62009Y-38383D01*
X62161Y-38383D01*
X62200Y-38402D01*
X62219Y-38422D01*
X62238Y-38460D01*
X62238Y-38517D01*
X62219Y-38555D01*
X62200Y-38574D01*
X62161Y-38593D01*
X62009Y-38593D01*
X62409Y-38783D02*
X62409Y-38383D01*
X62600Y-38783D02*
X62600Y-38383D01*
X62828Y-38783D01*
X62828Y-38383D01*
X62923Y-38822D02*
X63228Y-38822D01*
X63304Y-38764D02*
X63361Y-38783D01*
X63457Y-38783D01*
X63495Y-38764D01*
X63514Y-38745D01*
X63533Y-38707D01*
X63533Y-38669D01*
X63514Y-38631D01*
X63495Y-38612D01*
X63457Y-38593D01*
X63380Y-38574D01*
X63342Y-38555D01*
X63323Y-38536D01*
X63304Y-38498D01*
X63304Y-38460D01*
X63323Y-38422D01*
X63342Y-38402D01*
X63380Y-38383D01*
X63476Y-38383D01*
X63533Y-38402D01*
X63704Y-38783D02*
X63704Y-38383D01*
X63838Y-38669D01*
X63971Y-38383D01*
X63971Y-38783D01*
X64161Y-38783D02*
X64161Y-38383D01*
X64257Y-38383D01*
X64314Y-38402D01*
X64352Y-38441D01*
X64371Y-38479D01*
X64390Y-38555D01*
X64390Y-38612D01*
X64371Y-38688D01*
X64352Y-38726D01*
X64314Y-38764D01*
X64257Y-38783D01*
X64161Y-38783D01*
X62536Y-41637D02*
X62536Y-41237D01*
X62688Y-41237D01*
X62726Y-41256D01*
X62745Y-41276D01*
X62764Y-41314D01*
X62764Y-41371D01*
X62745Y-41409D01*
X62726Y-41428D01*
X62688Y-41447D01*
X62536Y-41447D01*
X62993Y-41237D02*
X62993Y-41333D01*
X62898Y-41295D02*
X62993Y-41333D01*
X63088Y-41295D01*
X62936Y-41409D02*
X62993Y-41333D01*
X63050Y-41409D01*
X63298Y-41237D02*
X63298Y-41333D01*
X63202Y-41295D02*
X63298Y-41333D01*
X63393Y-41295D01*
X63240Y-41409D02*
X63298Y-41333D01*
X63355Y-41409D01*
X63602Y-41237D02*
X63602Y-41333D01*
X63507Y-41295D02*
X63602Y-41333D01*
X63698Y-41295D01*
X63545Y-41409D02*
X63602Y-41333D01*
X63659Y-41409D01*
G54D18*
X65554Y-39733D02*
X65516Y-39714D01*
X65497Y-39695D01*
X65478Y-39657D01*
X65478Y-39638D01*
X65497Y-39600D01*
X65516Y-39580D01*
X65554Y-39561D01*
X65630Y-39561D01*
X65669Y-39580D01*
X65688Y-39600D01*
X65707Y-39638D01*
X65707Y-39657D01*
X65688Y-39695D01*
X65669Y-39714D01*
X65630Y-39733D01*
X65554Y-39733D01*
X65516Y-39752D01*
X65497Y-39771D01*
X65478Y-39809D01*
X65478Y-39885D01*
X65497Y-39923D01*
X65516Y-39942D01*
X65554Y-39961D01*
X65630Y-39961D01*
X65669Y-39942D01*
X65688Y-39923D01*
X65707Y-39885D01*
X65707Y-39809D01*
X65688Y-39771D01*
X65669Y-39752D01*
X65630Y-39733D01*
X66050Y-39961D02*
X66050Y-39561D01*
X66050Y-39942D02*
X66011Y-39961D01*
X65935Y-39961D01*
X65897Y-39942D01*
X65878Y-39923D01*
X65859Y-39885D01*
X65859Y-39771D01*
X65878Y-39733D01*
X65897Y-39714D01*
X65935Y-39695D01*
X66011Y-39695D01*
X66050Y-39714D01*
X66240Y-39961D02*
X66240Y-39695D01*
X66240Y-39561D02*
X66221Y-39580D01*
X66240Y-39600D01*
X66259Y-39580D01*
X66240Y-39561D01*
X66240Y-39600D01*
X66430Y-39695D02*
X66430Y-40095D01*
X66430Y-39714D02*
X66469Y-39695D01*
X66545Y-39695D01*
X66583Y-39714D01*
X66602Y-39733D01*
X66621Y-39771D01*
X66621Y-39885D01*
X66602Y-39923D01*
X66583Y-39942D01*
X66545Y-39961D01*
X66469Y-39961D01*
X66430Y-39942D01*
X66964Y-39942D02*
X66926Y-39961D01*
X66850Y-39961D01*
X66811Y-39942D01*
X66792Y-39923D01*
X66773Y-39885D01*
X66773Y-39771D01*
X66792Y-39733D01*
X66811Y-39714D01*
X66850Y-39695D01*
X66926Y-39695D01*
X66964Y-39714D01*
X67135Y-39961D02*
X67135Y-39695D01*
X67135Y-39733D02*
X67154Y-39714D01*
X67192Y-39695D01*
X67250Y-39695D01*
X67288Y-39714D01*
X67307Y-39752D01*
X67307Y-39961D01*
X67307Y-39752D02*
X67326Y-39714D01*
X67364Y-39695D01*
X67421Y-39695D01*
X67459Y-39714D01*
X67478Y-39752D01*
X67478Y-39961D01*
X67650Y-39942D02*
X67688Y-39961D01*
X67764Y-39961D01*
X67802Y-39942D01*
X67821Y-39904D01*
X67821Y-39885D01*
X67802Y-39847D01*
X67764Y-39828D01*
X67707Y-39828D01*
X67669Y-39809D01*
X67650Y-39771D01*
X67650Y-39752D01*
X67669Y-39714D01*
X67707Y-39695D01*
X67764Y-39695D01*
X67802Y-39714D01*
X65909Y-40311D02*
X66042Y-40711D01*
X66176Y-40311D01*
X66366Y-40311D02*
X66366Y-40407D01*
X66271Y-40369D02*
X66366Y-40407D01*
X66461Y-40369D01*
X66309Y-40483D02*
X66366Y-40407D01*
X66423Y-40483D01*
X66671Y-40311D02*
X66671Y-40407D01*
X66576Y-40369D02*
X66671Y-40407D01*
X66766Y-40369D01*
X66614Y-40483D02*
X66671Y-40407D01*
X66728Y-40483D01*
X66976Y-40311D02*
X66976Y-40407D01*
X66880Y-40369D02*
X66976Y-40407D01*
X67071Y-40369D01*
X66919Y-40483D02*
X66976Y-40407D01*
X67033Y-40483D01*
G54D21*
X76423Y-40183D02*
X76423Y-39789D01*
X76517Y-39789D01*
X76573Y-39808D01*
X76611Y-39845D01*
X76629Y-39883D01*
X76648Y-39958D01*
X76648Y-40014D01*
X76629Y-40089D01*
X76611Y-40127D01*
X76573Y-40164D01*
X76517Y-40183D01*
X76423Y-40183D01*
X76892Y-39789D02*
X76967Y-39789D01*
X77005Y-39808D01*
X77042Y-39845D01*
X77061Y-39920D01*
X77061Y-40052D01*
X77042Y-40127D01*
X77005Y-40164D01*
X76967Y-40183D01*
X76892Y-40183D01*
X76855Y-40164D01*
X76817Y-40127D01*
X76798Y-40052D01*
X76798Y-39920D01*
X76817Y-39845D01*
X76855Y-39808D01*
X76892Y-39789D01*
X77230Y-40033D02*
X77530Y-40033D01*
X77699Y-39827D02*
X77718Y-39808D01*
X77755Y-39789D01*
X77849Y-39789D01*
X77886Y-39808D01*
X77905Y-39827D01*
X77924Y-39864D01*
X77924Y-39902D01*
X77905Y-39958D01*
X77680Y-40183D01*
X77924Y-40183D01*
X78299Y-40183D02*
X78074Y-40183D01*
X78187Y-40183D02*
X78187Y-39789D01*
X78149Y-39845D01*
X78112Y-39883D01*
X78074Y-39902D01*
X78637Y-39920D02*
X78637Y-40183D01*
X78543Y-39770D02*
X78449Y-40052D01*
X78693Y-40052D01*
X78825Y-40070D02*
X79012Y-40070D01*
X78787Y-40183D02*
X78918Y-39789D01*
X79050Y-40183D01*
X79162Y-40070D02*
X79350Y-40070D01*
X79125Y-40183D02*
X79256Y-39789D01*
X79387Y-40183D01*
X79631Y-40333D02*
X79613Y-40314D01*
X79575Y-40258D01*
X79556Y-40221D01*
X79538Y-40164D01*
X79519Y-40070D01*
X79519Y-39995D01*
X79538Y-39902D01*
X79556Y-39845D01*
X79575Y-39808D01*
X79613Y-39751D01*
X79631Y-39733D01*
X79763Y-40164D02*
X79819Y-40183D01*
X79913Y-40183D01*
X79950Y-40164D01*
X79969Y-40145D01*
X79988Y-40108D01*
X79988Y-40070D01*
X79969Y-40033D01*
X79950Y-40014D01*
X79913Y-39995D01*
X79838Y-39977D01*
X79800Y-39958D01*
X79781Y-39939D01*
X79763Y-39902D01*
X79763Y-39864D01*
X79781Y-39827D01*
X79800Y-39808D01*
X79838Y-39789D01*
X79932Y-39789D01*
X79988Y-39808D01*
X80157Y-40183D02*
X80157Y-39789D01*
X80288Y-40070D01*
X80419Y-39789D01*
X80419Y-40183D01*
X80738Y-39977D02*
X80795Y-39995D01*
X80813Y-40014D01*
X80832Y-40052D01*
X80832Y-40108D01*
X80813Y-40145D01*
X80795Y-40164D01*
X80757Y-40183D01*
X80607Y-40183D01*
X80607Y-39789D01*
X80738Y-39789D01*
X80776Y-39808D01*
X80795Y-39827D01*
X80813Y-39864D01*
X80813Y-39902D01*
X80795Y-39939D01*
X80776Y-39958D01*
X80738Y-39977D01*
X80607Y-39977D01*
X80963Y-40333D02*
X80982Y-40314D01*
X81020Y-40258D01*
X81038Y-40221D01*
X81057Y-40164D01*
X81076Y-40070D01*
X81076Y-39995D01*
X81057Y-39902D01*
X81038Y-39845D01*
X81020Y-39808D01*
X80982Y-39751D01*
X80963Y-39733D01*
X77990Y-37663D02*
X78121Y-38057D01*
X78252Y-37663D01*
X78365Y-37944D02*
X78553Y-37944D01*
X78327Y-38057D02*
X78459Y-37663D01*
X78590Y-38057D01*
X78909Y-38057D02*
X78721Y-38057D01*
X78721Y-37663D01*
X79097Y-37663D02*
X79097Y-37757D01*
X79003Y-37719D02*
X79097Y-37757D01*
X79190Y-37719D01*
X79040Y-37832D02*
X79097Y-37757D01*
X79153Y-37832D01*
X79397Y-37663D02*
X79397Y-37757D01*
X79303Y-37719D02*
X79397Y-37757D01*
X79491Y-37719D01*
X79341Y-37832D02*
X79397Y-37757D01*
X79453Y-37832D01*
G54D18*
X71433Y-57802D02*
X71433Y-57302D01*
X71528Y-57302D01*
X71585Y-57326D01*
X71623Y-57373D01*
X71642Y-57421D01*
X71661Y-57516D01*
X71661Y-57588D01*
X71642Y-57683D01*
X71623Y-57730D01*
X71585Y-57778D01*
X71528Y-57802D01*
X71433Y-57802D01*
X71833Y-57802D02*
X71833Y-57302D01*
X71985Y-57302D01*
X72023Y-57326D01*
X72042Y-57350D01*
X72061Y-57397D01*
X72061Y-57469D01*
X72042Y-57516D01*
X72023Y-57540D01*
X71985Y-57564D01*
X71833Y-57564D01*
X72214Y-57659D02*
X72404Y-57659D01*
X72176Y-57802D02*
X72309Y-57302D01*
X72442Y-57802D01*
X72804Y-57754D02*
X72785Y-57778D01*
X72728Y-57802D01*
X72690Y-57802D01*
X72633Y-57778D01*
X72595Y-57730D01*
X72576Y-57683D01*
X72557Y-57588D01*
X72557Y-57516D01*
X72576Y-57421D01*
X72595Y-57373D01*
X72633Y-57326D01*
X72690Y-57302D01*
X72728Y-57302D01*
X72785Y-57326D01*
X72804Y-57350D01*
X72976Y-57802D02*
X72976Y-57302D01*
X73204Y-57802D02*
X73033Y-57516D01*
X73204Y-57302D02*
X72976Y-57588D01*
X73357Y-57350D02*
X73376Y-57326D01*
X73414Y-57302D01*
X73509Y-57302D01*
X73547Y-57326D01*
X73566Y-57350D01*
X73585Y-57397D01*
X73585Y-57445D01*
X73566Y-57516D01*
X73338Y-57802D01*
X73585Y-57802D01*
X71728Y-54211D02*
X71861Y-54611D01*
X71995Y-54211D01*
X72109Y-54497D02*
X72300Y-54497D01*
X72071Y-54611D02*
X72204Y-54211D01*
X72338Y-54611D01*
X72661Y-54611D02*
X72471Y-54611D01*
X72471Y-54211D01*
X72852Y-54211D02*
X72852Y-54307D01*
X72757Y-54269D02*
X72852Y-54307D01*
X72947Y-54269D01*
X72795Y-54383D02*
X72852Y-54307D01*
X72909Y-54383D01*
X73157Y-54211D02*
X73157Y-54307D01*
X73061Y-54269D02*
X73157Y-54307D01*
X73252Y-54269D01*
X73100Y-54383D02*
X73157Y-54307D01*
X73214Y-54383D01*
G54D19*
X62916Y-57802D02*
X62916Y-57302D01*
X63035Y-57302D01*
X63107Y-57326D01*
X63154Y-57373D01*
X63178Y-57421D01*
X63202Y-57516D01*
X63202Y-57588D01*
X63178Y-57683D01*
X63154Y-57730D01*
X63107Y-57778D01*
X63035Y-57802D01*
X62916Y-57802D01*
X63416Y-57802D02*
X63416Y-57302D01*
X63607Y-57302D01*
X63654Y-57326D01*
X63678Y-57350D01*
X63702Y-57397D01*
X63702Y-57469D01*
X63678Y-57516D01*
X63654Y-57540D01*
X63607Y-57564D01*
X63416Y-57564D01*
X63892Y-57659D02*
X64130Y-57659D01*
X63845Y-57802D02*
X64011Y-57302D01*
X64178Y-57802D01*
X64345Y-57802D02*
X64345Y-57302D01*
X64630Y-57802D02*
X64416Y-57516D01*
X64630Y-57302D02*
X64345Y-57588D01*
X65083Y-57302D02*
X64845Y-57302D01*
X64821Y-57540D01*
X64845Y-57516D01*
X64892Y-57492D01*
X65011Y-57492D01*
X65059Y-57516D01*
X65083Y-57540D01*
X65107Y-57588D01*
X65107Y-57707D01*
X65083Y-57754D01*
X65059Y-57778D01*
X65011Y-57802D01*
X64892Y-57802D01*
X64845Y-57778D01*
X64821Y-57754D01*
X63035Y-53002D02*
X63202Y-53502D01*
X63369Y-53002D01*
X63511Y-53359D02*
X63750Y-53359D01*
X63464Y-53502D02*
X63630Y-53002D01*
X63797Y-53502D01*
X64202Y-53502D02*
X63964Y-53502D01*
X63964Y-53002D01*
X64440Y-53002D02*
X64440Y-53121D01*
X64321Y-53073D02*
X64440Y-53121D01*
X64559Y-53073D01*
X64369Y-53216D02*
X64440Y-53121D01*
X64511Y-53216D01*
X64821Y-53002D02*
X64821Y-53121D01*
X64702Y-53073D02*
X64821Y-53121D01*
X64940Y-53073D01*
X64750Y-53216D02*
X64821Y-53121D01*
X64892Y-53216D01*
X67666Y-57802D02*
X67666Y-57302D01*
X67785Y-57302D01*
X67857Y-57326D01*
X67904Y-57373D01*
X67928Y-57421D01*
X67952Y-57516D01*
X67952Y-57588D01*
X67928Y-57683D01*
X67904Y-57730D01*
X67857Y-57778D01*
X67785Y-57802D01*
X67666Y-57802D01*
X68166Y-57802D02*
X68166Y-57302D01*
X68357Y-57302D01*
X68404Y-57326D01*
X68428Y-57350D01*
X68452Y-57397D01*
X68452Y-57469D01*
X68428Y-57516D01*
X68404Y-57540D01*
X68357Y-57564D01*
X68166Y-57564D01*
X68642Y-57659D02*
X68880Y-57659D01*
X68595Y-57802D02*
X68761Y-57302D01*
X68928Y-57802D01*
X69095Y-57802D02*
X69095Y-57302D01*
X69380Y-57802D02*
X69166Y-57516D01*
X69380Y-57302D02*
X69095Y-57588D01*
X69547Y-57302D02*
X69857Y-57302D01*
X69690Y-57492D01*
X69761Y-57492D01*
X69809Y-57516D01*
X69833Y-57540D01*
X69857Y-57588D01*
X69857Y-57707D01*
X69833Y-57754D01*
X69809Y-57778D01*
X69761Y-57802D01*
X69619Y-57802D01*
X69571Y-57778D01*
X69547Y-57754D01*
X67785Y-53002D02*
X67952Y-53502D01*
X68119Y-53002D01*
X68261Y-53359D02*
X68500Y-53359D01*
X68214Y-53502D02*
X68380Y-53002D01*
X68547Y-53502D01*
X68952Y-53502D02*
X68714Y-53502D01*
X68714Y-53002D01*
X69190Y-53002D02*
X69190Y-53121D01*
X69071Y-53073D02*
X69190Y-53121D01*
X69309Y-53073D01*
X69119Y-53216D02*
X69190Y-53121D01*
X69261Y-53216D01*
X69571Y-53002D02*
X69571Y-53121D01*
X69452Y-53073D02*
X69571Y-53121D01*
X69690Y-53073D01*
X69500Y-53216D02*
X69571Y-53121D01*
X69642Y-53216D01*
G54D22*
X74778Y-44271D02*
X74781Y-44260D01*
X74781Y-44241D01*
X74778Y-44234D01*
X74774Y-44230D01*
X74766Y-44226D01*
X74759Y-44226D01*
X74751Y-44230D01*
X74748Y-44234D01*
X74744Y-44241D01*
X74740Y-44256D01*
X74736Y-44264D01*
X74733Y-44268D01*
X74725Y-44271D01*
X74718Y-44271D01*
X74710Y-44268D01*
X74706Y-44264D01*
X74703Y-44256D01*
X74703Y-44238D01*
X74706Y-44226D01*
X74781Y-44193D02*
X74703Y-44193D01*
X74759Y-44166D01*
X74703Y-44140D01*
X74781Y-44140D01*
X74703Y-44088D02*
X74703Y-44080D01*
X74706Y-44073D01*
X74710Y-44069D01*
X74718Y-44065D01*
X74733Y-44061D01*
X74751Y-44061D01*
X74766Y-44065D01*
X74774Y-44069D01*
X74778Y-44073D01*
X74781Y-44080D01*
X74781Y-44088D01*
X74778Y-44095D01*
X74774Y-44099D01*
X74766Y-44103D01*
X74751Y-44106D01*
X74733Y-44106D01*
X74718Y-44103D01*
X74710Y-44099D01*
X74706Y-44095D01*
X74703Y-44088D01*
X74710Y-44031D02*
X74706Y-44028D01*
X74703Y-44020D01*
X74703Y-44001D01*
X74706Y-43994D01*
X74710Y-43990D01*
X74718Y-43986D01*
X74725Y-43986D01*
X74736Y-43990D01*
X74781Y-44035D01*
X74781Y-43986D01*
X74703Y-43938D02*
X74703Y-43930D01*
X74706Y-43923D01*
X74710Y-43919D01*
X74718Y-43915D01*
X74733Y-43911D01*
X74751Y-43911D01*
X74766Y-43915D01*
X74774Y-43919D01*
X74778Y-43923D01*
X74781Y-43930D01*
X74781Y-43938D01*
X74778Y-43945D01*
X74774Y-43949D01*
X74766Y-43953D01*
X74751Y-43956D01*
X74733Y-43956D01*
X74718Y-43953D01*
X74710Y-43949D01*
X74706Y-43945D01*
X74703Y-43938D01*
X74781Y-43836D02*
X74781Y-43881D01*
X74781Y-43859D02*
X74703Y-43859D01*
X74714Y-43866D01*
X74721Y-43874D01*
X74725Y-43881D01*
X74789Y-43821D02*
X74789Y-43761D01*
X74781Y-43743D02*
X74729Y-43743D01*
X74744Y-43743D02*
X74736Y-43739D01*
X74733Y-43735D01*
X74729Y-43728D01*
X74729Y-43720D01*
G54D15*
X76918Y-44299D02*
X76935Y-44305D01*
X76964Y-44305D01*
X76975Y-44299D01*
X76981Y-44292D01*
X76987Y-44279D01*
X76987Y-44266D01*
X76981Y-44253D01*
X76975Y-44246D01*
X76964Y-44240D01*
X76941Y-44233D01*
X76930Y-44227D01*
X76924Y-44220D01*
X76918Y-44207D01*
X76918Y-44194D01*
X76924Y-44181D01*
X76930Y-44174D01*
X76941Y-44167D01*
X76970Y-44167D01*
X76987Y-44174D01*
X77038Y-44305D02*
X77038Y-44167D01*
X77078Y-44266D01*
X77118Y-44167D01*
X77118Y-44305D01*
X77198Y-44167D02*
X77210Y-44167D01*
X77221Y-44174D01*
X77227Y-44181D01*
X77232Y-44194D01*
X77238Y-44220D01*
X77238Y-44253D01*
X77232Y-44279D01*
X77227Y-44292D01*
X77221Y-44299D01*
X77210Y-44305D01*
X77198Y-44305D01*
X77187Y-44299D01*
X77181Y-44292D01*
X77175Y-44279D01*
X77170Y-44253D01*
X77170Y-44220D01*
X77175Y-44194D01*
X77181Y-44181D01*
X77187Y-44174D01*
X77198Y-44167D01*
X77341Y-44213D02*
X77341Y-44305D01*
X77312Y-44161D02*
X77284Y-44259D01*
X77358Y-44259D01*
X77427Y-44167D02*
X77438Y-44167D01*
X77450Y-44174D01*
X77455Y-44181D01*
X77461Y-44194D01*
X77467Y-44220D01*
X77467Y-44253D01*
X77461Y-44279D01*
X77455Y-44292D01*
X77450Y-44299D01*
X77438Y-44305D01*
X77427Y-44305D01*
X77415Y-44299D01*
X77410Y-44292D01*
X77404Y-44279D01*
X77398Y-44253D01*
X77398Y-44220D01*
X77404Y-44194D01*
X77410Y-44181D01*
X77415Y-44174D01*
X77427Y-44167D01*
X77512Y-44181D02*
X77518Y-44174D01*
X77530Y-44167D01*
X77558Y-44167D01*
X77570Y-44174D01*
X77575Y-44181D01*
X77581Y-44194D01*
X77581Y-44207D01*
X77575Y-44227D01*
X77507Y-44305D01*
X77581Y-44305D01*
G54D23*
X80321Y-44247D02*
X80330Y-44221D01*
X80330Y-44178D01*
X80321Y-44161D01*
X80311Y-44152D01*
X80292Y-44144D01*
X80273Y-44144D01*
X80254Y-44152D01*
X80245Y-44161D01*
X80235Y-44178D01*
X80226Y-44212D01*
X80216Y-44230D01*
X80207Y-44238D01*
X80188Y-44247D01*
X80169Y-44247D01*
X80150Y-44238D01*
X80140Y-44230D01*
X80130Y-44212D01*
X80130Y-44170D01*
X80140Y-44144D01*
X80330Y-44067D02*
X80130Y-44067D01*
X80273Y-44007D01*
X80130Y-43947D01*
X80330Y-43947D01*
X80130Y-43827D02*
X80130Y-43810D01*
X80140Y-43792D01*
X80150Y-43784D01*
X80169Y-43775D01*
X80207Y-43767D01*
X80254Y-43767D01*
X80292Y-43775D01*
X80311Y-43784D01*
X80321Y-43792D01*
X80330Y-43810D01*
X80330Y-43827D01*
X80321Y-43844D01*
X80311Y-43852D01*
X80292Y-43861D01*
X80254Y-43870D01*
X80207Y-43870D01*
X80169Y-43861D01*
X80150Y-43852D01*
X80140Y-43844D01*
X80130Y-43827D01*
X80130Y-43612D02*
X80130Y-43647D01*
X80140Y-43664D01*
X80150Y-43672D01*
X80178Y-43690D01*
X80216Y-43698D01*
X80292Y-43698D01*
X80311Y-43690D01*
X80321Y-43681D01*
X80330Y-43664D01*
X80330Y-43630D01*
X80321Y-43612D01*
X80311Y-43604D01*
X80292Y-43595D01*
X80245Y-43595D01*
X80226Y-43604D01*
X80216Y-43612D01*
X80207Y-43630D01*
X80207Y-43664D01*
X80216Y-43681D01*
X80226Y-43690D01*
X80245Y-43698D01*
X80130Y-43484D02*
X80130Y-43467D01*
X80140Y-43449D01*
X80150Y-43441D01*
X80169Y-43432D01*
X80207Y-43424D01*
X80254Y-43424D01*
X80292Y-43432D01*
X80311Y-43441D01*
X80321Y-43449D01*
X80330Y-43467D01*
X80330Y-43484D01*
X80321Y-43501D01*
X80311Y-43509D01*
X80292Y-43518D01*
X80254Y-43527D01*
X80207Y-43527D01*
X80169Y-43518D01*
X80150Y-43509D01*
X80140Y-43501D01*
X80130Y-43484D01*
X80130Y-43364D02*
X80130Y-43252D01*
X80207Y-43312D01*
X80207Y-43287D01*
X80216Y-43269D01*
X80226Y-43261D01*
X80245Y-43252D01*
X80292Y-43252D01*
X80311Y-43261D01*
X80321Y-43269D01*
X80330Y-43287D01*
X80330Y-43338D01*
X80321Y-43355D01*
X80311Y-43364D01*
G54D24*
X80195Y-45794D02*
X80204Y-45765D01*
X80204Y-45719D01*
X80195Y-45700D01*
X80185Y-45690D01*
X80167Y-45681D01*
X80148Y-45681D01*
X80129Y-45690D01*
X80120Y-45700D01*
X80110Y-45719D01*
X80101Y-45756D01*
X80092Y-45775D01*
X80082Y-45784D01*
X80064Y-45794D01*
X80045Y-45794D01*
X80026Y-45784D01*
X80017Y-45775D01*
X80007Y-45756D01*
X80007Y-45709D01*
X80017Y-45681D01*
X80204Y-45597D02*
X80007Y-45597D01*
X80148Y-45531D01*
X80007Y-45465D01*
X80204Y-45465D01*
X80007Y-45334D02*
X80007Y-45315D01*
X80017Y-45296D01*
X80026Y-45287D01*
X80045Y-45278D01*
X80082Y-45268D01*
X80129Y-45268D01*
X80167Y-45278D01*
X80185Y-45287D01*
X80195Y-45296D01*
X80204Y-45315D01*
X80204Y-45334D01*
X80195Y-45353D01*
X80185Y-45362D01*
X80167Y-45371D01*
X80129Y-45381D01*
X80082Y-45381D01*
X80045Y-45371D01*
X80026Y-45362D01*
X80017Y-45353D01*
X80007Y-45334D01*
X80092Y-45156D02*
X80082Y-45174D01*
X80073Y-45184D01*
X80054Y-45193D01*
X80045Y-45193D01*
X80026Y-45184D01*
X80017Y-45174D01*
X80007Y-45156D01*
X80007Y-45118D01*
X80017Y-45099D01*
X80026Y-45090D01*
X80045Y-45081D01*
X80054Y-45081D01*
X80073Y-45090D01*
X80082Y-45099D01*
X80092Y-45118D01*
X80092Y-45156D01*
X80101Y-45174D01*
X80110Y-45184D01*
X80129Y-45193D01*
X80167Y-45193D01*
X80185Y-45184D01*
X80195Y-45174D01*
X80204Y-45156D01*
X80204Y-45118D01*
X80195Y-45099D01*
X80185Y-45090D01*
X80167Y-45081D01*
X80129Y-45081D01*
X80110Y-45090D01*
X80101Y-45099D01*
X80092Y-45118D01*
X80007Y-44959D02*
X80007Y-44940D01*
X80017Y-44921D01*
X80026Y-44912D01*
X80045Y-44902D01*
X80082Y-44893D01*
X80129Y-44893D01*
X80167Y-44902D01*
X80185Y-44912D01*
X80195Y-44921D01*
X80204Y-44940D01*
X80204Y-44959D01*
X80195Y-44977D01*
X80185Y-44987D01*
X80167Y-44996D01*
X80129Y-45006D01*
X80082Y-45006D01*
X80045Y-44996D01*
X80026Y-44987D01*
X80017Y-44977D01*
X80007Y-44959D01*
X80007Y-44715D02*
X80007Y-44809D01*
X80101Y-44818D01*
X80092Y-44809D01*
X80082Y-44790D01*
X80082Y-44743D01*
X80092Y-44724D01*
X80101Y-44715D01*
X80120Y-44705D01*
X80167Y-44705D01*
X80185Y-44715D01*
X80195Y-44724D01*
X80204Y-44743D01*
X80204Y-44790D01*
X80195Y-44809D01*
X80185Y-44818D01*
X80282Y-45531D02*
X80479Y-45465D01*
X80282Y-45400D01*
X80479Y-45250D02*
X80376Y-45250D01*
X80357Y-45259D01*
X80348Y-45278D01*
X80348Y-45315D01*
X80357Y-45334D01*
X80470Y-45250D02*
X80479Y-45268D01*
X80479Y-45315D01*
X80470Y-45334D01*
X80451Y-45343D01*
X80432Y-45343D01*
X80414Y-45334D01*
X80404Y-45315D01*
X80404Y-45268D01*
X80395Y-45250D01*
X80479Y-45128D02*
X80470Y-45146D01*
X80451Y-45156D01*
X80282Y-45156D01*
X80282Y-45024D02*
X80329Y-45024D01*
X80310Y-45071D02*
X80329Y-45024D01*
X80310Y-44977D01*
X80367Y-45053D02*
X80329Y-45024D01*
X80367Y-44996D01*
G54D13*
X78921Y-46657D02*
X78964Y-46671D01*
X79035Y-46671D01*
X79064Y-46657D01*
X79078Y-46642D01*
X79092Y-46614D01*
X79092Y-46585D01*
X79078Y-46557D01*
X79064Y-46542D01*
X79035Y-46528D01*
X78978Y-46514D01*
X78950Y-46500D01*
X78935Y-46485D01*
X78921Y-46457D01*
X78921Y-46428D01*
X78935Y-46400D01*
X78950Y-46385D01*
X78978Y-46371D01*
X79050Y-46371D01*
X79092Y-46385D01*
X79221Y-46671D02*
X79221Y-46371D01*
X79321Y-46585D01*
X79421Y-46371D01*
X79421Y-46671D01*
X79721Y-46671D02*
X79550Y-46671D01*
X79635Y-46671D02*
X79635Y-46371D01*
X79607Y-46414D01*
X79578Y-46442D01*
X79550Y-46457D01*
X79835Y-46400D02*
X79850Y-46385D01*
X79878Y-46371D01*
X79950Y-46371D01*
X79978Y-46385D01*
X79992Y-46400D01*
X80007Y-46428D01*
X80007Y-46457D01*
X79992Y-46500D01*
X79821Y-46671D01*
X80007Y-46671D01*
X80292Y-46671D02*
X80121Y-46671D01*
X80207Y-46671D02*
X80207Y-46371D01*
X80178Y-46414D01*
X80150Y-46442D01*
X80121Y-46457D01*
X80478Y-46371D02*
X80507Y-46371D01*
X80535Y-46385D01*
X80550Y-46400D01*
X80564Y-46428D01*
X80578Y-46485D01*
X80578Y-46557D01*
X80564Y-46614D01*
X80550Y-46642D01*
X80535Y-46657D01*
X80507Y-46671D01*
X80478Y-46671D01*
X80450Y-46657D01*
X80435Y-46642D01*
X80421Y-46614D01*
X80407Y-46557D01*
X80407Y-46485D01*
X80421Y-46428D01*
X80435Y-46400D01*
X80450Y-46385D01*
X80478Y-46371D01*
X79207Y-46771D02*
X79307Y-47071D01*
X79407Y-46771D01*
X79635Y-47071D02*
X79635Y-46914D01*
X79621Y-46885D01*
X79592Y-46871D01*
X79535Y-46871D01*
X79507Y-46885D01*
X79635Y-47057D02*
X79607Y-47071D01*
X79535Y-47071D01*
X79507Y-47057D01*
X79492Y-47028D01*
X79492Y-47000D01*
X79507Y-46971D01*
X79535Y-46957D01*
X79607Y-46957D01*
X79635Y-46942D01*
X79821Y-47071D02*
X79792Y-47057D01*
X79778Y-47028D01*
X79778Y-46771D01*
X79978Y-46771D02*
X79978Y-46842D01*
X79907Y-46814D02*
X79978Y-46842D01*
X80050Y-46814D01*
X79935Y-46900D02*
X79978Y-46842D01*
X80021Y-46900D01*
X80207Y-46771D02*
X80207Y-46842D01*
X80135Y-46814D02*
X80207Y-46842D01*
X80278Y-46814D01*
X80164Y-46900D02*
X80207Y-46842D01*
X80250Y-46900D01*
G54D19*
X62717Y-49310D02*
X62782Y-49332D01*
X62889Y-49332D01*
X62932Y-49310D01*
X62953Y-49289D01*
X62975Y-49246D01*
X62975Y-49203D01*
X62953Y-49160D01*
X62932Y-49139D01*
X62889Y-49117D01*
X62803Y-49096D01*
X62760Y-49075D01*
X62739Y-49053D01*
X62717Y-49010D01*
X62717Y-48967D01*
X62739Y-48925D01*
X62760Y-48903D01*
X62803Y-48882D01*
X62910Y-48882D01*
X62975Y-48903D01*
X63253Y-48882D02*
X63339Y-48882D01*
X63382Y-48903D01*
X63425Y-48946D01*
X63446Y-49032D01*
X63446Y-49182D01*
X63425Y-49267D01*
X63382Y-49310D01*
X63339Y-49332D01*
X63253Y-49332D01*
X63210Y-49310D01*
X63167Y-49267D01*
X63146Y-49182D01*
X63146Y-49032D01*
X63167Y-48946D01*
X63210Y-48903D01*
X63253Y-48882D01*
X63703Y-49075D02*
X63660Y-49053D01*
X63639Y-49032D01*
X63617Y-48989D01*
X63617Y-48967D01*
X63639Y-48925D01*
X63660Y-48903D01*
X63703Y-48882D01*
X63789Y-48882D01*
X63832Y-48903D01*
X63853Y-48925D01*
X63875Y-48967D01*
X63875Y-48989D01*
X63853Y-49032D01*
X63832Y-49053D01*
X63789Y-49075D01*
X63703Y-49075D01*
X63660Y-49096D01*
X63639Y-49117D01*
X63617Y-49160D01*
X63617Y-49246D01*
X63639Y-49289D01*
X63660Y-49310D01*
X63703Y-49332D01*
X63789Y-49332D01*
X63832Y-49310D01*
X63853Y-49289D01*
X63875Y-49246D01*
X63875Y-49160D01*
X63853Y-49117D01*
X63832Y-49096D01*
X63789Y-49075D01*
X64067Y-49096D02*
X64217Y-49096D01*
X64282Y-49332D02*
X64067Y-49332D01*
X64067Y-48882D01*
X64282Y-48882D01*
X62825Y-49691D02*
X62941Y-50041D01*
X63058Y-49691D01*
X63158Y-49941D02*
X63325Y-49941D01*
X63125Y-50041D02*
X63241Y-49691D01*
X63358Y-50041D01*
X63641Y-50041D02*
X63475Y-50041D01*
X63475Y-49691D01*
X63808Y-49691D02*
X63808Y-49775D01*
X63725Y-49741D02*
X63808Y-49775D01*
X63891Y-49741D01*
X63758Y-49841D02*
X63808Y-49775D01*
X63858Y-49841D01*
X64075Y-49691D02*
X64075Y-49775D01*
X63991Y-49741D02*
X64075Y-49775D01*
X64158Y-49741D01*
X64025Y-49841D02*
X64075Y-49775D01*
X64125Y-49841D01*
G54D13*
X68526Y-48910D02*
X68583Y-48932D01*
X68678Y-48932D01*
X68716Y-48910D01*
X68735Y-48889D01*
X68754Y-48846D01*
X68754Y-48803D01*
X68735Y-48760D01*
X68716Y-48739D01*
X68678Y-48717D01*
X68602Y-48696D01*
X68564Y-48675D01*
X68545Y-48653D01*
X68526Y-48610D01*
X68526Y-48567D01*
X68545Y-48525D01*
X68564Y-48503D01*
X68602Y-48482D01*
X68697Y-48482D01*
X68754Y-48503D01*
X69002Y-48482D02*
X69078Y-48482D01*
X69116Y-48503D01*
X69154Y-48546D01*
X69173Y-48632D01*
X69173Y-48782D01*
X69154Y-48867D01*
X69116Y-48910D01*
X69078Y-48932D01*
X69002Y-48932D01*
X68964Y-48910D01*
X68926Y-48867D01*
X68907Y-48782D01*
X68907Y-48632D01*
X68926Y-48546D01*
X68964Y-48503D01*
X69002Y-48482D01*
X69402Y-48675D02*
X69364Y-48653D01*
X69345Y-48632D01*
X69326Y-48589D01*
X69326Y-48567D01*
X69345Y-48525D01*
X69364Y-48503D01*
X69402Y-48482D01*
X69478Y-48482D01*
X69516Y-48503D01*
X69535Y-48525D01*
X69554Y-48567D01*
X69554Y-48589D01*
X69535Y-48632D01*
X69516Y-48653D01*
X69478Y-48675D01*
X69402Y-48675D01*
X69364Y-48696D01*
X69345Y-48717D01*
X69326Y-48760D01*
X69326Y-48846D01*
X69345Y-48889D01*
X69364Y-48910D01*
X69402Y-48932D01*
X69478Y-48932D01*
X69516Y-48910D01*
X69535Y-48889D01*
X69554Y-48846D01*
X69554Y-48760D01*
X69535Y-48717D01*
X69516Y-48696D01*
X69478Y-48675D01*
X69726Y-48932D02*
X69726Y-48482D01*
X69954Y-48932D01*
X69954Y-48482D01*
X68630Y-49511D02*
X68764Y-49911D01*
X68897Y-49511D01*
X69011Y-49797D02*
X69202Y-49797D01*
X68973Y-49911D02*
X69107Y-49511D01*
X69240Y-49911D01*
X69564Y-49911D02*
X69373Y-49911D01*
X69373Y-49511D01*
X69754Y-49511D02*
X69754Y-49607D01*
X69659Y-49569D02*
X69754Y-49607D01*
X69850Y-49569D01*
X69697Y-49683D02*
X69754Y-49607D01*
X69811Y-49683D01*
G54D21*
X70144Y-46853D02*
X70158Y-46810D01*
X70158Y-46739D01*
X70144Y-46710D01*
X70129Y-46696D01*
X70101Y-46682D01*
X70072Y-46682D01*
X70044Y-46696D01*
X70029Y-46710D01*
X70015Y-46739D01*
X70001Y-46796D01*
X69987Y-46825D01*
X69972Y-46839D01*
X69944Y-46853D01*
X69915Y-46853D01*
X69887Y-46839D01*
X69872Y-46825D01*
X69858Y-46796D01*
X69858Y-46725D01*
X69872Y-46682D01*
X69858Y-46496D02*
X69858Y-46439D01*
X69872Y-46410D01*
X69901Y-46382D01*
X69958Y-46368D01*
X70058Y-46368D01*
X70115Y-46382D01*
X70144Y-46410D01*
X70158Y-46439D01*
X70158Y-46496D01*
X70144Y-46525D01*
X70115Y-46553D01*
X70058Y-46568D01*
X69958Y-46568D01*
X69901Y-46553D01*
X69872Y-46525D01*
X69858Y-46496D01*
X69858Y-46282D02*
X69858Y-46110D01*
X70158Y-46196D02*
X69858Y-46196D01*
X69887Y-46025D02*
X69872Y-46010D01*
X69858Y-45982D01*
X69858Y-45910D01*
X69872Y-45882D01*
X69887Y-45868D01*
X69915Y-45853D01*
X69944Y-45853D01*
X69987Y-45868D01*
X70158Y-46039D01*
X70158Y-45853D01*
X69858Y-45753D02*
X69858Y-45568D01*
X69972Y-45668D01*
X69972Y-45625D01*
X69987Y-45596D01*
X70001Y-45582D01*
X70029Y-45568D01*
X70101Y-45568D01*
X70129Y-45582D01*
X70144Y-45596D01*
X70158Y-45625D01*
X70158Y-45711D01*
X70144Y-45739D01*
X70129Y-45753D01*
G54D16*
X69045Y-46132D02*
X69110Y-46329D01*
X69176Y-46132D01*
X69232Y-46273D02*
X69326Y-46273D01*
X69214Y-46329D02*
X69279Y-46132D01*
X69345Y-46329D01*
X69504Y-46329D02*
X69411Y-46329D01*
X69411Y-46132D01*
G54D13*
X70205Y-44941D02*
X70217Y-44905D01*
X70217Y-44846D01*
X70205Y-44822D01*
X70193Y-44810D01*
X70169Y-44798D01*
X70145Y-44798D01*
X70121Y-44810D01*
X70110Y-44822D01*
X70098Y-44846D01*
X70086Y-44893D01*
X70074Y-44917D01*
X70062Y-44929D01*
X70038Y-44941D01*
X70014Y-44941D01*
X69991Y-44929D01*
X69979Y-44917D01*
X69967Y-44893D01*
X69967Y-44834D01*
X69979Y-44798D01*
X69967Y-44643D02*
X69967Y-44596D01*
X69979Y-44572D01*
X70002Y-44548D01*
X70050Y-44536D01*
X70133Y-44536D01*
X70181Y-44548D01*
X70205Y-44572D01*
X70217Y-44596D01*
X70217Y-44643D01*
X70205Y-44667D01*
X70181Y-44691D01*
X70133Y-44703D01*
X70050Y-44703D01*
X70002Y-44691D01*
X69979Y-44667D01*
X69967Y-44643D01*
X69967Y-44465D02*
X69967Y-44322D01*
X70217Y-44393D02*
X69967Y-44393D01*
X69991Y-44251D02*
X69979Y-44239D01*
X69967Y-44215D01*
X69967Y-44155D01*
X69979Y-44132D01*
X69991Y-44120D01*
X70014Y-44108D01*
X70038Y-44108D01*
X70074Y-44120D01*
X70217Y-44262D01*
X70217Y-44108D01*
X69967Y-44024D02*
X69967Y-43870D01*
X70062Y-43953D01*
X70062Y-43917D01*
X70074Y-43893D01*
X70086Y-43882D01*
X70110Y-43870D01*
X70169Y-43870D01*
X70193Y-43882D01*
X70205Y-43893D01*
X70217Y-43917D01*
X70217Y-43989D01*
X70205Y-44012D01*
X70193Y-44024D01*
X70121Y-43762D02*
X70121Y-43572D01*
X69967Y-43334D02*
X69967Y-43453D01*
X70086Y-43465D01*
X70074Y-43453D01*
X70062Y-43429D01*
X70062Y-43370D01*
X70074Y-43346D01*
X70086Y-43334D01*
X70110Y-43322D01*
X70169Y-43322D01*
X70193Y-43334D01*
X70205Y-43346D01*
X70217Y-43370D01*
X70217Y-43429D01*
X70205Y-43453D01*
X70193Y-43465D01*
X68672Y-44101D02*
X68755Y-44351D01*
X68839Y-44101D01*
X68910Y-44279D02*
X69029Y-44279D01*
X68886Y-44351D02*
X68970Y-44101D01*
X69053Y-44351D01*
X69255Y-44351D02*
X69136Y-44351D01*
X69136Y-44101D01*
X69375Y-44101D02*
X69375Y-44160D01*
X69315Y-44136D02*
X69375Y-44160D01*
X69434Y-44136D01*
X69339Y-44208D02*
X69375Y-44160D01*
X69410Y-44208D01*
X69565Y-44101D02*
X69565Y-44160D01*
X69505Y-44136D02*
X69565Y-44160D01*
X69625Y-44136D01*
X69529Y-44208D02*
X69565Y-44160D01*
X69601Y-44208D01*
X69755Y-44101D02*
X69755Y-44160D01*
X69696Y-44136D02*
X69755Y-44160D01*
X69815Y-44136D01*
X69720Y-44208D02*
X69755Y-44160D01*
X69791Y-44208D01*
G54D25*
X71894Y-45149D02*
X71908Y-45107D01*
X71908Y-45035D01*
X71894Y-45007D01*
X71879Y-44992D01*
X71851Y-44978D01*
X71822Y-44978D01*
X71794Y-44992D01*
X71779Y-45007D01*
X71765Y-45035D01*
X71751Y-45092D01*
X71737Y-45121D01*
X71722Y-45135D01*
X71694Y-45149D01*
X71665Y-45149D01*
X71637Y-45135D01*
X71622Y-45121D01*
X71608Y-45092D01*
X71608Y-45021D01*
X71622Y-44978D01*
X71608Y-44792D02*
X71608Y-44735D01*
X71622Y-44707D01*
X71651Y-44678D01*
X71708Y-44664D01*
X71808Y-44664D01*
X71865Y-44678D01*
X71894Y-44707D01*
X71908Y-44735D01*
X71908Y-44792D01*
X71894Y-44821D01*
X71865Y-44849D01*
X71808Y-44864D01*
X71708Y-44864D01*
X71651Y-44849D01*
X71622Y-44821D01*
X71608Y-44792D01*
X71608Y-44578D02*
X71608Y-44407D01*
X71908Y-44492D02*
X71608Y-44492D01*
X71637Y-44321D02*
X71622Y-44307D01*
X71608Y-44278D01*
X71608Y-44207D01*
X71622Y-44178D01*
X71637Y-44164D01*
X71665Y-44150D01*
X71694Y-44150D01*
X71737Y-44164D01*
X71908Y-44335D01*
X71908Y-44150D01*
X71608Y-44050D02*
X71608Y-43864D01*
X71722Y-43964D01*
X71722Y-43921D01*
X71737Y-43892D01*
X71751Y-43878D01*
X71779Y-43864D01*
X71851Y-43864D01*
X71879Y-43878D01*
X71894Y-43892D01*
X71908Y-43921D01*
X71908Y-44007D01*
X71894Y-44035D01*
X71879Y-44050D01*
X71937Y-43807D02*
X71937Y-43578D01*
X71608Y-43378D02*
X71608Y-43435D01*
X71622Y-43464D01*
X71637Y-43478D01*
X71679Y-43507D01*
X71737Y-43521D01*
X71851Y-43521D01*
X71879Y-43507D01*
X71894Y-43492D01*
X71908Y-43464D01*
X71908Y-43407D01*
X71894Y-43378D01*
X71879Y-43364D01*
X71851Y-43350D01*
X71779Y-43350D01*
X71751Y-43364D01*
X71737Y-43378D01*
X71722Y-43407D01*
X71722Y-43464D01*
X71737Y-43492D01*
X71751Y-43507D01*
X71779Y-43521D01*
X70795Y-44132D02*
X70860Y-44329D01*
X70926Y-44132D01*
X70982Y-44273D02*
X71076Y-44273D01*
X70964Y-44329D02*
X71029Y-44132D01*
X71095Y-44329D01*
X71254Y-44329D02*
X71161Y-44329D01*
X71161Y-44132D01*
G54D18*
X69452Y-40092D02*
X69509Y-40111D01*
X69604Y-40111D01*
X69642Y-40092D01*
X69661Y-40073D01*
X69680Y-40035D01*
X69680Y-39997D01*
X69661Y-39959D01*
X69642Y-39940D01*
X69604Y-39921D01*
X69528Y-39902D01*
X69490Y-39883D01*
X69471Y-39864D01*
X69452Y-39826D01*
X69452Y-39788D01*
X69471Y-39750D01*
X69490Y-39730D01*
X69528Y-39711D01*
X69623Y-39711D01*
X69680Y-39730D01*
X69928Y-39711D02*
X70004Y-39711D01*
X70042Y-39730D01*
X70080Y-39769D01*
X70100Y-39845D01*
X70100Y-39978D01*
X70080Y-40054D01*
X70042Y-40092D01*
X70004Y-40111D01*
X69928Y-40111D01*
X69890Y-40092D01*
X69852Y-40054D01*
X69833Y-39978D01*
X69833Y-39845D01*
X69852Y-39769D01*
X69890Y-39730D01*
X69928Y-39711D01*
X70214Y-39711D02*
X70442Y-39711D01*
X70328Y-40111D02*
X70328Y-39711D01*
X70557Y-39750D02*
X70576Y-39730D01*
X70614Y-39711D01*
X70709Y-39711D01*
X70747Y-39730D01*
X70766Y-39750D01*
X70785Y-39788D01*
X70785Y-39826D01*
X70766Y-39883D01*
X70538Y-40111D01*
X70785Y-40111D01*
X70938Y-39750D02*
X70957Y-39730D01*
X70995Y-39711D01*
X71090Y-39711D01*
X71128Y-39730D01*
X71147Y-39750D01*
X71166Y-39788D01*
X71166Y-39826D01*
X71147Y-39883D01*
X70919Y-40111D01*
X71166Y-40111D01*
X71300Y-39711D02*
X71547Y-39711D01*
X71414Y-39864D01*
X71471Y-39864D01*
X71509Y-39883D01*
X71528Y-39902D01*
X71547Y-39940D01*
X71547Y-40035D01*
X71528Y-40073D01*
X71509Y-40092D01*
X71471Y-40111D01*
X71357Y-40111D01*
X71319Y-40092D01*
X71300Y-40073D01*
X69776Y-40311D02*
X69909Y-40711D01*
X70042Y-40311D01*
X70347Y-40711D02*
X70347Y-40502D01*
X70328Y-40464D01*
X70290Y-40445D01*
X70214Y-40445D01*
X70176Y-40464D01*
X70347Y-40692D02*
X70309Y-40711D01*
X70214Y-40711D01*
X70176Y-40692D01*
X70157Y-40654D01*
X70157Y-40616D01*
X70176Y-40578D01*
X70214Y-40559D01*
X70309Y-40559D01*
X70347Y-40540D01*
X70595Y-40711D02*
X70557Y-40692D01*
X70538Y-40654D01*
X70538Y-40311D01*
X70804Y-40311D02*
X70804Y-40407D01*
X70709Y-40369D02*
X70804Y-40407D01*
X70900Y-40369D01*
X70747Y-40483D02*
X70804Y-40407D01*
X70861Y-40483D01*
X71109Y-40311D02*
X71109Y-40407D01*
X71014Y-40369D02*
X71109Y-40407D01*
X71204Y-40369D01*
X71052Y-40483D02*
X71109Y-40407D01*
X71166Y-40483D01*
G54D16*
X72264Y-38307D02*
X72307Y-38321D01*
X72378Y-38321D01*
X72407Y-38307D01*
X72421Y-38292D01*
X72435Y-38264D01*
X72435Y-38235D01*
X72421Y-38207D01*
X72407Y-38192D01*
X72378Y-38178D01*
X72321Y-38164D01*
X72292Y-38150D01*
X72278Y-38135D01*
X72264Y-38107D01*
X72264Y-38078D01*
X72278Y-38050D01*
X72292Y-38035D01*
X72321Y-38021D01*
X72392Y-38021D01*
X72435Y-38035D01*
X72621Y-38021D02*
X72678Y-38021D01*
X72707Y-38035D01*
X72735Y-38064D01*
X72750Y-38121D01*
X72750Y-38221D01*
X72735Y-38278D01*
X72707Y-38307D01*
X72678Y-38321D01*
X72621Y-38321D01*
X72592Y-38307D01*
X72564Y-38278D01*
X72550Y-38221D01*
X72550Y-38121D01*
X72564Y-38064D01*
X72592Y-38035D01*
X72621Y-38021D01*
X72835Y-38021D02*
X73007Y-38021D01*
X72921Y-38321D02*
X72921Y-38021D01*
X73078Y-38021D02*
X73264Y-38021D01*
X73164Y-38135D01*
X73207Y-38135D01*
X73235Y-38150D01*
X73250Y-38164D01*
X73264Y-38192D01*
X73264Y-38264D01*
X73250Y-38292D01*
X73235Y-38307D01*
X73207Y-38321D01*
X73121Y-38321D01*
X73092Y-38307D01*
X73078Y-38292D01*
X73378Y-38050D02*
X73392Y-38035D01*
X73421Y-38021D01*
X73492Y-38021D01*
X73521Y-38035D01*
X73535Y-38050D01*
X73550Y-38078D01*
X73550Y-38107D01*
X73535Y-38150D01*
X73364Y-38321D01*
X73550Y-38321D01*
X73650Y-38021D02*
X73835Y-38021D01*
X73735Y-38135D01*
X73778Y-38135D01*
X73807Y-38150D01*
X73821Y-38164D01*
X73835Y-38192D01*
X73835Y-38264D01*
X73821Y-38292D01*
X73807Y-38307D01*
X73778Y-38321D01*
X73692Y-38321D01*
X73664Y-38307D01*
X73650Y-38292D01*
G54D13*
X74896Y-39404D02*
X74910Y-39369D01*
X74910Y-39309D01*
X74896Y-39285D01*
X74881Y-39273D01*
X74853Y-39261D01*
X74824Y-39261D01*
X74796Y-39273D01*
X74781Y-39285D01*
X74767Y-39309D01*
X74753Y-39357D01*
X74739Y-39380D01*
X74724Y-39392D01*
X74696Y-39404D01*
X74667Y-39404D01*
X74639Y-39392D01*
X74624Y-39380D01*
X74610Y-39357D01*
X74610Y-39297D01*
X74624Y-39261D01*
X74610Y-39107D02*
X74610Y-39059D01*
X74624Y-39035D01*
X74653Y-39011D01*
X74710Y-39000D01*
X74810Y-39000D01*
X74867Y-39011D01*
X74896Y-39035D01*
X74910Y-39059D01*
X74910Y-39107D01*
X74896Y-39130D01*
X74867Y-39154D01*
X74810Y-39166D01*
X74710Y-39166D01*
X74653Y-39154D01*
X74624Y-39130D01*
X74610Y-39107D01*
X74610Y-38928D02*
X74610Y-38785D01*
X74910Y-38857D02*
X74610Y-38857D01*
X74610Y-38726D02*
X74610Y-38571D01*
X74724Y-38654D01*
X74724Y-38619D01*
X74739Y-38595D01*
X74753Y-38583D01*
X74781Y-38571D01*
X74853Y-38571D01*
X74881Y-38583D01*
X74896Y-38595D01*
X74910Y-38619D01*
X74910Y-38690D01*
X74896Y-38714D01*
X74881Y-38726D01*
X74610Y-38345D02*
X74610Y-38464D01*
X74753Y-38476D01*
X74739Y-38464D01*
X74724Y-38440D01*
X74724Y-38380D01*
X74739Y-38357D01*
X74753Y-38345D01*
X74781Y-38333D01*
X74853Y-38333D01*
X74881Y-38345D01*
X74896Y-38357D01*
X74910Y-38380D01*
X74910Y-38440D01*
X74896Y-38464D01*
X74881Y-38476D01*
X74610Y-38250D02*
X74610Y-38095D01*
X74724Y-38178D01*
X74724Y-38142D01*
X74739Y-38119D01*
X74753Y-38107D01*
X74781Y-38095D01*
X74853Y-38095D01*
X74881Y-38107D01*
X74896Y-38119D01*
X74910Y-38142D01*
X74910Y-38214D01*
X74896Y-38238D01*
X74881Y-38250D01*
G54D16*
X75984Y-38598D02*
X76012Y-38607D01*
X76059Y-38607D01*
X76077Y-38598D01*
X76087Y-38588D01*
X76096Y-38570D01*
X76096Y-38551D01*
X76087Y-38532D01*
X76077Y-38523D01*
X76059Y-38513D01*
X76021Y-38504D01*
X76002Y-38495D01*
X75993Y-38485D01*
X75984Y-38467D01*
X75984Y-38448D01*
X75993Y-38429D01*
X76002Y-38420D01*
X76021Y-38410D01*
X76068Y-38410D01*
X76096Y-38420D01*
X76218Y-38410D02*
X76256Y-38410D01*
X76274Y-38420D01*
X76293Y-38438D01*
X76303Y-38476D01*
X76303Y-38542D01*
X76293Y-38579D01*
X76274Y-38598D01*
X76256Y-38607D01*
X76218Y-38607D01*
X76199Y-38598D01*
X76181Y-38579D01*
X76171Y-38542D01*
X76171Y-38476D01*
X76181Y-38438D01*
X76199Y-38420D01*
X76218Y-38410D01*
X76359Y-38410D02*
X76471Y-38410D01*
X76415Y-38607D02*
X76415Y-38410D01*
X76631Y-38410D02*
X76537Y-38410D01*
X76528Y-38504D01*
X76537Y-38495D01*
X76556Y-38485D01*
X76603Y-38485D01*
X76621Y-38495D01*
X76631Y-38504D01*
X76640Y-38523D01*
X76640Y-38570D01*
X76631Y-38588D01*
X76621Y-38598D01*
X76603Y-38607D01*
X76556Y-38607D01*
X76537Y-38598D01*
X76528Y-38588D01*
X76818Y-38410D02*
X76725Y-38410D01*
X76715Y-38504D01*
X76725Y-38495D01*
X76743Y-38485D01*
X76790Y-38485D01*
X76809Y-38495D01*
X76818Y-38504D01*
X76828Y-38523D01*
X76828Y-38570D01*
X76818Y-38588D01*
X76809Y-38598D01*
X76790Y-38607D01*
X76743Y-38607D01*
X76725Y-38598D01*
X76715Y-38588D01*
X76894Y-38410D02*
X77015Y-38410D01*
X76950Y-38485D01*
X76978Y-38485D01*
X76997Y-38495D01*
X77006Y-38504D01*
X77015Y-38523D01*
X77015Y-38570D01*
X77006Y-38588D01*
X76997Y-38598D01*
X76978Y-38607D01*
X76922Y-38607D01*
X76903Y-38598D01*
X76894Y-38588D01*
X76143Y-39413D02*
X76209Y-39610D01*
X76274Y-39413D01*
X76424Y-39610D02*
X76424Y-39507D01*
X76415Y-39488D01*
X76396Y-39479D01*
X76359Y-39479D01*
X76340Y-39488D01*
X76424Y-39601D02*
X76406Y-39610D01*
X76359Y-39610D01*
X76340Y-39601D01*
X76331Y-39582D01*
X76331Y-39563D01*
X76340Y-39545D01*
X76359Y-39535D01*
X76406Y-39535D01*
X76424Y-39526D01*
X76546Y-39610D02*
X76528Y-39601D01*
X76518Y-39582D01*
X76518Y-39413D01*
X76650Y-39413D02*
X76650Y-39460D01*
X76603Y-39441D02*
X76650Y-39460D01*
X76697Y-39441D01*
X76621Y-39498D02*
X76650Y-39460D01*
X76678Y-39498D01*
X76800Y-39413D02*
X76800Y-39460D01*
X76753Y-39441D02*
X76800Y-39460D01*
X76847Y-39441D01*
X76772Y-39498D02*
X76800Y-39460D01*
X76828Y-39498D01*
G54D19*
X66692Y-47904D02*
X66711Y-47847D01*
X66711Y-47752D01*
X66692Y-47714D01*
X66673Y-47695D01*
X66635Y-47676D01*
X66597Y-47676D01*
X66559Y-47695D01*
X66540Y-47714D01*
X66521Y-47752D01*
X66502Y-47828D01*
X66483Y-47866D01*
X66464Y-47885D01*
X66426Y-47904D01*
X66388Y-47904D01*
X66350Y-47885D01*
X66330Y-47866D01*
X66311Y-47828D01*
X66311Y-47733D01*
X66330Y-47676D01*
X66692Y-47523D02*
X66711Y-47466D01*
X66711Y-47371D01*
X66692Y-47333D01*
X66673Y-47314D01*
X66635Y-47295D01*
X66597Y-47295D01*
X66559Y-47314D01*
X66540Y-47333D01*
X66521Y-47371D01*
X66502Y-47447D01*
X66483Y-47485D01*
X66464Y-47504D01*
X66426Y-47523D01*
X66388Y-47523D01*
X66350Y-47504D01*
X66330Y-47485D01*
X66311Y-47447D01*
X66311Y-47352D01*
X66330Y-47295D01*
X66311Y-47047D02*
X66311Y-46971D01*
X66330Y-46933D01*
X66369Y-46895D01*
X66445Y-46876D01*
X66578Y-46876D01*
X66654Y-46895D01*
X66692Y-46933D01*
X66711Y-46971D01*
X66711Y-47047D01*
X66692Y-47085D01*
X66654Y-47123D01*
X66578Y-47142D01*
X66445Y-47142D01*
X66369Y-47123D01*
X66330Y-47085D01*
X66311Y-47047D01*
X66711Y-46704D02*
X66311Y-46704D01*
X66311Y-46552D01*
X66330Y-46514D01*
X66350Y-46495D01*
X66388Y-46476D01*
X66445Y-46476D01*
X66483Y-46495D01*
X66502Y-46514D01*
X66521Y-46552D01*
X66521Y-46704D01*
X66483Y-46247D02*
X66464Y-46285D01*
X66445Y-46304D01*
X66407Y-46323D01*
X66388Y-46323D01*
X66350Y-46304D01*
X66330Y-46285D01*
X66311Y-46247D01*
X66311Y-46171D01*
X66330Y-46133D01*
X66350Y-46114D01*
X66388Y-46095D01*
X66407Y-46095D01*
X66445Y-46114D01*
X66464Y-46133D01*
X66483Y-46171D01*
X66483Y-46247D01*
X66502Y-46285D01*
X66521Y-46304D01*
X66559Y-46323D01*
X66635Y-46323D01*
X66673Y-46304D01*
X66692Y-46285D01*
X66711Y-46247D01*
X66711Y-46171D01*
X66692Y-46133D01*
X66673Y-46114D01*
X66635Y-46095D01*
X66559Y-46095D01*
X66521Y-46114D01*
X66502Y-46133D01*
X66483Y-46171D01*
G54D26*
X63021Y-47303D02*
X63021Y-47160D01*
X63321Y-47232D02*
X63021Y-47232D01*
X63307Y-47089D02*
X63321Y-47053D01*
X63321Y-46994D01*
X63307Y-46970D01*
X63292Y-46958D01*
X63264Y-46946D01*
X63235Y-46946D01*
X63207Y-46958D01*
X63192Y-46970D01*
X63178Y-46994D01*
X63164Y-47041D01*
X63150Y-47065D01*
X63135Y-47077D01*
X63107Y-47089D01*
X63078Y-47089D01*
X63050Y-47077D01*
X63035Y-47065D01*
X63021Y-47041D01*
X63021Y-46982D01*
X63035Y-46946D01*
X63307Y-46851D02*
X63321Y-46815D01*
X63321Y-46755D01*
X63307Y-46732D01*
X63292Y-46720D01*
X63264Y-46708D01*
X63235Y-46708D01*
X63207Y-46720D01*
X63192Y-46732D01*
X63178Y-46755D01*
X63164Y-46803D01*
X63150Y-46827D01*
X63135Y-46839D01*
X63107Y-46851D01*
X63078Y-46851D01*
X63050Y-46839D01*
X63035Y-46827D01*
X63021Y-46803D01*
X63021Y-46744D01*
X63035Y-46708D01*
X63021Y-46553D02*
X63021Y-46505D01*
X63035Y-46482D01*
X63064Y-46458D01*
X63121Y-46446D01*
X63221Y-46446D01*
X63278Y-46458D01*
X63307Y-46482D01*
X63321Y-46505D01*
X63321Y-46553D01*
X63307Y-46577D01*
X63278Y-46601D01*
X63221Y-46613D01*
X63121Y-46613D01*
X63064Y-46601D01*
X63035Y-46577D01*
X63021Y-46553D01*
X63321Y-46339D02*
X63021Y-46339D01*
X63021Y-46244D01*
X63035Y-46220D01*
X63050Y-46208D01*
X63078Y-46196D01*
X63121Y-46196D01*
X63150Y-46208D01*
X63164Y-46220D01*
X63178Y-46244D01*
X63178Y-46339D01*
X63321Y-45958D02*
X63321Y-46101D01*
X63321Y-46029D02*
X63021Y-46029D01*
X63064Y-46053D01*
X63092Y-46077D01*
X63107Y-46101D01*
X63121Y-45744D02*
X63321Y-45744D01*
X63007Y-45803D02*
X63221Y-45863D01*
X63221Y-45708D01*
G54D27*
X63521Y-47078D02*
X63821Y-46978D01*
X63521Y-46878D01*
X63735Y-46792D02*
X63735Y-46649D01*
X63821Y-46821D02*
X63521Y-46721D01*
X63821Y-46621D01*
X63821Y-46378D02*
X63821Y-46521D01*
X63521Y-46521D01*
X63521Y-46235D02*
X63592Y-46235D01*
X63564Y-46307D02*
X63592Y-46235D01*
X63564Y-46164D01*
X63650Y-46278D02*
X63592Y-46235D01*
X63650Y-46192D01*
X63521Y-46007D02*
X63592Y-46007D01*
X63564Y-46078D02*
X63592Y-46007D01*
X63564Y-45935D01*
X63650Y-46049D02*
X63592Y-46007D01*
X63650Y-45964D01*
G54D12*
X76992Y-55895D02*
X76992Y-55666D01*
X77592Y-55780D02*
X76992Y-55780D01*
X76992Y-55457D02*
X76992Y-55380D01*
X77021Y-55342D01*
X77078Y-55304D01*
X77192Y-55285D01*
X77392Y-55285D01*
X77507Y-55304D01*
X77564Y-55342D01*
X77592Y-55380D01*
X77592Y-55457D01*
X77564Y-55495D01*
X77507Y-55533D01*
X77392Y-55552D01*
X77192Y-55552D01*
X77078Y-55533D01*
X77021Y-55495D01*
X76992Y-55457D01*
X77050Y-55133D02*
X77021Y-55114D01*
X76992Y-55076D01*
X76992Y-54980D01*
X77021Y-54942D01*
X77050Y-54923D01*
X77107Y-54904D01*
X77164Y-54904D01*
X77250Y-54923D01*
X77592Y-55152D01*
X77592Y-54904D01*
X76992Y-54561D02*
X76992Y-54638D01*
X77021Y-54676D01*
X77050Y-54695D01*
X77135Y-54733D01*
X77250Y-54752D01*
X77478Y-54752D01*
X77535Y-54733D01*
X77564Y-54714D01*
X77592Y-54676D01*
X77592Y-54600D01*
X77564Y-54561D01*
X77535Y-54542D01*
X77478Y-54523D01*
X77335Y-54523D01*
X77278Y-54542D01*
X77250Y-54561D01*
X77221Y-54600D01*
X77221Y-54676D01*
X77250Y-54714D01*
X77278Y-54733D01*
X77335Y-54752D01*
X76992Y-54390D02*
X76992Y-54142D01*
X77221Y-54276D01*
X77221Y-54219D01*
X77250Y-54180D01*
X77278Y-54161D01*
X77335Y-54142D01*
X77478Y-54142D01*
X77535Y-54161D01*
X77564Y-54180D01*
X77592Y-54219D01*
X77592Y-54333D01*
X77564Y-54371D01*
X77535Y-54390D01*
X76192Y-55771D02*
X76792Y-55638D01*
X76192Y-55504D01*
X76621Y-55390D02*
X76621Y-55200D01*
X76792Y-55428D02*
X76192Y-55295D01*
X76792Y-55161D01*
X76792Y-54838D02*
X76792Y-55028D01*
X76192Y-55028D01*
X76192Y-54647D02*
X76335Y-54647D01*
X76278Y-54742D02*
X76335Y-54647D01*
X76278Y-54552D01*
X76450Y-54704D02*
X76335Y-54647D01*
X76450Y-54590D01*
X76192Y-54342D02*
X76335Y-54342D01*
X76278Y-54438D02*
X76335Y-54342D01*
X76278Y-54247D01*
X76450Y-54400D02*
X76335Y-54342D01*
X76450Y-54285D01*
X76242Y-51333D02*
X76242Y-51104D01*
X76842Y-51219D02*
X76242Y-51219D01*
X76242Y-50895D02*
X76242Y-50819D01*
X76271Y-50780D01*
X76328Y-50742D01*
X76442Y-50723D01*
X76642Y-50723D01*
X76757Y-50742D01*
X76814Y-50780D01*
X76842Y-50819D01*
X76842Y-50895D01*
X76814Y-50933D01*
X76757Y-50971D01*
X76642Y-50990D01*
X76442Y-50990D01*
X76328Y-50971D01*
X76271Y-50933D01*
X76242Y-50895D01*
X76300Y-50571D02*
X76271Y-50552D01*
X76242Y-50514D01*
X76242Y-50419D01*
X76271Y-50380D01*
X76300Y-50361D01*
X76357Y-50342D01*
X76414Y-50342D01*
X76500Y-50361D01*
X76842Y-50590D01*
X76842Y-50342D01*
X76242Y-50000D02*
X76242Y-50076D01*
X76271Y-50114D01*
X76300Y-50133D01*
X76385Y-50171D01*
X76500Y-50190D01*
X76728Y-50190D01*
X76785Y-50171D01*
X76814Y-50152D01*
X76842Y-50114D01*
X76842Y-50038D01*
X76814Y-50000D01*
X76785Y-49980D01*
X76728Y-49961D01*
X76585Y-49961D01*
X76528Y-49980D01*
X76500Y-50000D01*
X76471Y-50038D01*
X76471Y-50114D01*
X76500Y-50152D01*
X76528Y-50171D01*
X76585Y-50190D01*
X76242Y-49828D02*
X76242Y-49580D01*
X76471Y-49714D01*
X76471Y-49657D01*
X76500Y-49619D01*
X76528Y-49600D01*
X76585Y-49580D01*
X76728Y-49580D01*
X76785Y-49600D01*
X76814Y-49619D01*
X76842Y-49657D01*
X76842Y-49771D01*
X76814Y-49809D01*
X76785Y-49828D01*
X76614Y-49409D02*
X76614Y-49104D01*
X76242Y-48723D02*
X76242Y-48914D01*
X76528Y-48933D01*
X76500Y-48914D01*
X76471Y-48876D01*
X76471Y-48780D01*
X76500Y-48742D01*
X76528Y-48723D01*
X76585Y-48704D01*
X76728Y-48704D01*
X76785Y-48723D01*
X76814Y-48742D01*
X76842Y-48780D01*
X76842Y-48876D01*
X76814Y-48914D01*
X76785Y-48933D01*
X75442Y-50771D02*
X76042Y-50638D01*
X75442Y-50504D01*
X75871Y-50390D02*
X75871Y-50200D01*
X76042Y-50428D02*
X75442Y-50295D01*
X76042Y-50161D01*
X76042Y-49838D02*
X76042Y-50028D01*
X75442Y-50028D01*
X75442Y-49647D02*
X75585Y-49647D01*
X75528Y-49742D02*
X75585Y-49647D01*
X75528Y-49552D01*
X75700Y-49704D02*
X75585Y-49647D01*
X75700Y-49590D01*
X75442Y-49342D02*
X75585Y-49342D01*
X75528Y-49438D02*
X75585Y-49342D01*
X75528Y-49247D01*
X75700Y-49400D02*
X75585Y-49342D01*
X75700Y-49285D01*
G54D13*
X76671Y-46657D02*
X76714Y-46671D01*
X76785Y-46671D01*
X76814Y-46657D01*
X76828Y-46642D01*
X76842Y-46614D01*
X76842Y-46585D01*
X76828Y-46557D01*
X76814Y-46542D01*
X76785Y-46528D01*
X76728Y-46514D01*
X76700Y-46500D01*
X76685Y-46485D01*
X76671Y-46457D01*
X76671Y-46428D01*
X76685Y-46400D01*
X76700Y-46385D01*
X76728Y-46371D01*
X76800Y-46371D01*
X76842Y-46385D01*
X76971Y-46671D02*
X76971Y-46371D01*
X77071Y-46585D01*
X77171Y-46371D01*
X77171Y-46671D01*
X77471Y-46671D02*
X77300Y-46671D01*
X77385Y-46671D02*
X77385Y-46371D01*
X77357Y-46414D01*
X77328Y-46442D01*
X77300Y-46457D01*
X77585Y-46400D02*
X77600Y-46385D01*
X77628Y-46371D01*
X77700Y-46371D01*
X77728Y-46385D01*
X77742Y-46400D01*
X77757Y-46428D01*
X77757Y-46457D01*
X77742Y-46500D01*
X77571Y-46671D01*
X77757Y-46671D01*
X78042Y-46671D02*
X77871Y-46671D01*
X77957Y-46671D02*
X77957Y-46371D01*
X77928Y-46414D01*
X77900Y-46442D01*
X77871Y-46457D01*
X78228Y-46371D02*
X78257Y-46371D01*
X78285Y-46385D01*
X78300Y-46400D01*
X78314Y-46428D01*
X78328Y-46485D01*
X78328Y-46557D01*
X78314Y-46614D01*
X78300Y-46642D01*
X78285Y-46657D01*
X78257Y-46671D01*
X78228Y-46671D01*
X78200Y-46657D01*
X78185Y-46642D01*
X78171Y-46614D01*
X78157Y-46557D01*
X78157Y-46485D01*
X78171Y-46428D01*
X78185Y-46400D01*
X78200Y-46385D01*
X78228Y-46371D01*
X76957Y-46771D02*
X77057Y-47071D01*
X77157Y-46771D01*
X77385Y-47071D02*
X77385Y-46914D01*
X77371Y-46885D01*
X77342Y-46871D01*
X77285Y-46871D01*
X77257Y-46885D01*
X77385Y-47057D02*
X77357Y-47071D01*
X77285Y-47071D01*
X77257Y-47057D01*
X77242Y-47028D01*
X77242Y-47000D01*
X77257Y-46971D01*
X77285Y-46957D01*
X77357Y-46957D01*
X77385Y-46942D01*
X77571Y-47071D02*
X77542Y-47057D01*
X77528Y-47028D01*
X77528Y-46771D01*
X77728Y-46771D02*
X77728Y-46842D01*
X77657Y-46814D02*
X77728Y-46842D01*
X77800Y-46814D01*
X77685Y-46900D02*
X77728Y-46842D01*
X77771Y-46900D01*
X77957Y-46771D02*
X77957Y-46842D01*
X77885Y-46814D02*
X77957Y-46842D01*
X78028Y-46814D01*
X77914Y-46900D02*
X77957Y-46842D01*
X78000Y-46900D01*
X74421Y-46657D02*
X74464Y-46671D01*
X74535Y-46671D01*
X74564Y-46657D01*
X74578Y-46642D01*
X74592Y-46614D01*
X74592Y-46585D01*
X74578Y-46557D01*
X74564Y-46542D01*
X74535Y-46528D01*
X74478Y-46514D01*
X74450Y-46500D01*
X74435Y-46485D01*
X74421Y-46457D01*
X74421Y-46428D01*
X74435Y-46400D01*
X74450Y-46385D01*
X74478Y-46371D01*
X74550Y-46371D01*
X74592Y-46385D01*
X74721Y-46671D02*
X74721Y-46371D01*
X74821Y-46585D01*
X74921Y-46371D01*
X74921Y-46671D01*
X75221Y-46671D02*
X75050Y-46671D01*
X75135Y-46671D02*
X75135Y-46371D01*
X75107Y-46414D01*
X75078Y-46442D01*
X75050Y-46457D01*
X75335Y-46400D02*
X75350Y-46385D01*
X75378Y-46371D01*
X75450Y-46371D01*
X75478Y-46385D01*
X75492Y-46400D01*
X75507Y-46428D01*
X75507Y-46457D01*
X75492Y-46500D01*
X75321Y-46671D01*
X75507Y-46671D01*
X75792Y-46671D02*
X75621Y-46671D01*
X75707Y-46671D02*
X75707Y-46371D01*
X75678Y-46414D01*
X75650Y-46442D01*
X75621Y-46457D01*
X75978Y-46371D02*
X76007Y-46371D01*
X76035Y-46385D01*
X76050Y-46400D01*
X76064Y-46428D01*
X76078Y-46485D01*
X76078Y-46557D01*
X76064Y-46614D01*
X76050Y-46642D01*
X76035Y-46657D01*
X76007Y-46671D01*
X75978Y-46671D01*
X75950Y-46657D01*
X75935Y-46642D01*
X75921Y-46614D01*
X75907Y-46557D01*
X75907Y-46485D01*
X75921Y-46428D01*
X75935Y-46400D01*
X75950Y-46385D01*
X75978Y-46371D01*
X74707Y-46771D02*
X74807Y-47071D01*
X74907Y-46771D01*
X75135Y-47071D02*
X75135Y-46914D01*
X75121Y-46885D01*
X75092Y-46871D01*
X75035Y-46871D01*
X75007Y-46885D01*
X75135Y-47057D02*
X75107Y-47071D01*
X75035Y-47071D01*
X75007Y-47057D01*
X74992Y-47028D01*
X74992Y-47000D01*
X75007Y-46971D01*
X75035Y-46957D01*
X75107Y-46957D01*
X75135Y-46942D01*
X75321Y-47071D02*
X75292Y-47057D01*
X75278Y-47028D01*
X75278Y-46771D01*
X75478Y-46771D02*
X75478Y-46842D01*
X75407Y-46814D02*
X75478Y-46842D01*
X75550Y-46814D01*
X75435Y-46900D02*
X75478Y-46842D01*
X75521Y-46900D01*
X75707Y-46771D02*
X75707Y-46842D01*
X75635Y-46814D02*
X75707Y-46842D01*
X75778Y-46814D01*
X75664Y-46900D02*
X75707Y-46842D01*
X75750Y-46900D01*
G54D24*
X79195Y-45794D02*
X79204Y-45765D01*
X79204Y-45719D01*
X79195Y-45700D01*
X79185Y-45690D01*
X79167Y-45681D01*
X79148Y-45681D01*
X79129Y-45690D01*
X79120Y-45700D01*
X79110Y-45719D01*
X79101Y-45756D01*
X79092Y-45775D01*
X79082Y-45784D01*
X79064Y-45794D01*
X79045Y-45794D01*
X79026Y-45784D01*
X79017Y-45775D01*
X79007Y-45756D01*
X79007Y-45709D01*
X79017Y-45681D01*
X79204Y-45597D02*
X79007Y-45597D01*
X79148Y-45531D01*
X79007Y-45465D01*
X79204Y-45465D01*
X79007Y-45334D02*
X79007Y-45315D01*
X79017Y-45296D01*
X79026Y-45287D01*
X79045Y-45278D01*
X79082Y-45268D01*
X79129Y-45268D01*
X79167Y-45278D01*
X79185Y-45287D01*
X79195Y-45296D01*
X79204Y-45315D01*
X79204Y-45334D01*
X79195Y-45353D01*
X79185Y-45362D01*
X79167Y-45371D01*
X79129Y-45381D01*
X79082Y-45381D01*
X79045Y-45371D01*
X79026Y-45362D01*
X79017Y-45353D01*
X79007Y-45334D01*
X79092Y-45156D02*
X79082Y-45174D01*
X79073Y-45184D01*
X79054Y-45193D01*
X79045Y-45193D01*
X79026Y-45184D01*
X79017Y-45174D01*
X79007Y-45156D01*
X79007Y-45118D01*
X79017Y-45099D01*
X79026Y-45090D01*
X79045Y-45081D01*
X79054Y-45081D01*
X79073Y-45090D01*
X79082Y-45099D01*
X79092Y-45118D01*
X79092Y-45156D01*
X79101Y-45174D01*
X79110Y-45184D01*
X79129Y-45193D01*
X79167Y-45193D01*
X79185Y-45184D01*
X79195Y-45174D01*
X79204Y-45156D01*
X79204Y-45118D01*
X79195Y-45099D01*
X79185Y-45090D01*
X79167Y-45081D01*
X79129Y-45081D01*
X79110Y-45090D01*
X79101Y-45099D01*
X79092Y-45118D01*
X79007Y-44959D02*
X79007Y-44940D01*
X79017Y-44921D01*
X79026Y-44912D01*
X79045Y-44902D01*
X79082Y-44893D01*
X79129Y-44893D01*
X79167Y-44902D01*
X79185Y-44912D01*
X79195Y-44921D01*
X79204Y-44940D01*
X79204Y-44959D01*
X79195Y-44977D01*
X79185Y-44987D01*
X79167Y-44996D01*
X79129Y-45006D01*
X79082Y-45006D01*
X79045Y-44996D01*
X79026Y-44987D01*
X79017Y-44977D01*
X79007Y-44959D01*
X79007Y-44715D02*
X79007Y-44809D01*
X79101Y-44818D01*
X79092Y-44809D01*
X79082Y-44790D01*
X79082Y-44743D01*
X79092Y-44724D01*
X79101Y-44715D01*
X79120Y-44705D01*
X79167Y-44705D01*
X79185Y-44715D01*
X79195Y-44724D01*
X79204Y-44743D01*
X79204Y-44790D01*
X79195Y-44809D01*
X79185Y-44818D01*
X79282Y-45531D02*
X79479Y-45465D01*
X79282Y-45400D01*
X79479Y-45250D02*
X79376Y-45250D01*
X79357Y-45259D01*
X79348Y-45278D01*
X79348Y-45315D01*
X79357Y-45334D01*
X79470Y-45250D02*
X79479Y-45268D01*
X79479Y-45315D01*
X79470Y-45334D01*
X79451Y-45343D01*
X79432Y-45343D01*
X79414Y-45334D01*
X79404Y-45315D01*
X79404Y-45268D01*
X79395Y-45250D01*
X79479Y-45128D02*
X79470Y-45146D01*
X79451Y-45156D01*
X79282Y-45156D01*
X79282Y-45024D02*
X79329Y-45024D01*
X79310Y-45071D02*
X79329Y-45024D01*
X79310Y-44977D01*
X79367Y-45053D02*
X79329Y-45024D01*
X79367Y-44996D01*
X78195Y-45794D02*
X78204Y-45765D01*
X78204Y-45719D01*
X78195Y-45700D01*
X78185Y-45690D01*
X78167Y-45681D01*
X78148Y-45681D01*
X78129Y-45690D01*
X78120Y-45700D01*
X78110Y-45719D01*
X78101Y-45756D01*
X78092Y-45775D01*
X78082Y-45784D01*
X78064Y-45794D01*
X78045Y-45794D01*
X78026Y-45784D01*
X78017Y-45775D01*
X78007Y-45756D01*
X78007Y-45709D01*
X78017Y-45681D01*
X78204Y-45597D02*
X78007Y-45597D01*
X78148Y-45531D01*
X78007Y-45465D01*
X78204Y-45465D01*
X78007Y-45334D02*
X78007Y-45315D01*
X78017Y-45296D01*
X78026Y-45287D01*
X78045Y-45278D01*
X78082Y-45268D01*
X78129Y-45268D01*
X78167Y-45278D01*
X78185Y-45287D01*
X78195Y-45296D01*
X78204Y-45315D01*
X78204Y-45334D01*
X78195Y-45353D01*
X78185Y-45362D01*
X78167Y-45371D01*
X78129Y-45381D01*
X78082Y-45381D01*
X78045Y-45371D01*
X78026Y-45362D01*
X78017Y-45353D01*
X78007Y-45334D01*
X78092Y-45156D02*
X78082Y-45174D01*
X78073Y-45184D01*
X78054Y-45193D01*
X78045Y-45193D01*
X78026Y-45184D01*
X78017Y-45174D01*
X78007Y-45156D01*
X78007Y-45118D01*
X78017Y-45099D01*
X78026Y-45090D01*
X78045Y-45081D01*
X78054Y-45081D01*
X78073Y-45090D01*
X78082Y-45099D01*
X78092Y-45118D01*
X78092Y-45156D01*
X78101Y-45174D01*
X78110Y-45184D01*
X78129Y-45193D01*
X78167Y-45193D01*
X78185Y-45184D01*
X78195Y-45174D01*
X78204Y-45156D01*
X78204Y-45118D01*
X78195Y-45099D01*
X78185Y-45090D01*
X78167Y-45081D01*
X78129Y-45081D01*
X78110Y-45090D01*
X78101Y-45099D01*
X78092Y-45118D01*
X78007Y-44959D02*
X78007Y-44940D01*
X78017Y-44921D01*
X78026Y-44912D01*
X78045Y-44902D01*
X78082Y-44893D01*
X78129Y-44893D01*
X78167Y-44902D01*
X78185Y-44912D01*
X78195Y-44921D01*
X78204Y-44940D01*
X78204Y-44959D01*
X78195Y-44977D01*
X78185Y-44987D01*
X78167Y-44996D01*
X78129Y-45006D01*
X78082Y-45006D01*
X78045Y-44996D01*
X78026Y-44987D01*
X78017Y-44977D01*
X78007Y-44959D01*
X78007Y-44715D02*
X78007Y-44809D01*
X78101Y-44818D01*
X78092Y-44809D01*
X78082Y-44790D01*
X78082Y-44743D01*
X78092Y-44724D01*
X78101Y-44715D01*
X78120Y-44705D01*
X78167Y-44705D01*
X78185Y-44715D01*
X78195Y-44724D01*
X78204Y-44743D01*
X78204Y-44790D01*
X78195Y-44809D01*
X78185Y-44818D01*
X78282Y-45531D02*
X78479Y-45465D01*
X78282Y-45400D01*
X78479Y-45250D02*
X78376Y-45250D01*
X78357Y-45259D01*
X78348Y-45278D01*
X78348Y-45315D01*
X78357Y-45334D01*
X78470Y-45250D02*
X78479Y-45268D01*
X78479Y-45315D01*
X78470Y-45334D01*
X78451Y-45343D01*
X78432Y-45343D01*
X78414Y-45334D01*
X78404Y-45315D01*
X78404Y-45268D01*
X78395Y-45250D01*
X78479Y-45128D02*
X78470Y-45146D01*
X78451Y-45156D01*
X78282Y-45156D01*
X78282Y-45024D02*
X78329Y-45024D01*
X78310Y-45071D02*
X78329Y-45024D01*
X78310Y-44977D01*
X78367Y-45053D02*
X78329Y-45024D01*
X78367Y-44996D01*
X77195Y-45794D02*
X77204Y-45765D01*
X77204Y-45719D01*
X77195Y-45700D01*
X77185Y-45690D01*
X77167Y-45681D01*
X77148Y-45681D01*
X77129Y-45690D01*
X77120Y-45700D01*
X77110Y-45719D01*
X77101Y-45756D01*
X77092Y-45775D01*
X77082Y-45784D01*
X77064Y-45794D01*
X77045Y-45794D01*
X77026Y-45784D01*
X77017Y-45775D01*
X77007Y-45756D01*
X77007Y-45709D01*
X77017Y-45681D01*
X77204Y-45597D02*
X77007Y-45597D01*
X77148Y-45531D01*
X77007Y-45465D01*
X77204Y-45465D01*
X77007Y-45334D02*
X77007Y-45315D01*
X77017Y-45296D01*
X77026Y-45287D01*
X77045Y-45278D01*
X77082Y-45268D01*
X77129Y-45268D01*
X77167Y-45278D01*
X77185Y-45287D01*
X77195Y-45296D01*
X77204Y-45315D01*
X77204Y-45334D01*
X77195Y-45353D01*
X77185Y-45362D01*
X77167Y-45371D01*
X77129Y-45381D01*
X77082Y-45381D01*
X77045Y-45371D01*
X77026Y-45362D01*
X77017Y-45353D01*
X77007Y-45334D01*
X77092Y-45156D02*
X77082Y-45174D01*
X77073Y-45184D01*
X77054Y-45193D01*
X77045Y-45193D01*
X77026Y-45184D01*
X77017Y-45174D01*
X77007Y-45156D01*
X77007Y-45118D01*
X77017Y-45099D01*
X77026Y-45090D01*
X77045Y-45081D01*
X77054Y-45081D01*
X77073Y-45090D01*
X77082Y-45099D01*
X77092Y-45118D01*
X77092Y-45156D01*
X77101Y-45174D01*
X77110Y-45184D01*
X77129Y-45193D01*
X77167Y-45193D01*
X77185Y-45184D01*
X77195Y-45174D01*
X77204Y-45156D01*
X77204Y-45118D01*
X77195Y-45099D01*
X77185Y-45090D01*
X77167Y-45081D01*
X77129Y-45081D01*
X77110Y-45090D01*
X77101Y-45099D01*
X77092Y-45118D01*
X77007Y-44959D02*
X77007Y-44940D01*
X77017Y-44921D01*
X77026Y-44912D01*
X77045Y-44902D01*
X77082Y-44893D01*
X77129Y-44893D01*
X77167Y-44902D01*
X77185Y-44912D01*
X77195Y-44921D01*
X77204Y-44940D01*
X77204Y-44959D01*
X77195Y-44977D01*
X77185Y-44987D01*
X77167Y-44996D01*
X77129Y-45006D01*
X77082Y-45006D01*
X77045Y-44996D01*
X77026Y-44987D01*
X77017Y-44977D01*
X77007Y-44959D01*
X77007Y-44715D02*
X77007Y-44809D01*
X77101Y-44818D01*
X77092Y-44809D01*
X77082Y-44790D01*
X77082Y-44743D01*
X77092Y-44724D01*
X77101Y-44715D01*
X77120Y-44705D01*
X77167Y-44705D01*
X77185Y-44715D01*
X77195Y-44724D01*
X77204Y-44743D01*
X77204Y-44790D01*
X77195Y-44809D01*
X77185Y-44818D01*
X77282Y-45531D02*
X77479Y-45465D01*
X77282Y-45400D01*
X77479Y-45250D02*
X77376Y-45250D01*
X77357Y-45259D01*
X77348Y-45278D01*
X77348Y-45315D01*
X77357Y-45334D01*
X77470Y-45250D02*
X77479Y-45268D01*
X77479Y-45315D01*
X77470Y-45334D01*
X77451Y-45343D01*
X77432Y-45343D01*
X77414Y-45334D01*
X77404Y-45315D01*
X77404Y-45268D01*
X77395Y-45250D01*
X77479Y-45128D02*
X77470Y-45146D01*
X77451Y-45156D01*
X77282Y-45156D01*
X77282Y-45024D02*
X77329Y-45024D01*
X77310Y-45071D02*
X77329Y-45024D01*
X77310Y-44977D01*
X77367Y-45053D02*
X77329Y-45024D01*
X77367Y-44996D01*
X76445Y-45794D02*
X76454Y-45765D01*
X76454Y-45719D01*
X76445Y-45700D01*
X76435Y-45690D01*
X76417Y-45681D01*
X76398Y-45681D01*
X76379Y-45690D01*
X76370Y-45700D01*
X76360Y-45719D01*
X76351Y-45756D01*
X76342Y-45775D01*
X76332Y-45784D01*
X76314Y-45794D01*
X76295Y-45794D01*
X76276Y-45784D01*
X76267Y-45775D01*
X76257Y-45756D01*
X76257Y-45709D01*
X76267Y-45681D01*
X76454Y-45597D02*
X76257Y-45597D01*
X76398Y-45531D01*
X76257Y-45465D01*
X76454Y-45465D01*
X76257Y-45334D02*
X76257Y-45315D01*
X76267Y-45296D01*
X76276Y-45287D01*
X76295Y-45278D01*
X76332Y-45268D01*
X76379Y-45268D01*
X76417Y-45278D01*
X76435Y-45287D01*
X76445Y-45296D01*
X76454Y-45315D01*
X76454Y-45334D01*
X76445Y-45353D01*
X76435Y-45362D01*
X76417Y-45371D01*
X76379Y-45381D01*
X76332Y-45381D01*
X76295Y-45371D01*
X76276Y-45362D01*
X76267Y-45353D01*
X76257Y-45334D01*
X76342Y-45156D02*
X76332Y-45174D01*
X76323Y-45184D01*
X76304Y-45193D01*
X76295Y-45193D01*
X76276Y-45184D01*
X76267Y-45174D01*
X76257Y-45156D01*
X76257Y-45118D01*
X76267Y-45099D01*
X76276Y-45090D01*
X76295Y-45081D01*
X76304Y-45081D01*
X76323Y-45090D01*
X76332Y-45099D01*
X76342Y-45118D01*
X76342Y-45156D01*
X76351Y-45174D01*
X76360Y-45184D01*
X76379Y-45193D01*
X76417Y-45193D01*
X76435Y-45184D01*
X76445Y-45174D01*
X76454Y-45156D01*
X76454Y-45118D01*
X76445Y-45099D01*
X76435Y-45090D01*
X76417Y-45081D01*
X76379Y-45081D01*
X76360Y-45090D01*
X76351Y-45099D01*
X76342Y-45118D01*
X76257Y-44959D02*
X76257Y-44940D01*
X76267Y-44921D01*
X76276Y-44912D01*
X76295Y-44902D01*
X76332Y-44893D01*
X76379Y-44893D01*
X76417Y-44902D01*
X76435Y-44912D01*
X76445Y-44921D01*
X76454Y-44940D01*
X76454Y-44959D01*
X76445Y-44977D01*
X76435Y-44987D01*
X76417Y-44996D01*
X76379Y-45006D01*
X76332Y-45006D01*
X76295Y-44996D01*
X76276Y-44987D01*
X76267Y-44977D01*
X76257Y-44959D01*
X76257Y-44715D02*
X76257Y-44809D01*
X76351Y-44818D01*
X76342Y-44809D01*
X76332Y-44790D01*
X76332Y-44743D01*
X76342Y-44724D01*
X76351Y-44715D01*
X76370Y-44705D01*
X76417Y-44705D01*
X76435Y-44715D01*
X76445Y-44724D01*
X76454Y-44743D01*
X76454Y-44790D01*
X76445Y-44809D01*
X76435Y-44818D01*
X76532Y-45531D02*
X76729Y-45465D01*
X76532Y-45400D01*
X76729Y-45250D02*
X76626Y-45250D01*
X76607Y-45259D01*
X76598Y-45278D01*
X76598Y-45315D01*
X76607Y-45334D01*
X76720Y-45250D02*
X76729Y-45268D01*
X76729Y-45315D01*
X76720Y-45334D01*
X76701Y-45343D01*
X76682Y-45343D01*
X76664Y-45334D01*
X76654Y-45315D01*
X76654Y-45268D01*
X76645Y-45250D01*
X76729Y-45128D02*
X76720Y-45146D01*
X76701Y-45156D01*
X76532Y-45156D01*
X76532Y-45024D02*
X76579Y-45024D01*
X76560Y-45071D02*
X76579Y-45024D01*
X76560Y-44977D01*
X76617Y-45053D02*
X76579Y-45024D01*
X76617Y-44996D01*
X75695Y-45794D02*
X75704Y-45765D01*
X75704Y-45719D01*
X75695Y-45700D01*
X75685Y-45690D01*
X75667Y-45681D01*
X75648Y-45681D01*
X75629Y-45690D01*
X75620Y-45700D01*
X75610Y-45719D01*
X75601Y-45756D01*
X75592Y-45775D01*
X75582Y-45784D01*
X75564Y-45794D01*
X75545Y-45794D01*
X75526Y-45784D01*
X75517Y-45775D01*
X75507Y-45756D01*
X75507Y-45709D01*
X75517Y-45681D01*
X75704Y-45597D02*
X75507Y-45597D01*
X75648Y-45531D01*
X75507Y-45465D01*
X75704Y-45465D01*
X75507Y-45334D02*
X75507Y-45315D01*
X75517Y-45296D01*
X75526Y-45287D01*
X75545Y-45278D01*
X75582Y-45268D01*
X75629Y-45268D01*
X75667Y-45278D01*
X75685Y-45287D01*
X75695Y-45296D01*
X75704Y-45315D01*
X75704Y-45334D01*
X75695Y-45353D01*
X75685Y-45362D01*
X75667Y-45371D01*
X75629Y-45381D01*
X75582Y-45381D01*
X75545Y-45371D01*
X75526Y-45362D01*
X75517Y-45353D01*
X75507Y-45334D01*
X75592Y-45156D02*
X75582Y-45174D01*
X75573Y-45184D01*
X75554Y-45193D01*
X75545Y-45193D01*
X75526Y-45184D01*
X75517Y-45174D01*
X75507Y-45156D01*
X75507Y-45118D01*
X75517Y-45099D01*
X75526Y-45090D01*
X75545Y-45081D01*
X75554Y-45081D01*
X75573Y-45090D01*
X75582Y-45099D01*
X75592Y-45118D01*
X75592Y-45156D01*
X75601Y-45174D01*
X75610Y-45184D01*
X75629Y-45193D01*
X75667Y-45193D01*
X75685Y-45184D01*
X75695Y-45174D01*
X75704Y-45156D01*
X75704Y-45118D01*
X75695Y-45099D01*
X75685Y-45090D01*
X75667Y-45081D01*
X75629Y-45081D01*
X75610Y-45090D01*
X75601Y-45099D01*
X75592Y-45118D01*
X75507Y-44959D02*
X75507Y-44940D01*
X75517Y-44921D01*
X75526Y-44912D01*
X75545Y-44902D01*
X75582Y-44893D01*
X75629Y-44893D01*
X75667Y-44902D01*
X75685Y-44912D01*
X75695Y-44921D01*
X75704Y-44940D01*
X75704Y-44959D01*
X75695Y-44977D01*
X75685Y-44987D01*
X75667Y-44996D01*
X75629Y-45006D01*
X75582Y-45006D01*
X75545Y-44996D01*
X75526Y-44987D01*
X75517Y-44977D01*
X75507Y-44959D01*
X75507Y-44715D02*
X75507Y-44809D01*
X75601Y-44818D01*
X75592Y-44809D01*
X75582Y-44790D01*
X75582Y-44743D01*
X75592Y-44724D01*
X75601Y-44715D01*
X75620Y-44705D01*
X75667Y-44705D01*
X75685Y-44715D01*
X75695Y-44724D01*
X75704Y-44743D01*
X75704Y-44790D01*
X75695Y-44809D01*
X75685Y-44818D01*
X75782Y-45531D02*
X75979Y-45465D01*
X75782Y-45400D01*
X75979Y-45250D02*
X75876Y-45250D01*
X75857Y-45259D01*
X75848Y-45278D01*
X75848Y-45315D01*
X75857Y-45334D01*
X75970Y-45250D02*
X75979Y-45268D01*
X75979Y-45315D01*
X75970Y-45334D01*
X75951Y-45343D01*
X75932Y-45343D01*
X75914Y-45334D01*
X75904Y-45315D01*
X75904Y-45268D01*
X75895Y-45250D01*
X75979Y-45128D02*
X75970Y-45146D01*
X75951Y-45156D01*
X75782Y-45156D01*
X75782Y-45024D02*
X75829Y-45024D01*
X75810Y-45071D02*
X75829Y-45024D01*
X75810Y-44977D01*
X75867Y-45053D02*
X75829Y-45024D01*
X75867Y-44996D01*
X74945Y-45794D02*
X74954Y-45765D01*
X74954Y-45719D01*
X74945Y-45700D01*
X74935Y-45690D01*
X74917Y-45681D01*
X74898Y-45681D01*
X74879Y-45690D01*
X74870Y-45700D01*
X74860Y-45719D01*
X74851Y-45756D01*
X74842Y-45775D01*
X74832Y-45784D01*
X74814Y-45794D01*
X74795Y-45794D01*
X74776Y-45784D01*
X74767Y-45775D01*
X74757Y-45756D01*
X74757Y-45709D01*
X74767Y-45681D01*
X74954Y-45597D02*
X74757Y-45597D01*
X74898Y-45531D01*
X74757Y-45465D01*
X74954Y-45465D01*
X74757Y-45334D02*
X74757Y-45315D01*
X74767Y-45296D01*
X74776Y-45287D01*
X74795Y-45278D01*
X74832Y-45268D01*
X74879Y-45268D01*
X74917Y-45278D01*
X74935Y-45287D01*
X74945Y-45296D01*
X74954Y-45315D01*
X74954Y-45334D01*
X74945Y-45353D01*
X74935Y-45362D01*
X74917Y-45371D01*
X74879Y-45381D01*
X74832Y-45381D01*
X74795Y-45371D01*
X74776Y-45362D01*
X74767Y-45353D01*
X74757Y-45334D01*
X74842Y-45156D02*
X74832Y-45174D01*
X74823Y-45184D01*
X74804Y-45193D01*
X74795Y-45193D01*
X74776Y-45184D01*
X74767Y-45174D01*
X74757Y-45156D01*
X74757Y-45118D01*
X74767Y-45099D01*
X74776Y-45090D01*
X74795Y-45081D01*
X74804Y-45081D01*
X74823Y-45090D01*
X74832Y-45099D01*
X74842Y-45118D01*
X74842Y-45156D01*
X74851Y-45174D01*
X74860Y-45184D01*
X74879Y-45193D01*
X74917Y-45193D01*
X74935Y-45184D01*
X74945Y-45174D01*
X74954Y-45156D01*
X74954Y-45118D01*
X74945Y-45099D01*
X74935Y-45090D01*
X74917Y-45081D01*
X74879Y-45081D01*
X74860Y-45090D01*
X74851Y-45099D01*
X74842Y-45118D01*
X74757Y-44959D02*
X74757Y-44940D01*
X74767Y-44921D01*
X74776Y-44912D01*
X74795Y-44902D01*
X74832Y-44893D01*
X74879Y-44893D01*
X74917Y-44902D01*
X74935Y-44912D01*
X74945Y-44921D01*
X74954Y-44940D01*
X74954Y-44959D01*
X74945Y-44977D01*
X74935Y-44987D01*
X74917Y-44996D01*
X74879Y-45006D01*
X74832Y-45006D01*
X74795Y-44996D01*
X74776Y-44987D01*
X74767Y-44977D01*
X74757Y-44959D01*
X74757Y-44715D02*
X74757Y-44809D01*
X74851Y-44818D01*
X74842Y-44809D01*
X74832Y-44790D01*
X74832Y-44743D01*
X74842Y-44724D01*
X74851Y-44715D01*
X74870Y-44705D01*
X74917Y-44705D01*
X74935Y-44715D01*
X74945Y-44724D01*
X74954Y-44743D01*
X74954Y-44790D01*
X74945Y-44809D01*
X74935Y-44818D01*
X75032Y-45531D02*
X75229Y-45465D01*
X75032Y-45400D01*
X75229Y-45250D02*
X75126Y-45250D01*
X75107Y-45259D01*
X75098Y-45278D01*
X75098Y-45315D01*
X75107Y-45334D01*
X75220Y-45250D02*
X75229Y-45268D01*
X75229Y-45315D01*
X75220Y-45334D01*
X75201Y-45343D01*
X75182Y-45343D01*
X75164Y-45334D01*
X75154Y-45315D01*
X75154Y-45268D01*
X75145Y-45250D01*
X75229Y-45128D02*
X75220Y-45146D01*
X75201Y-45156D01*
X75032Y-45156D01*
X75032Y-45024D02*
X75079Y-45024D01*
X75060Y-45071D02*
X75079Y-45024D01*
X75060Y-44977D01*
X75117Y-45053D02*
X75079Y-45024D01*
X75117Y-44996D01*
G54D23*
X79571Y-44247D02*
X79580Y-44221D01*
X79580Y-44178D01*
X79571Y-44161D01*
X79561Y-44152D01*
X79542Y-44144D01*
X79523Y-44144D01*
X79504Y-44152D01*
X79495Y-44161D01*
X79485Y-44178D01*
X79476Y-44212D01*
X79466Y-44230D01*
X79457Y-44238D01*
X79438Y-44247D01*
X79419Y-44247D01*
X79400Y-44238D01*
X79390Y-44230D01*
X79380Y-44212D01*
X79380Y-44170D01*
X79390Y-44144D01*
X79580Y-44067D02*
X79380Y-44067D01*
X79523Y-44007D01*
X79380Y-43947D01*
X79580Y-43947D01*
X79380Y-43827D02*
X79380Y-43810D01*
X79390Y-43792D01*
X79400Y-43784D01*
X79419Y-43775D01*
X79457Y-43767D01*
X79504Y-43767D01*
X79542Y-43775D01*
X79561Y-43784D01*
X79571Y-43792D01*
X79580Y-43810D01*
X79580Y-43827D01*
X79571Y-43844D01*
X79561Y-43852D01*
X79542Y-43861D01*
X79504Y-43870D01*
X79457Y-43870D01*
X79419Y-43861D01*
X79400Y-43852D01*
X79390Y-43844D01*
X79380Y-43827D01*
X79380Y-43612D02*
X79380Y-43647D01*
X79390Y-43664D01*
X79400Y-43672D01*
X79428Y-43690D01*
X79466Y-43698D01*
X79542Y-43698D01*
X79561Y-43690D01*
X79571Y-43681D01*
X79580Y-43664D01*
X79580Y-43630D01*
X79571Y-43612D01*
X79561Y-43604D01*
X79542Y-43595D01*
X79495Y-43595D01*
X79476Y-43604D01*
X79466Y-43612D01*
X79457Y-43630D01*
X79457Y-43664D01*
X79466Y-43681D01*
X79476Y-43690D01*
X79495Y-43698D01*
X79380Y-43484D02*
X79380Y-43467D01*
X79390Y-43449D01*
X79400Y-43441D01*
X79419Y-43432D01*
X79457Y-43424D01*
X79504Y-43424D01*
X79542Y-43432D01*
X79561Y-43441D01*
X79571Y-43449D01*
X79580Y-43467D01*
X79580Y-43484D01*
X79571Y-43501D01*
X79561Y-43509D01*
X79542Y-43518D01*
X79504Y-43527D01*
X79457Y-43527D01*
X79419Y-43518D01*
X79400Y-43509D01*
X79390Y-43501D01*
X79380Y-43484D01*
X79380Y-43364D02*
X79380Y-43252D01*
X79457Y-43312D01*
X79457Y-43287D01*
X79466Y-43269D01*
X79476Y-43261D01*
X79495Y-43252D01*
X79542Y-43252D01*
X79561Y-43261D01*
X79571Y-43269D01*
X79580Y-43287D01*
X79580Y-43338D01*
X79571Y-43355D01*
X79561Y-43364D01*
X78821Y-44247D02*
X78830Y-44221D01*
X78830Y-44178D01*
X78821Y-44161D01*
X78811Y-44152D01*
X78792Y-44144D01*
X78773Y-44144D01*
X78754Y-44152D01*
X78745Y-44161D01*
X78735Y-44178D01*
X78726Y-44212D01*
X78716Y-44230D01*
X78707Y-44238D01*
X78688Y-44247D01*
X78669Y-44247D01*
X78650Y-44238D01*
X78640Y-44230D01*
X78630Y-44212D01*
X78630Y-44170D01*
X78640Y-44144D01*
X78830Y-44067D02*
X78630Y-44067D01*
X78773Y-44007D01*
X78630Y-43947D01*
X78830Y-43947D01*
X78630Y-43827D02*
X78630Y-43810D01*
X78640Y-43792D01*
X78650Y-43784D01*
X78669Y-43775D01*
X78707Y-43767D01*
X78754Y-43767D01*
X78792Y-43775D01*
X78811Y-43784D01*
X78821Y-43792D01*
X78830Y-43810D01*
X78830Y-43827D01*
X78821Y-43844D01*
X78811Y-43852D01*
X78792Y-43861D01*
X78754Y-43870D01*
X78707Y-43870D01*
X78669Y-43861D01*
X78650Y-43852D01*
X78640Y-43844D01*
X78630Y-43827D01*
X78630Y-43612D02*
X78630Y-43647D01*
X78640Y-43664D01*
X78650Y-43672D01*
X78678Y-43690D01*
X78716Y-43698D01*
X78792Y-43698D01*
X78811Y-43690D01*
X78821Y-43681D01*
X78830Y-43664D01*
X78830Y-43630D01*
X78821Y-43612D01*
X78811Y-43604D01*
X78792Y-43595D01*
X78745Y-43595D01*
X78726Y-43604D01*
X78716Y-43612D01*
X78707Y-43630D01*
X78707Y-43664D01*
X78716Y-43681D01*
X78726Y-43690D01*
X78745Y-43698D01*
X78630Y-43484D02*
X78630Y-43467D01*
X78640Y-43449D01*
X78650Y-43441D01*
X78669Y-43432D01*
X78707Y-43424D01*
X78754Y-43424D01*
X78792Y-43432D01*
X78811Y-43441D01*
X78821Y-43449D01*
X78830Y-43467D01*
X78830Y-43484D01*
X78821Y-43501D01*
X78811Y-43509D01*
X78792Y-43518D01*
X78754Y-43527D01*
X78707Y-43527D01*
X78669Y-43518D01*
X78650Y-43509D01*
X78640Y-43501D01*
X78630Y-43484D01*
X78630Y-43364D02*
X78630Y-43252D01*
X78707Y-43312D01*
X78707Y-43287D01*
X78716Y-43269D01*
X78726Y-43261D01*
X78745Y-43252D01*
X78792Y-43252D01*
X78811Y-43261D01*
X78821Y-43269D01*
X78830Y-43287D01*
X78830Y-43338D01*
X78821Y-43355D01*
X78811Y-43364D01*
X78071Y-44247D02*
X78080Y-44221D01*
X78080Y-44178D01*
X78071Y-44161D01*
X78061Y-44152D01*
X78042Y-44144D01*
X78023Y-44144D01*
X78004Y-44152D01*
X77995Y-44161D01*
X77985Y-44178D01*
X77976Y-44212D01*
X77966Y-44230D01*
X77957Y-44238D01*
X77938Y-44247D01*
X77919Y-44247D01*
X77900Y-44238D01*
X77890Y-44230D01*
X77880Y-44212D01*
X77880Y-44170D01*
X77890Y-44144D01*
X78080Y-44067D02*
X77880Y-44067D01*
X78023Y-44007D01*
X77880Y-43947D01*
X78080Y-43947D01*
X77880Y-43827D02*
X77880Y-43810D01*
X77890Y-43792D01*
X77900Y-43784D01*
X77919Y-43775D01*
X77957Y-43767D01*
X78004Y-43767D01*
X78042Y-43775D01*
X78061Y-43784D01*
X78071Y-43792D01*
X78080Y-43810D01*
X78080Y-43827D01*
X78071Y-43844D01*
X78061Y-43852D01*
X78042Y-43861D01*
X78004Y-43870D01*
X77957Y-43870D01*
X77919Y-43861D01*
X77900Y-43852D01*
X77890Y-43844D01*
X77880Y-43827D01*
X77880Y-43612D02*
X77880Y-43647D01*
X77890Y-43664D01*
X77900Y-43672D01*
X77928Y-43690D01*
X77966Y-43698D01*
X78042Y-43698D01*
X78061Y-43690D01*
X78071Y-43681D01*
X78080Y-43664D01*
X78080Y-43630D01*
X78071Y-43612D01*
X78061Y-43604D01*
X78042Y-43595D01*
X77995Y-43595D01*
X77976Y-43604D01*
X77966Y-43612D01*
X77957Y-43630D01*
X77957Y-43664D01*
X77966Y-43681D01*
X77976Y-43690D01*
X77995Y-43698D01*
X77880Y-43484D02*
X77880Y-43467D01*
X77890Y-43449D01*
X77900Y-43441D01*
X77919Y-43432D01*
X77957Y-43424D01*
X78004Y-43424D01*
X78042Y-43432D01*
X78061Y-43441D01*
X78071Y-43449D01*
X78080Y-43467D01*
X78080Y-43484D01*
X78071Y-43501D01*
X78061Y-43509D01*
X78042Y-43518D01*
X78004Y-43527D01*
X77957Y-43527D01*
X77919Y-43518D01*
X77900Y-43509D01*
X77890Y-43501D01*
X77880Y-43484D01*
X77880Y-43364D02*
X77880Y-43252D01*
X77957Y-43312D01*
X77957Y-43287D01*
X77966Y-43269D01*
X77976Y-43261D01*
X77995Y-43252D01*
X78042Y-43252D01*
X78061Y-43261D01*
X78071Y-43269D01*
X78080Y-43287D01*
X78080Y-43338D01*
X78071Y-43355D01*
X78061Y-43364D01*
G54D15*
X76918Y-43799D02*
X76935Y-43805D01*
X76964Y-43805D01*
X76975Y-43799D01*
X76981Y-43792D01*
X76987Y-43779D01*
X76987Y-43766D01*
X76981Y-43753D01*
X76975Y-43746D01*
X76964Y-43740D01*
X76941Y-43733D01*
X76930Y-43727D01*
X76924Y-43720D01*
X76918Y-43707D01*
X76918Y-43694D01*
X76924Y-43681D01*
X76930Y-43674D01*
X76941Y-43667D01*
X76970Y-43667D01*
X76987Y-43674D01*
X77038Y-43805D02*
X77038Y-43667D01*
X77078Y-43766D01*
X77118Y-43667D01*
X77118Y-43805D01*
X77198Y-43667D02*
X77210Y-43667D01*
X77221Y-43674D01*
X77227Y-43681D01*
X77232Y-43694D01*
X77238Y-43720D01*
X77238Y-43753D01*
X77232Y-43779D01*
X77227Y-43792D01*
X77221Y-43799D01*
X77210Y-43805D01*
X77198Y-43805D01*
X77187Y-43799D01*
X77181Y-43792D01*
X77175Y-43779D01*
X77170Y-43753D01*
X77170Y-43720D01*
X77175Y-43694D01*
X77181Y-43681D01*
X77187Y-43674D01*
X77198Y-43667D01*
X77341Y-43713D02*
X77341Y-43805D01*
X77312Y-43661D02*
X77284Y-43759D01*
X77358Y-43759D01*
X77427Y-43667D02*
X77438Y-43667D01*
X77450Y-43674D01*
X77455Y-43681D01*
X77461Y-43694D01*
X77467Y-43720D01*
X77467Y-43753D01*
X77461Y-43779D01*
X77455Y-43792D01*
X77450Y-43799D01*
X77438Y-43805D01*
X77427Y-43805D01*
X77415Y-43799D01*
X77410Y-43792D01*
X77404Y-43779D01*
X77398Y-43753D01*
X77398Y-43720D01*
X77404Y-43694D01*
X77410Y-43681D01*
X77415Y-43674D01*
X77427Y-43667D01*
X77512Y-43681D02*
X77518Y-43674D01*
X77530Y-43667D01*
X77558Y-43667D01*
X77570Y-43674D01*
X77575Y-43681D01*
X77581Y-43694D01*
X77581Y-43707D01*
X77575Y-43727D01*
X77507Y-43805D01*
X77581Y-43805D01*
X76918Y-43299D02*
X76935Y-43305D01*
X76964Y-43305D01*
X76975Y-43299D01*
X76981Y-43292D01*
X76987Y-43279D01*
X76987Y-43266D01*
X76981Y-43253D01*
X76975Y-43246D01*
X76964Y-43240D01*
X76941Y-43233D01*
X76930Y-43227D01*
X76924Y-43220D01*
X76918Y-43207D01*
X76918Y-43194D01*
X76924Y-43181D01*
X76930Y-43174D01*
X76941Y-43167D01*
X76970Y-43167D01*
X76987Y-43174D01*
X77038Y-43305D02*
X77038Y-43167D01*
X77078Y-43266D01*
X77118Y-43167D01*
X77118Y-43305D01*
X77198Y-43167D02*
X77210Y-43167D01*
X77221Y-43174D01*
X77227Y-43181D01*
X77232Y-43194D01*
X77238Y-43220D01*
X77238Y-43253D01*
X77232Y-43279D01*
X77227Y-43292D01*
X77221Y-43299D01*
X77210Y-43305D01*
X77198Y-43305D01*
X77187Y-43299D01*
X77181Y-43292D01*
X77175Y-43279D01*
X77170Y-43253D01*
X77170Y-43220D01*
X77175Y-43194D01*
X77181Y-43181D01*
X77187Y-43174D01*
X77198Y-43167D01*
X77341Y-43213D02*
X77341Y-43305D01*
X77312Y-43161D02*
X77284Y-43259D01*
X77358Y-43259D01*
X77427Y-43167D02*
X77438Y-43167D01*
X77450Y-43174D01*
X77455Y-43181D01*
X77461Y-43194D01*
X77467Y-43220D01*
X77467Y-43253D01*
X77461Y-43279D01*
X77455Y-43292D01*
X77450Y-43299D01*
X77438Y-43305D01*
X77427Y-43305D01*
X77415Y-43299D01*
X77410Y-43292D01*
X77404Y-43279D01*
X77398Y-43253D01*
X77398Y-43220D01*
X77404Y-43194D01*
X77410Y-43181D01*
X77415Y-43174D01*
X77427Y-43167D01*
X77512Y-43181D02*
X77518Y-43174D01*
X77530Y-43167D01*
X77558Y-43167D01*
X77570Y-43174D01*
X77575Y-43181D01*
X77581Y-43194D01*
X77581Y-43207D01*
X77575Y-43227D01*
X77507Y-43305D01*
X77581Y-43305D01*
X76168Y-44299D02*
X76185Y-44305D01*
X76214Y-44305D01*
X76225Y-44299D01*
X76231Y-44292D01*
X76237Y-44279D01*
X76237Y-44266D01*
X76231Y-44253D01*
X76225Y-44246D01*
X76214Y-44240D01*
X76191Y-44233D01*
X76180Y-44227D01*
X76174Y-44220D01*
X76168Y-44207D01*
X76168Y-44194D01*
X76174Y-44181D01*
X76180Y-44174D01*
X76191Y-44167D01*
X76220Y-44167D01*
X76237Y-44174D01*
X76288Y-44305D02*
X76288Y-44167D01*
X76328Y-44266D01*
X76368Y-44167D01*
X76368Y-44305D01*
X76448Y-44167D02*
X76460Y-44167D01*
X76471Y-44174D01*
X76477Y-44181D01*
X76482Y-44194D01*
X76488Y-44220D01*
X76488Y-44253D01*
X76482Y-44279D01*
X76477Y-44292D01*
X76471Y-44299D01*
X76460Y-44305D01*
X76448Y-44305D01*
X76437Y-44299D01*
X76431Y-44292D01*
X76425Y-44279D01*
X76420Y-44253D01*
X76420Y-44220D01*
X76425Y-44194D01*
X76431Y-44181D01*
X76437Y-44174D01*
X76448Y-44167D01*
X76591Y-44213D02*
X76591Y-44305D01*
X76562Y-44161D02*
X76534Y-44259D01*
X76608Y-44259D01*
X76677Y-44167D02*
X76688Y-44167D01*
X76700Y-44174D01*
X76705Y-44181D01*
X76711Y-44194D01*
X76717Y-44220D01*
X76717Y-44253D01*
X76711Y-44279D01*
X76705Y-44292D01*
X76700Y-44299D01*
X76688Y-44305D01*
X76677Y-44305D01*
X76665Y-44299D01*
X76660Y-44292D01*
X76654Y-44279D01*
X76648Y-44253D01*
X76648Y-44220D01*
X76654Y-44194D01*
X76660Y-44181D01*
X76665Y-44174D01*
X76677Y-44167D01*
X76762Y-44181D02*
X76768Y-44174D01*
X76780Y-44167D01*
X76808Y-44167D01*
X76820Y-44174D01*
X76825Y-44181D01*
X76831Y-44194D01*
X76831Y-44207D01*
X76825Y-44227D01*
X76757Y-44305D01*
X76831Y-44305D01*
X76168Y-43799D02*
X76185Y-43805D01*
X76214Y-43805D01*
X76225Y-43799D01*
X76231Y-43792D01*
X76237Y-43779D01*
X76237Y-43766D01*
X76231Y-43753D01*
X76225Y-43746D01*
X76214Y-43740D01*
X76191Y-43733D01*
X76180Y-43727D01*
X76174Y-43720D01*
X76168Y-43707D01*
X76168Y-43694D01*
X76174Y-43681D01*
X76180Y-43674D01*
X76191Y-43667D01*
X76220Y-43667D01*
X76237Y-43674D01*
X76288Y-43805D02*
X76288Y-43667D01*
X76328Y-43766D01*
X76368Y-43667D01*
X76368Y-43805D01*
X76448Y-43667D02*
X76460Y-43667D01*
X76471Y-43674D01*
X76477Y-43681D01*
X76482Y-43694D01*
X76488Y-43720D01*
X76488Y-43753D01*
X76482Y-43779D01*
X76477Y-43792D01*
X76471Y-43799D01*
X76460Y-43805D01*
X76448Y-43805D01*
X76437Y-43799D01*
X76431Y-43792D01*
X76425Y-43779D01*
X76420Y-43753D01*
X76420Y-43720D01*
X76425Y-43694D01*
X76431Y-43681D01*
X76437Y-43674D01*
X76448Y-43667D01*
X76591Y-43713D02*
X76591Y-43805D01*
X76562Y-43661D02*
X76534Y-43759D01*
X76608Y-43759D01*
X76677Y-43667D02*
X76688Y-43667D01*
X76700Y-43674D01*
X76705Y-43681D01*
X76711Y-43694D01*
X76717Y-43720D01*
X76717Y-43753D01*
X76711Y-43779D01*
X76705Y-43792D01*
X76700Y-43799D01*
X76688Y-43805D01*
X76677Y-43805D01*
X76665Y-43799D01*
X76660Y-43792D01*
X76654Y-43779D01*
X76648Y-43753D01*
X76648Y-43720D01*
X76654Y-43694D01*
X76660Y-43681D01*
X76665Y-43674D01*
X76677Y-43667D01*
X76762Y-43681D02*
X76768Y-43674D01*
X76780Y-43667D01*
X76808Y-43667D01*
X76820Y-43674D01*
X76825Y-43681D01*
X76831Y-43694D01*
X76831Y-43707D01*
X76825Y-43727D01*
X76757Y-43805D01*
X76831Y-43805D01*
X76168Y-43299D02*
X76185Y-43305D01*
X76214Y-43305D01*
X76225Y-43299D01*
X76231Y-43292D01*
X76237Y-43279D01*
X76237Y-43266D01*
X76231Y-43253D01*
X76225Y-43246D01*
X76214Y-43240D01*
X76191Y-43233D01*
X76180Y-43227D01*
X76174Y-43220D01*
X76168Y-43207D01*
X76168Y-43194D01*
X76174Y-43181D01*
X76180Y-43174D01*
X76191Y-43167D01*
X76220Y-43167D01*
X76237Y-43174D01*
X76288Y-43305D02*
X76288Y-43167D01*
X76328Y-43266D01*
X76368Y-43167D01*
X76368Y-43305D01*
X76448Y-43167D02*
X76460Y-43167D01*
X76471Y-43174D01*
X76477Y-43181D01*
X76482Y-43194D01*
X76488Y-43220D01*
X76488Y-43253D01*
X76482Y-43279D01*
X76477Y-43292D01*
X76471Y-43299D01*
X76460Y-43305D01*
X76448Y-43305D01*
X76437Y-43299D01*
X76431Y-43292D01*
X76425Y-43279D01*
X76420Y-43253D01*
X76420Y-43220D01*
X76425Y-43194D01*
X76431Y-43181D01*
X76437Y-43174D01*
X76448Y-43167D01*
X76591Y-43213D02*
X76591Y-43305D01*
X76562Y-43161D02*
X76534Y-43259D01*
X76608Y-43259D01*
X76677Y-43167D02*
X76688Y-43167D01*
X76700Y-43174D01*
X76705Y-43181D01*
X76711Y-43194D01*
X76717Y-43220D01*
X76717Y-43253D01*
X76711Y-43279D01*
X76705Y-43292D01*
X76700Y-43299D01*
X76688Y-43305D01*
X76677Y-43305D01*
X76665Y-43299D01*
X76660Y-43292D01*
X76654Y-43279D01*
X76648Y-43253D01*
X76648Y-43220D01*
X76654Y-43194D01*
X76660Y-43181D01*
X76665Y-43174D01*
X76677Y-43167D01*
X76762Y-43181D02*
X76768Y-43174D01*
X76780Y-43167D01*
X76808Y-43167D01*
X76820Y-43174D01*
X76825Y-43181D01*
X76831Y-43194D01*
X76831Y-43207D01*
X76825Y-43227D01*
X76757Y-43305D01*
X76831Y-43305D01*
G54D22*
X75278Y-44271D02*
X75281Y-44260D01*
X75281Y-44241D01*
X75278Y-44234D01*
X75274Y-44230D01*
X75266Y-44226D01*
X75259Y-44226D01*
X75251Y-44230D01*
X75248Y-44234D01*
X75244Y-44241D01*
X75240Y-44256D01*
X75236Y-44264D01*
X75233Y-44268D01*
X75225Y-44271D01*
X75218Y-44271D01*
X75210Y-44268D01*
X75206Y-44264D01*
X75203Y-44256D01*
X75203Y-44238D01*
X75206Y-44226D01*
X75281Y-44193D02*
X75203Y-44193D01*
X75259Y-44166D01*
X75203Y-44140D01*
X75281Y-44140D01*
X75203Y-44088D02*
X75203Y-44080D01*
X75206Y-44073D01*
X75210Y-44069D01*
X75218Y-44065D01*
X75233Y-44061D01*
X75251Y-44061D01*
X75266Y-44065D01*
X75274Y-44069D01*
X75278Y-44073D01*
X75281Y-44080D01*
X75281Y-44088D01*
X75278Y-44095D01*
X75274Y-44099D01*
X75266Y-44103D01*
X75251Y-44106D01*
X75233Y-44106D01*
X75218Y-44103D01*
X75210Y-44099D01*
X75206Y-44095D01*
X75203Y-44088D01*
X75210Y-44031D02*
X75206Y-44028D01*
X75203Y-44020D01*
X75203Y-44001D01*
X75206Y-43994D01*
X75210Y-43990D01*
X75218Y-43986D01*
X75225Y-43986D01*
X75236Y-43990D01*
X75281Y-44035D01*
X75281Y-43986D01*
X75203Y-43938D02*
X75203Y-43930D01*
X75206Y-43923D01*
X75210Y-43919D01*
X75218Y-43915D01*
X75233Y-43911D01*
X75251Y-43911D01*
X75266Y-43915D01*
X75274Y-43919D01*
X75278Y-43923D01*
X75281Y-43930D01*
X75281Y-43938D01*
X75278Y-43945D01*
X75274Y-43949D01*
X75266Y-43953D01*
X75251Y-43956D01*
X75233Y-43956D01*
X75218Y-43953D01*
X75210Y-43949D01*
X75206Y-43945D01*
X75203Y-43938D01*
X75281Y-43836D02*
X75281Y-43881D01*
X75281Y-43859D02*
X75203Y-43859D01*
X75214Y-43866D01*
X75221Y-43874D01*
X75225Y-43881D01*
X75289Y-43821D02*
X75289Y-43761D01*
X75281Y-43743D02*
X75229Y-43743D01*
X75244Y-43743D02*
X75236Y-43739D01*
X75233Y-43735D01*
X75229Y-43728D01*
X75229Y-43720D01*
X75778Y-44271D02*
X75781Y-44260D01*
X75781Y-44241D01*
X75778Y-44234D01*
X75774Y-44230D01*
X75766Y-44226D01*
X75759Y-44226D01*
X75751Y-44230D01*
X75748Y-44234D01*
X75744Y-44241D01*
X75740Y-44256D01*
X75736Y-44264D01*
X75733Y-44268D01*
X75725Y-44271D01*
X75718Y-44271D01*
X75710Y-44268D01*
X75706Y-44264D01*
X75703Y-44256D01*
X75703Y-44238D01*
X75706Y-44226D01*
X75781Y-44193D02*
X75703Y-44193D01*
X75759Y-44166D01*
X75703Y-44140D01*
X75781Y-44140D01*
X75703Y-44088D02*
X75703Y-44080D01*
X75706Y-44073D01*
X75710Y-44069D01*
X75718Y-44065D01*
X75733Y-44061D01*
X75751Y-44061D01*
X75766Y-44065D01*
X75774Y-44069D01*
X75778Y-44073D01*
X75781Y-44080D01*
X75781Y-44088D01*
X75778Y-44095D01*
X75774Y-44099D01*
X75766Y-44103D01*
X75751Y-44106D01*
X75733Y-44106D01*
X75718Y-44103D01*
X75710Y-44099D01*
X75706Y-44095D01*
X75703Y-44088D01*
X75710Y-44031D02*
X75706Y-44028D01*
X75703Y-44020D01*
X75703Y-44001D01*
X75706Y-43994D01*
X75710Y-43990D01*
X75718Y-43986D01*
X75725Y-43986D01*
X75736Y-43990D01*
X75781Y-44035D01*
X75781Y-43986D01*
X75703Y-43938D02*
X75703Y-43930D01*
X75706Y-43923D01*
X75710Y-43919D01*
X75718Y-43915D01*
X75733Y-43911D01*
X75751Y-43911D01*
X75766Y-43915D01*
X75774Y-43919D01*
X75778Y-43923D01*
X75781Y-43930D01*
X75781Y-43938D01*
X75778Y-43945D01*
X75774Y-43949D01*
X75766Y-43953D01*
X75751Y-43956D01*
X75733Y-43956D01*
X75718Y-43953D01*
X75710Y-43949D01*
X75706Y-43945D01*
X75703Y-43938D01*
X75781Y-43836D02*
X75781Y-43881D01*
X75781Y-43859D02*
X75703Y-43859D01*
X75714Y-43866D01*
X75721Y-43874D01*
X75725Y-43881D01*
X75789Y-43821D02*
X75789Y-43761D01*
X75781Y-43743D02*
X75729Y-43743D01*
X75744Y-43743D02*
X75736Y-43739D01*
X75733Y-43735D01*
X75729Y-43728D01*
X75729Y-43720D01*
X74778Y-43521D02*
X74781Y-43510D01*
X74781Y-43491D01*
X74778Y-43484D01*
X74774Y-43480D01*
X74766Y-43476D01*
X74759Y-43476D01*
X74751Y-43480D01*
X74748Y-43484D01*
X74744Y-43491D01*
X74740Y-43506D01*
X74736Y-43514D01*
X74733Y-43518D01*
X74725Y-43521D01*
X74718Y-43521D01*
X74710Y-43518D01*
X74706Y-43514D01*
X74703Y-43506D01*
X74703Y-43488D01*
X74706Y-43476D01*
X74781Y-43443D02*
X74703Y-43443D01*
X74759Y-43416D01*
X74703Y-43390D01*
X74781Y-43390D01*
X74703Y-43338D02*
X74703Y-43330D01*
X74706Y-43323D01*
X74710Y-43319D01*
X74718Y-43315D01*
X74733Y-43311D01*
X74751Y-43311D01*
X74766Y-43315D01*
X74774Y-43319D01*
X74778Y-43323D01*
X74781Y-43330D01*
X74781Y-43338D01*
X74778Y-43345D01*
X74774Y-43349D01*
X74766Y-43353D01*
X74751Y-43356D01*
X74733Y-43356D01*
X74718Y-43353D01*
X74710Y-43349D01*
X74706Y-43345D01*
X74703Y-43338D01*
X74710Y-43281D02*
X74706Y-43278D01*
X74703Y-43270D01*
X74703Y-43251D01*
X74706Y-43244D01*
X74710Y-43240D01*
X74718Y-43236D01*
X74725Y-43236D01*
X74736Y-43240D01*
X74781Y-43285D01*
X74781Y-43236D01*
X74703Y-43188D02*
X74703Y-43180D01*
X74706Y-43173D01*
X74710Y-43169D01*
X74718Y-43165D01*
X74733Y-43161D01*
X74751Y-43161D01*
X74766Y-43165D01*
X74774Y-43169D01*
X74778Y-43173D01*
X74781Y-43180D01*
X74781Y-43188D01*
X74778Y-43195D01*
X74774Y-43199D01*
X74766Y-43203D01*
X74751Y-43206D01*
X74733Y-43206D01*
X74718Y-43203D01*
X74710Y-43199D01*
X74706Y-43195D01*
X74703Y-43188D01*
X74781Y-43086D02*
X74781Y-43131D01*
X74781Y-43109D02*
X74703Y-43109D01*
X74714Y-43116D01*
X74721Y-43124D01*
X74725Y-43131D01*
X74789Y-43071D02*
X74789Y-43011D01*
X74781Y-42993D02*
X74729Y-42993D01*
X74744Y-42993D02*
X74736Y-42989D01*
X74733Y-42985D01*
X74729Y-42978D01*
X74729Y-42970D01*
X75278Y-43521D02*
X75281Y-43510D01*
X75281Y-43491D01*
X75278Y-43484D01*
X75274Y-43480D01*
X75266Y-43476D01*
X75259Y-43476D01*
X75251Y-43480D01*
X75248Y-43484D01*
X75244Y-43491D01*
X75240Y-43506D01*
X75236Y-43514D01*
X75233Y-43518D01*
X75225Y-43521D01*
X75218Y-43521D01*
X75210Y-43518D01*
X75206Y-43514D01*
X75203Y-43506D01*
X75203Y-43488D01*
X75206Y-43476D01*
X75281Y-43443D02*
X75203Y-43443D01*
X75259Y-43416D01*
X75203Y-43390D01*
X75281Y-43390D01*
X75203Y-43338D02*
X75203Y-43330D01*
X75206Y-43323D01*
X75210Y-43319D01*
X75218Y-43315D01*
X75233Y-43311D01*
X75251Y-43311D01*
X75266Y-43315D01*
X75274Y-43319D01*
X75278Y-43323D01*
X75281Y-43330D01*
X75281Y-43338D01*
X75278Y-43345D01*
X75274Y-43349D01*
X75266Y-43353D01*
X75251Y-43356D01*
X75233Y-43356D01*
X75218Y-43353D01*
X75210Y-43349D01*
X75206Y-43345D01*
X75203Y-43338D01*
X75210Y-43281D02*
X75206Y-43278D01*
X75203Y-43270D01*
X75203Y-43251D01*
X75206Y-43244D01*
X75210Y-43240D01*
X75218Y-43236D01*
X75225Y-43236D01*
X75236Y-43240D01*
X75281Y-43285D01*
X75281Y-43236D01*
X75203Y-43188D02*
X75203Y-43180D01*
X75206Y-43173D01*
X75210Y-43169D01*
X75218Y-43165D01*
X75233Y-43161D01*
X75251Y-43161D01*
X75266Y-43165D01*
X75274Y-43169D01*
X75278Y-43173D01*
X75281Y-43180D01*
X75281Y-43188D01*
X75278Y-43195D01*
X75274Y-43199D01*
X75266Y-43203D01*
X75251Y-43206D01*
X75233Y-43206D01*
X75218Y-43203D01*
X75210Y-43199D01*
X75206Y-43195D01*
X75203Y-43188D01*
X75281Y-43086D02*
X75281Y-43131D01*
X75281Y-43109D02*
X75203Y-43109D01*
X75214Y-43116D01*
X75221Y-43124D01*
X75225Y-43131D01*
X75289Y-43071D02*
X75289Y-43011D01*
X75281Y-42993D02*
X75229Y-42993D01*
X75244Y-42993D02*
X75236Y-42989D01*
X75233Y-42985D01*
X75229Y-42978D01*
X75229Y-42970D01*
X75778Y-43521D02*
X75781Y-43510D01*
X75781Y-43491D01*
X75778Y-43484D01*
X75774Y-43480D01*
X75766Y-43476D01*
X75759Y-43476D01*
X75751Y-43480D01*
X75748Y-43484D01*
X75744Y-43491D01*
X75740Y-43506D01*
X75736Y-43514D01*
X75733Y-43518D01*
X75725Y-43521D01*
X75718Y-43521D01*
X75710Y-43518D01*
X75706Y-43514D01*
X75703Y-43506D01*
X75703Y-43488D01*
X75706Y-43476D01*
X75781Y-43443D02*
X75703Y-43443D01*
X75759Y-43416D01*
X75703Y-43390D01*
X75781Y-43390D01*
X75703Y-43338D02*
X75703Y-43330D01*
X75706Y-43323D01*
X75710Y-43319D01*
X75718Y-43315D01*
X75733Y-43311D01*
X75751Y-43311D01*
X75766Y-43315D01*
X75774Y-43319D01*
X75778Y-43323D01*
X75781Y-43330D01*
X75781Y-43338D01*
X75778Y-43345D01*
X75774Y-43349D01*
X75766Y-43353D01*
X75751Y-43356D01*
X75733Y-43356D01*
X75718Y-43353D01*
X75710Y-43349D01*
X75706Y-43345D01*
X75703Y-43338D01*
X75710Y-43281D02*
X75706Y-43278D01*
X75703Y-43270D01*
X75703Y-43251D01*
X75706Y-43244D01*
X75710Y-43240D01*
X75718Y-43236D01*
X75725Y-43236D01*
X75736Y-43240D01*
X75781Y-43285D01*
X75781Y-43236D01*
X75703Y-43188D02*
X75703Y-43180D01*
X75706Y-43173D01*
X75710Y-43169D01*
X75718Y-43165D01*
X75733Y-43161D01*
X75751Y-43161D01*
X75766Y-43165D01*
X75774Y-43169D01*
X75778Y-43173D01*
X75781Y-43180D01*
X75781Y-43188D01*
X75778Y-43195D01*
X75774Y-43199D01*
X75766Y-43203D01*
X75751Y-43206D01*
X75733Y-43206D01*
X75718Y-43203D01*
X75710Y-43199D01*
X75706Y-43195D01*
X75703Y-43188D01*
X75781Y-43086D02*
X75781Y-43131D01*
X75781Y-43109D02*
X75703Y-43109D01*
X75714Y-43116D01*
X75721Y-43124D01*
X75725Y-43131D01*
X75789Y-43071D02*
X75789Y-43011D01*
X75781Y-42993D02*
X75729Y-42993D01*
X75744Y-42993D02*
X75736Y-42989D01*
X75733Y-42985D01*
X75729Y-42978D01*
X75729Y-42970D01*
G54D19*
X65467Y-49310D02*
X65532Y-49332D01*
X65639Y-49332D01*
X65682Y-49310D01*
X65703Y-49289D01*
X65725Y-49246D01*
X65725Y-49203D01*
X65703Y-49160D01*
X65682Y-49139D01*
X65639Y-49117D01*
X65553Y-49096D01*
X65510Y-49075D01*
X65489Y-49053D01*
X65467Y-49010D01*
X65467Y-48967D01*
X65489Y-48925D01*
X65510Y-48903D01*
X65553Y-48882D01*
X65660Y-48882D01*
X65725Y-48903D01*
X66003Y-48882D02*
X66089Y-48882D01*
X66132Y-48903D01*
X66175Y-48946D01*
X66196Y-49032D01*
X66196Y-49182D01*
X66175Y-49267D01*
X66132Y-49310D01*
X66089Y-49332D01*
X66003Y-49332D01*
X65960Y-49310D01*
X65917Y-49267D01*
X65896Y-49182D01*
X65896Y-49032D01*
X65917Y-48946D01*
X65960Y-48903D01*
X66003Y-48882D01*
X66453Y-49075D02*
X66410Y-49053D01*
X66389Y-49032D01*
X66367Y-48989D01*
X66367Y-48967D01*
X66389Y-48925D01*
X66410Y-48903D01*
X66453Y-48882D01*
X66539Y-48882D01*
X66582Y-48903D01*
X66603Y-48925D01*
X66625Y-48967D01*
X66625Y-48989D01*
X66603Y-49032D01*
X66582Y-49053D01*
X66539Y-49075D01*
X66453Y-49075D01*
X66410Y-49096D01*
X66389Y-49117D01*
X66367Y-49160D01*
X66367Y-49246D01*
X66389Y-49289D01*
X66410Y-49310D01*
X66453Y-49332D01*
X66539Y-49332D01*
X66582Y-49310D01*
X66603Y-49289D01*
X66625Y-49246D01*
X66625Y-49160D01*
X66603Y-49117D01*
X66582Y-49096D01*
X66539Y-49075D01*
X66817Y-49096D02*
X66967Y-49096D01*
X67032Y-49332D02*
X66817Y-49332D01*
X66817Y-48882D01*
X67032Y-48882D01*
X65575Y-49691D02*
X65691Y-50041D01*
X65808Y-49691D01*
X65908Y-49941D02*
X66075Y-49941D01*
X65875Y-50041D02*
X65991Y-49691D01*
X66108Y-50041D01*
X66391Y-50041D02*
X66225Y-50041D01*
X66225Y-49691D01*
X66558Y-49691D02*
X66558Y-49775D01*
X66475Y-49741D02*
X66558Y-49775D01*
X66641Y-49741D01*
X66508Y-49841D02*
X66558Y-49775D01*
X66608Y-49841D01*
X66825Y-49691D02*
X66825Y-49775D01*
X66741Y-49741D02*
X66825Y-49775D01*
X66908Y-49741D01*
X66775Y-49841D02*
X66825Y-49775D01*
X66875Y-49841D01*
G54D13*
X71276Y-48910D02*
X71333Y-48932D01*
X71428Y-48932D01*
X71466Y-48910D01*
X71485Y-48889D01*
X71504Y-48846D01*
X71504Y-48803D01*
X71485Y-48760D01*
X71466Y-48739D01*
X71428Y-48717D01*
X71352Y-48696D01*
X71314Y-48675D01*
X71295Y-48653D01*
X71276Y-48610D01*
X71276Y-48567D01*
X71295Y-48525D01*
X71314Y-48503D01*
X71352Y-48482D01*
X71447Y-48482D01*
X71504Y-48503D01*
X71752Y-48482D02*
X71828Y-48482D01*
X71866Y-48503D01*
X71904Y-48546D01*
X71923Y-48632D01*
X71923Y-48782D01*
X71904Y-48867D01*
X71866Y-48910D01*
X71828Y-48932D01*
X71752Y-48932D01*
X71714Y-48910D01*
X71676Y-48867D01*
X71657Y-48782D01*
X71657Y-48632D01*
X71676Y-48546D01*
X71714Y-48503D01*
X71752Y-48482D01*
X72152Y-48675D02*
X72114Y-48653D01*
X72095Y-48632D01*
X72076Y-48589D01*
X72076Y-48567D01*
X72095Y-48525D01*
X72114Y-48503D01*
X72152Y-48482D01*
X72228Y-48482D01*
X72266Y-48503D01*
X72285Y-48525D01*
X72304Y-48567D01*
X72304Y-48589D01*
X72285Y-48632D01*
X72266Y-48653D01*
X72228Y-48675D01*
X72152Y-48675D01*
X72114Y-48696D01*
X72095Y-48717D01*
X72076Y-48760D01*
X72076Y-48846D01*
X72095Y-48889D01*
X72114Y-48910D01*
X72152Y-48932D01*
X72228Y-48932D01*
X72266Y-48910D01*
X72285Y-48889D01*
X72304Y-48846D01*
X72304Y-48760D01*
X72285Y-48717D01*
X72266Y-48696D01*
X72228Y-48675D01*
X72476Y-48932D02*
X72476Y-48482D01*
X72704Y-48932D01*
X72704Y-48482D01*
X71380Y-49511D02*
X71514Y-49911D01*
X71647Y-49511D01*
X71761Y-49797D02*
X71952Y-49797D01*
X71723Y-49911D02*
X71857Y-49511D01*
X71990Y-49911D01*
X72314Y-49911D02*
X72123Y-49911D01*
X72123Y-49511D01*
X72504Y-49511D02*
X72504Y-49607D01*
X72409Y-49569D02*
X72504Y-49607D01*
X72600Y-49569D01*
X72447Y-49683D02*
X72504Y-49607D01*
X72561Y-49683D01*
G54D26*
X63021Y-45053D02*
X63021Y-44910D01*
X63321Y-44982D02*
X63021Y-44982D01*
X63307Y-44839D02*
X63321Y-44803D01*
X63321Y-44744D01*
X63307Y-44720D01*
X63292Y-44708D01*
X63264Y-44696D01*
X63235Y-44696D01*
X63207Y-44708D01*
X63192Y-44720D01*
X63178Y-44744D01*
X63164Y-44791D01*
X63150Y-44815D01*
X63135Y-44827D01*
X63107Y-44839D01*
X63078Y-44839D01*
X63050Y-44827D01*
X63035Y-44815D01*
X63021Y-44791D01*
X63021Y-44732D01*
X63035Y-44696D01*
X63307Y-44601D02*
X63321Y-44565D01*
X63321Y-44505D01*
X63307Y-44482D01*
X63292Y-44470D01*
X63264Y-44458D01*
X63235Y-44458D01*
X63207Y-44470D01*
X63192Y-44482D01*
X63178Y-44505D01*
X63164Y-44553D01*
X63150Y-44577D01*
X63135Y-44589D01*
X63107Y-44601D01*
X63078Y-44601D01*
X63050Y-44589D01*
X63035Y-44577D01*
X63021Y-44553D01*
X63021Y-44494D01*
X63035Y-44458D01*
X63021Y-44303D02*
X63021Y-44255D01*
X63035Y-44232D01*
X63064Y-44208D01*
X63121Y-44196D01*
X63221Y-44196D01*
X63278Y-44208D01*
X63307Y-44232D01*
X63321Y-44255D01*
X63321Y-44303D01*
X63307Y-44327D01*
X63278Y-44351D01*
X63221Y-44363D01*
X63121Y-44363D01*
X63064Y-44351D01*
X63035Y-44327D01*
X63021Y-44303D01*
X63321Y-44089D02*
X63021Y-44089D01*
X63021Y-43994D01*
X63035Y-43970D01*
X63050Y-43958D01*
X63078Y-43946D01*
X63121Y-43946D01*
X63150Y-43958D01*
X63164Y-43970D01*
X63178Y-43994D01*
X63178Y-44089D01*
X63321Y-43708D02*
X63321Y-43851D01*
X63321Y-43779D02*
X63021Y-43779D01*
X63064Y-43803D01*
X63092Y-43827D01*
X63107Y-43851D01*
X63121Y-43494D02*
X63321Y-43494D01*
X63007Y-43553D02*
X63221Y-43613D01*
X63221Y-43458D01*
G54D27*
X63521Y-44828D02*
X63821Y-44728D01*
X63521Y-44628D01*
X63735Y-44542D02*
X63735Y-44399D01*
X63821Y-44571D02*
X63521Y-44471D01*
X63821Y-44371D01*
X63821Y-44128D02*
X63821Y-44271D01*
X63521Y-44271D01*
X63521Y-43985D02*
X63592Y-43985D01*
X63564Y-44057D02*
X63592Y-43985D01*
X63564Y-43914D01*
X63650Y-44028D02*
X63592Y-43985D01*
X63650Y-43942D01*
X63521Y-43757D02*
X63592Y-43757D01*
X63564Y-43828D02*
X63592Y-43757D01*
X63564Y-43685D01*
X63650Y-43799D02*
X63592Y-43757D01*
X63650Y-43714D01*
G54D19*
X67092Y-46404D02*
X67111Y-46347D01*
X67111Y-46252D01*
X67092Y-46214D01*
X67073Y-46195D01*
X67035Y-46176D01*
X66997Y-46176D01*
X66959Y-46195D01*
X66940Y-46214D01*
X66921Y-46252D01*
X66902Y-46328D01*
X66883Y-46366D01*
X66864Y-46385D01*
X66826Y-46404D01*
X66788Y-46404D01*
X66750Y-46385D01*
X66730Y-46366D01*
X66711Y-46328D01*
X66711Y-46233D01*
X66730Y-46176D01*
X67092Y-46023D02*
X67111Y-45966D01*
X67111Y-45871D01*
X67092Y-45833D01*
X67073Y-45814D01*
X67035Y-45795D01*
X66997Y-45795D01*
X66959Y-45814D01*
X66940Y-45833D01*
X66921Y-45871D01*
X66902Y-45947D01*
X66883Y-45985D01*
X66864Y-46004D01*
X66826Y-46023D01*
X66788Y-46023D01*
X66750Y-46004D01*
X66730Y-45985D01*
X66711Y-45947D01*
X66711Y-45852D01*
X66730Y-45795D01*
X66711Y-45547D02*
X66711Y-45471D01*
X66730Y-45433D01*
X66769Y-45395D01*
X66845Y-45376D01*
X66978Y-45376D01*
X67054Y-45395D01*
X67092Y-45433D01*
X67111Y-45471D01*
X67111Y-45547D01*
X67092Y-45585D01*
X67054Y-45623D01*
X66978Y-45642D01*
X66845Y-45642D01*
X66769Y-45623D01*
X66730Y-45585D01*
X66711Y-45547D01*
X67111Y-45204D02*
X66711Y-45204D01*
X66711Y-45052D01*
X66730Y-45014D01*
X66750Y-44995D01*
X66788Y-44976D01*
X66845Y-44976D01*
X66883Y-44995D01*
X66902Y-45014D01*
X66921Y-45052D01*
X66921Y-45204D01*
X66883Y-44747D02*
X66864Y-44785D01*
X66845Y-44804D01*
X66807Y-44823D01*
X66788Y-44823D01*
X66750Y-44804D01*
X66730Y-44785D01*
X66711Y-44747D01*
X66711Y-44671D01*
X66730Y-44633D01*
X66750Y-44614D01*
X66788Y-44595D01*
X66807Y-44595D01*
X66845Y-44614D01*
X66864Y-44633D01*
X66883Y-44671D01*
X66883Y-44747D01*
X66902Y-44785D01*
X66921Y-44804D01*
X66959Y-44823D01*
X67035Y-44823D01*
X67073Y-44804D01*
X67092Y-44785D01*
X67111Y-44747D01*
X67111Y-44671D01*
X67092Y-44633D01*
X67073Y-44614D01*
X67035Y-44595D01*
X66959Y-44595D01*
X66921Y-44614D01*
X66902Y-44633D01*
X66883Y-44671D01*
X67092Y-44904D02*
X67111Y-44847D01*
X67111Y-44752D01*
X67092Y-44714D01*
X67073Y-44695D01*
X67035Y-44676D01*
X66997Y-44676D01*
X66959Y-44695D01*
X66940Y-44714D01*
X66921Y-44752D01*
X66902Y-44828D01*
X66883Y-44866D01*
X66864Y-44885D01*
X66826Y-44904D01*
X66788Y-44904D01*
X66750Y-44885D01*
X66730Y-44866D01*
X66711Y-44828D01*
X66711Y-44733D01*
X66730Y-44676D01*
X67092Y-44523D02*
X67111Y-44466D01*
X67111Y-44371D01*
X67092Y-44333D01*
X67073Y-44314D01*
X67035Y-44295D01*
X66997Y-44295D01*
X66959Y-44314D01*
X66940Y-44333D01*
X66921Y-44371D01*
X66902Y-44447D01*
X66883Y-44485D01*
X66864Y-44504D01*
X66826Y-44523D01*
X66788Y-44523D01*
X66750Y-44504D01*
X66730Y-44485D01*
X66711Y-44447D01*
X66711Y-44352D01*
X66730Y-44295D01*
X66711Y-44047D02*
X66711Y-43971D01*
X66730Y-43933D01*
X66769Y-43895D01*
X66845Y-43876D01*
X66978Y-43876D01*
X67054Y-43895D01*
X67092Y-43933D01*
X67111Y-43971D01*
X67111Y-44047D01*
X67092Y-44085D01*
X67054Y-44123D01*
X66978Y-44142D01*
X66845Y-44142D01*
X66769Y-44123D01*
X66730Y-44085D01*
X66711Y-44047D01*
X67111Y-43704D02*
X66711Y-43704D01*
X66711Y-43552D01*
X66730Y-43514D01*
X66750Y-43495D01*
X66788Y-43476D01*
X66845Y-43476D01*
X66883Y-43495D01*
X66902Y-43514D01*
X66921Y-43552D01*
X66921Y-43704D01*
X66883Y-43247D02*
X66864Y-43285D01*
X66845Y-43304D01*
X66807Y-43323D01*
X66788Y-43323D01*
X66750Y-43304D01*
X66730Y-43285D01*
X66711Y-43247D01*
X66711Y-43171D01*
X66730Y-43133D01*
X66750Y-43114D01*
X66788Y-43095D01*
X66807Y-43095D01*
X66845Y-43114D01*
X66864Y-43133D01*
X66883Y-43171D01*
X66883Y-43247D01*
X66902Y-43285D01*
X66921Y-43304D01*
X66959Y-43323D01*
X67035Y-43323D01*
X67073Y-43304D01*
X67092Y-43285D01*
X67111Y-43247D01*
X67111Y-43171D01*
X67092Y-43133D01*
X67073Y-43114D01*
X67035Y-43095D01*
X66959Y-43095D01*
X66921Y-43114D01*
X66902Y-43133D01*
X66883Y-43171D01*
G54D25*
X71894Y-47149D02*
X71908Y-47107D01*
X71908Y-47035D01*
X71894Y-47007D01*
X71879Y-46992D01*
X71851Y-46978D01*
X71822Y-46978D01*
X71794Y-46992D01*
X71779Y-47007D01*
X71765Y-47035D01*
X71751Y-47092D01*
X71737Y-47121D01*
X71722Y-47135D01*
X71694Y-47149D01*
X71665Y-47149D01*
X71637Y-47135D01*
X71622Y-47121D01*
X71608Y-47092D01*
X71608Y-47021D01*
X71622Y-46978D01*
X71608Y-46792D02*
X71608Y-46735D01*
X71622Y-46707D01*
X71651Y-46678D01*
X71708Y-46664D01*
X71808Y-46664D01*
X71865Y-46678D01*
X71894Y-46707D01*
X71908Y-46735D01*
X71908Y-46792D01*
X71894Y-46821D01*
X71865Y-46849D01*
X71808Y-46864D01*
X71708Y-46864D01*
X71651Y-46849D01*
X71622Y-46821D01*
X71608Y-46792D01*
X71608Y-46578D02*
X71608Y-46407D01*
X71908Y-46492D02*
X71608Y-46492D01*
X71637Y-46321D02*
X71622Y-46307D01*
X71608Y-46278D01*
X71608Y-46207D01*
X71622Y-46178D01*
X71637Y-46164D01*
X71665Y-46150D01*
X71694Y-46150D01*
X71737Y-46164D01*
X71908Y-46335D01*
X71908Y-46150D01*
X71608Y-46050D02*
X71608Y-45864D01*
X71722Y-45964D01*
X71722Y-45921D01*
X71737Y-45892D01*
X71751Y-45878D01*
X71779Y-45864D01*
X71851Y-45864D01*
X71879Y-45878D01*
X71894Y-45892D01*
X71908Y-45921D01*
X71908Y-46007D01*
X71894Y-46035D01*
X71879Y-46050D01*
X71937Y-45807D02*
X71937Y-45578D01*
X71608Y-45378D02*
X71608Y-45435D01*
X71622Y-45464D01*
X71637Y-45478D01*
X71679Y-45507D01*
X71737Y-45521D01*
X71851Y-45521D01*
X71879Y-45507D01*
X71894Y-45492D01*
X71908Y-45464D01*
X71908Y-45407D01*
X71894Y-45378D01*
X71879Y-45364D01*
X71851Y-45350D01*
X71779Y-45350D01*
X71751Y-45364D01*
X71737Y-45378D01*
X71722Y-45407D01*
X71722Y-45464D01*
X71737Y-45492D01*
X71751Y-45507D01*
X71779Y-45521D01*
X70795Y-46132D02*
X70860Y-46329D01*
X70926Y-46132D01*
X70982Y-46273D02*
X71076Y-46273D01*
X70964Y-46329D02*
X71029Y-46132D01*
X71095Y-46329D01*
X71254Y-46329D02*
X71161Y-46329D01*
X71161Y-46132D01*
X73644Y-47149D02*
X73658Y-47107D01*
X73658Y-47035D01*
X73644Y-47007D01*
X73629Y-46992D01*
X73601Y-46978D01*
X73572Y-46978D01*
X73544Y-46992D01*
X73529Y-47007D01*
X73515Y-47035D01*
X73501Y-47092D01*
X73487Y-47121D01*
X73472Y-47135D01*
X73444Y-47149D01*
X73415Y-47149D01*
X73387Y-47135D01*
X73372Y-47121D01*
X73358Y-47092D01*
X73358Y-47021D01*
X73372Y-46978D01*
X73358Y-46792D02*
X73358Y-46735D01*
X73372Y-46707D01*
X73401Y-46678D01*
X73458Y-46664D01*
X73558Y-46664D01*
X73615Y-46678D01*
X73644Y-46707D01*
X73658Y-46735D01*
X73658Y-46792D01*
X73644Y-46821D01*
X73615Y-46849D01*
X73558Y-46864D01*
X73458Y-46864D01*
X73401Y-46849D01*
X73372Y-46821D01*
X73358Y-46792D01*
X73358Y-46578D02*
X73358Y-46407D01*
X73658Y-46492D02*
X73358Y-46492D01*
X73387Y-46321D02*
X73372Y-46307D01*
X73358Y-46278D01*
X73358Y-46207D01*
X73372Y-46178D01*
X73387Y-46164D01*
X73415Y-46150D01*
X73444Y-46150D01*
X73487Y-46164D01*
X73658Y-46335D01*
X73658Y-46150D01*
X73358Y-46050D02*
X73358Y-45864D01*
X73472Y-45964D01*
X73472Y-45921D01*
X73487Y-45892D01*
X73501Y-45878D01*
X73529Y-45864D01*
X73601Y-45864D01*
X73629Y-45878D01*
X73644Y-45892D01*
X73658Y-45921D01*
X73658Y-46007D01*
X73644Y-46035D01*
X73629Y-46050D01*
X73687Y-45807D02*
X73687Y-45578D01*
X73358Y-45378D02*
X73358Y-45435D01*
X73372Y-45464D01*
X73387Y-45478D01*
X73429Y-45507D01*
X73487Y-45521D01*
X73601Y-45521D01*
X73629Y-45507D01*
X73644Y-45492D01*
X73658Y-45464D01*
X73658Y-45407D01*
X73644Y-45378D01*
X73629Y-45364D01*
X73601Y-45350D01*
X73529Y-45350D01*
X73501Y-45364D01*
X73487Y-45378D01*
X73472Y-45407D01*
X73472Y-45464D01*
X73487Y-45492D01*
X73501Y-45507D01*
X73529Y-45521D01*
X72545Y-46132D02*
X72610Y-46329D01*
X72676Y-46132D01*
X72732Y-46273D02*
X72826Y-46273D01*
X72714Y-46329D02*
X72779Y-46132D01*
X72845Y-46329D01*
X73004Y-46329D02*
X72911Y-46329D01*
X72911Y-46132D01*
X73644Y-45149D02*
X73658Y-45107D01*
X73658Y-45035D01*
X73644Y-45007D01*
X73629Y-44992D01*
X73601Y-44978D01*
X73572Y-44978D01*
X73544Y-44992D01*
X73529Y-45007D01*
X73515Y-45035D01*
X73501Y-45092D01*
X73487Y-45121D01*
X73472Y-45135D01*
X73444Y-45149D01*
X73415Y-45149D01*
X73387Y-45135D01*
X73372Y-45121D01*
X73358Y-45092D01*
X73358Y-45021D01*
X73372Y-44978D01*
X73358Y-44792D02*
X73358Y-44735D01*
X73372Y-44707D01*
X73401Y-44678D01*
X73458Y-44664D01*
X73558Y-44664D01*
X73615Y-44678D01*
X73644Y-44707D01*
X73658Y-44735D01*
X73658Y-44792D01*
X73644Y-44821D01*
X73615Y-44849D01*
X73558Y-44864D01*
X73458Y-44864D01*
X73401Y-44849D01*
X73372Y-44821D01*
X73358Y-44792D01*
X73358Y-44578D02*
X73358Y-44407D01*
X73658Y-44492D02*
X73358Y-44492D01*
X73387Y-44321D02*
X73372Y-44307D01*
X73358Y-44278D01*
X73358Y-44207D01*
X73372Y-44178D01*
X73387Y-44164D01*
X73415Y-44150D01*
X73444Y-44150D01*
X73487Y-44164D01*
X73658Y-44335D01*
X73658Y-44150D01*
X73358Y-44050D02*
X73358Y-43864D01*
X73472Y-43964D01*
X73472Y-43921D01*
X73487Y-43892D01*
X73501Y-43878D01*
X73529Y-43864D01*
X73601Y-43864D01*
X73629Y-43878D01*
X73644Y-43892D01*
X73658Y-43921D01*
X73658Y-44007D01*
X73644Y-44035D01*
X73629Y-44050D01*
X73687Y-43807D02*
X73687Y-43578D01*
X73358Y-43378D02*
X73358Y-43435D01*
X73372Y-43464D01*
X73387Y-43478D01*
X73429Y-43507D01*
X73487Y-43521D01*
X73601Y-43521D01*
X73629Y-43507D01*
X73644Y-43492D01*
X73658Y-43464D01*
X73658Y-43407D01*
X73644Y-43378D01*
X73629Y-43364D01*
X73601Y-43350D01*
X73529Y-43350D01*
X73501Y-43364D01*
X73487Y-43378D01*
X73472Y-43407D01*
X73472Y-43464D01*
X73487Y-43492D01*
X73501Y-43507D01*
X73529Y-43521D01*
X72545Y-44132D02*
X72610Y-44329D01*
X72676Y-44132D01*
X72732Y-44273D02*
X72826Y-44273D01*
X72714Y-44329D02*
X72779Y-44132D01*
X72845Y-44329D01*
X73004Y-44329D02*
X72911Y-44329D01*
X72911Y-44132D01*
G54D21*
X76423Y-42933D02*
X76423Y-42539D01*
X76517Y-42539D01*
X76573Y-42558D01*
X76611Y-42595D01*
X76629Y-42633D01*
X76648Y-42708D01*
X76648Y-42764D01*
X76629Y-42839D01*
X76611Y-42877D01*
X76573Y-42914D01*
X76517Y-42933D01*
X76423Y-42933D01*
X76892Y-42539D02*
X76967Y-42539D01*
X77005Y-42558D01*
X77042Y-42595D01*
X77061Y-42670D01*
X77061Y-42802D01*
X77042Y-42877D01*
X77005Y-42914D01*
X76967Y-42933D01*
X76892Y-42933D01*
X76855Y-42914D01*
X76817Y-42877D01*
X76798Y-42802D01*
X76798Y-42670D01*
X76817Y-42595D01*
X76855Y-42558D01*
X76892Y-42539D01*
X77230Y-42783D02*
X77530Y-42783D01*
X77699Y-42577D02*
X77718Y-42558D01*
X77755Y-42539D01*
X77849Y-42539D01*
X77886Y-42558D01*
X77905Y-42577D01*
X77924Y-42614D01*
X77924Y-42652D01*
X77905Y-42708D01*
X77680Y-42933D01*
X77924Y-42933D01*
X78299Y-42933D02*
X78074Y-42933D01*
X78187Y-42933D02*
X78187Y-42539D01*
X78149Y-42595D01*
X78112Y-42633D01*
X78074Y-42652D01*
X78637Y-42670D02*
X78637Y-42933D01*
X78543Y-42520D02*
X78449Y-42802D01*
X78693Y-42802D01*
X78825Y-42820D02*
X79012Y-42820D01*
X78787Y-42933D02*
X78918Y-42539D01*
X79050Y-42933D01*
X79162Y-42820D02*
X79350Y-42820D01*
X79125Y-42933D02*
X79256Y-42539D01*
X79387Y-42933D01*
X79631Y-43083D02*
X79613Y-43064D01*
X79575Y-43008D01*
X79556Y-42971D01*
X79538Y-42914D01*
X79519Y-42820D01*
X79519Y-42745D01*
X79538Y-42652D01*
X79556Y-42595D01*
X79575Y-42558D01*
X79613Y-42501D01*
X79631Y-42483D01*
X79763Y-42914D02*
X79819Y-42933D01*
X79913Y-42933D01*
X79950Y-42914D01*
X79969Y-42895D01*
X79988Y-42858D01*
X79988Y-42820D01*
X79969Y-42783D01*
X79950Y-42764D01*
X79913Y-42745D01*
X79838Y-42727D01*
X79800Y-42708D01*
X79781Y-42689D01*
X79763Y-42652D01*
X79763Y-42614D01*
X79781Y-42577D01*
X79800Y-42558D01*
X79838Y-42539D01*
X79932Y-42539D01*
X79988Y-42558D01*
X80157Y-42933D02*
X80157Y-42539D01*
X80288Y-42820D01*
X80419Y-42539D01*
X80419Y-42933D01*
X80738Y-42727D02*
X80795Y-42745D01*
X80813Y-42764D01*
X80832Y-42802D01*
X80832Y-42858D01*
X80813Y-42895D01*
X80795Y-42914D01*
X80757Y-42933D01*
X80607Y-42933D01*
X80607Y-42539D01*
X80738Y-42539D01*
X80776Y-42558D01*
X80795Y-42577D01*
X80813Y-42614D01*
X80813Y-42652D01*
X80795Y-42689D01*
X80776Y-42708D01*
X80738Y-42727D01*
X80607Y-42727D01*
X80963Y-43083D02*
X80982Y-43064D01*
X81020Y-43008D01*
X81038Y-42971D01*
X81057Y-42914D01*
X81076Y-42820D01*
X81076Y-42745D01*
X81057Y-42652D01*
X81038Y-42595D01*
X81020Y-42558D01*
X80982Y-42501D01*
X80963Y-42483D01*
X77990Y-40413D02*
X78121Y-40807D01*
X78252Y-40413D01*
X78365Y-40694D02*
X78553Y-40694D01*
X78327Y-40807D02*
X78459Y-40413D01*
X78590Y-40807D01*
X78909Y-40807D02*
X78721Y-40807D01*
X78721Y-40413D01*
X79097Y-40413D02*
X79097Y-40507D01*
X79003Y-40469D02*
X79097Y-40507D01*
X79190Y-40469D01*
X79040Y-40582D02*
X79097Y-40507D01*
X79153Y-40582D01*
X79397Y-40413D02*
X79397Y-40507D01*
X79303Y-40469D02*
X79397Y-40507D01*
X79491Y-40469D01*
X79341Y-40582D02*
X79397Y-40507D01*
X79453Y-40582D01*
G54D16*
X72264Y-40057D02*
X72307Y-40071D01*
X72378Y-40071D01*
X72407Y-40057D01*
X72421Y-40042D01*
X72435Y-40014D01*
X72435Y-39985D01*
X72421Y-39957D01*
X72407Y-39942D01*
X72378Y-39928D01*
X72321Y-39914D01*
X72292Y-39900D01*
X72278Y-39885D01*
X72264Y-39857D01*
X72264Y-39828D01*
X72278Y-39800D01*
X72292Y-39785D01*
X72321Y-39771D01*
X72392Y-39771D01*
X72435Y-39785D01*
X72621Y-39771D02*
X72678Y-39771D01*
X72707Y-39785D01*
X72735Y-39814D01*
X72750Y-39871D01*
X72750Y-39971D01*
X72735Y-40028D01*
X72707Y-40057D01*
X72678Y-40071D01*
X72621Y-40071D01*
X72592Y-40057D01*
X72564Y-40028D01*
X72550Y-39971D01*
X72550Y-39871D01*
X72564Y-39814D01*
X72592Y-39785D01*
X72621Y-39771D01*
X72835Y-39771D02*
X73007Y-39771D01*
X72921Y-40071D02*
X72921Y-39771D01*
X73078Y-39771D02*
X73264Y-39771D01*
X73164Y-39885D01*
X73207Y-39885D01*
X73235Y-39900D01*
X73250Y-39914D01*
X73264Y-39942D01*
X73264Y-40014D01*
X73250Y-40042D01*
X73235Y-40057D01*
X73207Y-40071D01*
X73121Y-40071D01*
X73092Y-40057D01*
X73078Y-40042D01*
X73378Y-39800D02*
X73392Y-39785D01*
X73421Y-39771D01*
X73492Y-39771D01*
X73521Y-39785D01*
X73535Y-39800D01*
X73550Y-39828D01*
X73550Y-39857D01*
X73535Y-39900D01*
X73364Y-40071D01*
X73550Y-40071D01*
X73650Y-39771D02*
X73835Y-39771D01*
X73735Y-39885D01*
X73778Y-39885D01*
X73807Y-39900D01*
X73821Y-39914D01*
X73835Y-39942D01*
X73835Y-40014D01*
X73821Y-40042D01*
X73807Y-40057D01*
X73778Y-40071D01*
X73692Y-40071D01*
X73664Y-40057D01*
X73650Y-40042D01*
X72264Y-41807D02*
X72307Y-41821D01*
X72378Y-41821D01*
X72407Y-41807D01*
X72421Y-41792D01*
X72435Y-41764D01*
X72435Y-41735D01*
X72421Y-41707D01*
X72407Y-41692D01*
X72378Y-41678D01*
X72321Y-41664D01*
X72292Y-41650D01*
X72278Y-41635D01*
X72264Y-41607D01*
X72264Y-41578D01*
X72278Y-41550D01*
X72292Y-41535D01*
X72321Y-41521D01*
X72392Y-41521D01*
X72435Y-41535D01*
X72621Y-41521D02*
X72678Y-41521D01*
X72707Y-41535D01*
X72735Y-41564D01*
X72750Y-41621D01*
X72750Y-41721D01*
X72735Y-41778D01*
X72707Y-41807D01*
X72678Y-41821D01*
X72621Y-41821D01*
X72592Y-41807D01*
X72564Y-41778D01*
X72550Y-41721D01*
X72550Y-41621D01*
X72564Y-41564D01*
X72592Y-41535D01*
X72621Y-41521D01*
X72835Y-41521D02*
X73007Y-41521D01*
X72921Y-41821D02*
X72921Y-41521D01*
X73078Y-41521D02*
X73264Y-41521D01*
X73164Y-41635D01*
X73207Y-41635D01*
X73235Y-41650D01*
X73250Y-41664D01*
X73264Y-41692D01*
X73264Y-41764D01*
X73250Y-41792D01*
X73235Y-41807D01*
X73207Y-41821D01*
X73121Y-41821D01*
X73092Y-41807D01*
X73078Y-41792D01*
X73378Y-41550D02*
X73392Y-41535D01*
X73421Y-41521D01*
X73492Y-41521D01*
X73521Y-41535D01*
X73535Y-41550D01*
X73550Y-41578D01*
X73550Y-41607D01*
X73535Y-41650D01*
X73364Y-41821D01*
X73550Y-41821D01*
X73650Y-41521D02*
X73835Y-41521D01*
X73735Y-41635D01*
X73778Y-41635D01*
X73807Y-41650D01*
X73821Y-41664D01*
X73835Y-41692D01*
X73835Y-41764D01*
X73821Y-41792D01*
X73807Y-41807D01*
X73778Y-41821D01*
X73692Y-41821D01*
X73664Y-41807D01*
X73650Y-41792D01*
G54D13*
X74896Y-40404D02*
X74910Y-40369D01*
X74910Y-40309D01*
X74896Y-40285D01*
X74881Y-40273D01*
X74853Y-40261D01*
X74824Y-40261D01*
X74796Y-40273D01*
X74781Y-40285D01*
X74767Y-40309D01*
X74753Y-40357D01*
X74739Y-40380D01*
X74724Y-40392D01*
X74696Y-40404D01*
X74667Y-40404D01*
X74639Y-40392D01*
X74624Y-40380D01*
X74610Y-40357D01*
X74610Y-40297D01*
X74624Y-40261D01*
X74610Y-40107D02*
X74610Y-40059D01*
X74624Y-40035D01*
X74653Y-40011D01*
X74710Y-40000D01*
X74810Y-40000D01*
X74867Y-40011D01*
X74896Y-40035D01*
X74910Y-40059D01*
X74910Y-40107D01*
X74896Y-40130D01*
X74867Y-40154D01*
X74810Y-40166D01*
X74710Y-40166D01*
X74653Y-40154D01*
X74624Y-40130D01*
X74610Y-40107D01*
X74610Y-39928D02*
X74610Y-39785D01*
X74910Y-39857D02*
X74610Y-39857D01*
X74610Y-39726D02*
X74610Y-39571D01*
X74724Y-39654D01*
X74724Y-39619D01*
X74739Y-39595D01*
X74753Y-39583D01*
X74781Y-39571D01*
X74853Y-39571D01*
X74881Y-39583D01*
X74896Y-39595D01*
X74910Y-39619D01*
X74910Y-39690D01*
X74896Y-39714D01*
X74881Y-39726D01*
X74610Y-39345D02*
X74610Y-39464D01*
X74753Y-39476D01*
X74739Y-39464D01*
X74724Y-39440D01*
X74724Y-39380D01*
X74739Y-39357D01*
X74753Y-39345D01*
X74781Y-39333D01*
X74853Y-39333D01*
X74881Y-39345D01*
X74896Y-39357D01*
X74910Y-39380D01*
X74910Y-39440D01*
X74896Y-39464D01*
X74881Y-39476D01*
X74610Y-39250D02*
X74610Y-39095D01*
X74724Y-39178D01*
X74724Y-39142D01*
X74739Y-39119D01*
X74753Y-39107D01*
X74781Y-39095D01*
X74853Y-39095D01*
X74881Y-39107D01*
X74896Y-39119D01*
X74910Y-39142D01*
X74910Y-39214D01*
X74896Y-39238D01*
X74881Y-39250D01*
X74896Y-41404D02*
X74910Y-41369D01*
X74910Y-41309D01*
X74896Y-41285D01*
X74881Y-41273D01*
X74853Y-41261D01*
X74824Y-41261D01*
X74796Y-41273D01*
X74781Y-41285D01*
X74767Y-41309D01*
X74753Y-41357D01*
X74739Y-41380D01*
X74724Y-41392D01*
X74696Y-41404D01*
X74667Y-41404D01*
X74639Y-41392D01*
X74624Y-41380D01*
X74610Y-41357D01*
X74610Y-41297D01*
X74624Y-41261D01*
X74610Y-41107D02*
X74610Y-41059D01*
X74624Y-41035D01*
X74653Y-41011D01*
X74710Y-41000D01*
X74810Y-41000D01*
X74867Y-41011D01*
X74896Y-41035D01*
X74910Y-41059D01*
X74910Y-41107D01*
X74896Y-41130D01*
X74867Y-41154D01*
X74810Y-41166D01*
X74710Y-41166D01*
X74653Y-41154D01*
X74624Y-41130D01*
X74610Y-41107D01*
X74610Y-40928D02*
X74610Y-40785D01*
X74910Y-40857D02*
X74610Y-40857D01*
X74610Y-40726D02*
X74610Y-40571D01*
X74724Y-40654D01*
X74724Y-40619D01*
X74739Y-40595D01*
X74753Y-40583D01*
X74781Y-40571D01*
X74853Y-40571D01*
X74881Y-40583D01*
X74896Y-40595D01*
X74910Y-40619D01*
X74910Y-40690D01*
X74896Y-40714D01*
X74881Y-40726D01*
X74610Y-40345D02*
X74610Y-40464D01*
X74753Y-40476D01*
X74739Y-40464D01*
X74724Y-40440D01*
X74724Y-40380D01*
X74739Y-40357D01*
X74753Y-40345D01*
X74781Y-40333D01*
X74853Y-40333D01*
X74881Y-40345D01*
X74896Y-40357D01*
X74910Y-40380D01*
X74910Y-40440D01*
X74896Y-40464D01*
X74881Y-40476D01*
X74610Y-40250D02*
X74610Y-40095D01*
X74724Y-40178D01*
X74724Y-40142D01*
X74739Y-40119D01*
X74753Y-40107D01*
X74781Y-40095D01*
X74853Y-40095D01*
X74881Y-40107D01*
X74896Y-40119D01*
X74910Y-40142D01*
X74910Y-40214D01*
X74896Y-40238D01*
X74881Y-40250D01*
X74095Y-42068D02*
X74130Y-42082D01*
X74190Y-42082D01*
X74214Y-42068D01*
X74226Y-42053D01*
X74238Y-42025D01*
X74238Y-41996D01*
X74226Y-41968D01*
X74214Y-41953D01*
X74190Y-41939D01*
X74142Y-41925D01*
X74119Y-41911D01*
X74107Y-41896D01*
X74095Y-41868D01*
X74095Y-41839D01*
X74107Y-41811D01*
X74119Y-41796D01*
X74142Y-41782D01*
X74202Y-41782D01*
X74238Y-41796D01*
X74392Y-41782D02*
X74440Y-41782D01*
X74464Y-41796D01*
X74488Y-41825D01*
X74500Y-41882D01*
X74500Y-41982D01*
X74488Y-42039D01*
X74464Y-42068D01*
X74440Y-42082D01*
X74392Y-42082D01*
X74369Y-42068D01*
X74345Y-42039D01*
X74333Y-41982D01*
X74333Y-41882D01*
X74345Y-41825D01*
X74369Y-41796D01*
X74392Y-41782D01*
X74571Y-41782D02*
X74714Y-41782D01*
X74642Y-42082D02*
X74642Y-41782D01*
X74773Y-41782D02*
X74928Y-41782D01*
X74845Y-41896D01*
X74880Y-41896D01*
X74904Y-41911D01*
X74916Y-41925D01*
X74928Y-41953D01*
X74928Y-42025D01*
X74916Y-42053D01*
X74904Y-42068D01*
X74880Y-42082D01*
X74809Y-42082D01*
X74785Y-42068D01*
X74773Y-42053D01*
X75154Y-41782D02*
X75035Y-41782D01*
X75023Y-41925D01*
X75035Y-41911D01*
X75059Y-41896D01*
X75119Y-41896D01*
X75142Y-41911D01*
X75154Y-41925D01*
X75166Y-41953D01*
X75166Y-42025D01*
X75154Y-42053D01*
X75142Y-42068D01*
X75119Y-42082D01*
X75059Y-42082D01*
X75035Y-42068D01*
X75023Y-42053D01*
X75250Y-41782D02*
X75404Y-41782D01*
X75321Y-41896D01*
X75357Y-41896D01*
X75380Y-41911D01*
X75392Y-41925D01*
X75404Y-41953D01*
X75404Y-42025D01*
X75392Y-42053D01*
X75380Y-42068D01*
X75357Y-42082D01*
X75285Y-42082D01*
X75261Y-42068D01*
X75250Y-42053D01*
G54D16*
X75984Y-40348D02*
X76012Y-40357D01*
X76059Y-40357D01*
X76077Y-40348D01*
X76087Y-40338D01*
X76096Y-40320D01*
X76096Y-40301D01*
X76087Y-40282D01*
X76077Y-40273D01*
X76059Y-40263D01*
X76021Y-40254D01*
X76002Y-40245D01*
X75993Y-40235D01*
X75984Y-40217D01*
X75984Y-40198D01*
X75993Y-40179D01*
X76002Y-40170D01*
X76021Y-40160D01*
X76068Y-40160D01*
X76096Y-40170D01*
X76218Y-40160D02*
X76256Y-40160D01*
X76274Y-40170D01*
X76293Y-40188D01*
X76303Y-40226D01*
X76303Y-40292D01*
X76293Y-40329D01*
X76274Y-40348D01*
X76256Y-40357D01*
X76218Y-40357D01*
X76199Y-40348D01*
X76181Y-40329D01*
X76171Y-40292D01*
X76171Y-40226D01*
X76181Y-40188D01*
X76199Y-40170D01*
X76218Y-40160D01*
X76359Y-40160D02*
X76471Y-40160D01*
X76415Y-40357D02*
X76415Y-40160D01*
X76631Y-40160D02*
X76537Y-40160D01*
X76528Y-40254D01*
X76537Y-40245D01*
X76556Y-40235D01*
X76603Y-40235D01*
X76621Y-40245D01*
X76631Y-40254D01*
X76640Y-40273D01*
X76640Y-40320D01*
X76631Y-40338D01*
X76621Y-40348D01*
X76603Y-40357D01*
X76556Y-40357D01*
X76537Y-40348D01*
X76528Y-40338D01*
X76818Y-40160D02*
X76725Y-40160D01*
X76715Y-40254D01*
X76725Y-40245D01*
X76743Y-40235D01*
X76790Y-40235D01*
X76809Y-40245D01*
X76818Y-40254D01*
X76828Y-40273D01*
X76828Y-40320D01*
X76818Y-40338D01*
X76809Y-40348D01*
X76790Y-40357D01*
X76743Y-40357D01*
X76725Y-40348D01*
X76715Y-40338D01*
X76894Y-40160D02*
X77015Y-40160D01*
X76950Y-40235D01*
X76978Y-40235D01*
X76997Y-40245D01*
X77006Y-40254D01*
X77015Y-40273D01*
X77015Y-40320D01*
X77006Y-40338D01*
X76997Y-40348D01*
X76978Y-40357D01*
X76922Y-40357D01*
X76903Y-40348D01*
X76894Y-40338D01*
X76143Y-41163D02*
X76209Y-41360D01*
X76274Y-41163D01*
X76424Y-41360D02*
X76424Y-41257D01*
X76415Y-41238D01*
X76396Y-41229D01*
X76359Y-41229D01*
X76340Y-41238D01*
X76424Y-41351D02*
X76406Y-41360D01*
X76359Y-41360D01*
X76340Y-41351D01*
X76331Y-41332D01*
X76331Y-41313D01*
X76340Y-41295D01*
X76359Y-41285D01*
X76406Y-41285D01*
X76424Y-41276D01*
X76546Y-41360D02*
X76528Y-41351D01*
X76518Y-41332D01*
X76518Y-41163D01*
X76650Y-41163D02*
X76650Y-41210D01*
X76603Y-41191D02*
X76650Y-41210D01*
X76697Y-41191D01*
X76621Y-41248D02*
X76650Y-41210D01*
X76678Y-41248D01*
X76800Y-41163D02*
X76800Y-41210D01*
X76753Y-41191D02*
X76800Y-41210D01*
X76847Y-41191D01*
X76772Y-41248D02*
X76800Y-41210D01*
X76828Y-41248D01*
X75984Y-41598D02*
X76012Y-41607D01*
X76059Y-41607D01*
X76077Y-41598D01*
X76087Y-41588D01*
X76096Y-41570D01*
X76096Y-41551D01*
X76087Y-41532D01*
X76077Y-41523D01*
X76059Y-41513D01*
X76021Y-41504D01*
X76002Y-41495D01*
X75993Y-41485D01*
X75984Y-41467D01*
X75984Y-41448D01*
X75993Y-41429D01*
X76002Y-41420D01*
X76021Y-41410D01*
X76068Y-41410D01*
X76096Y-41420D01*
X76218Y-41410D02*
X76256Y-41410D01*
X76274Y-41420D01*
X76293Y-41438D01*
X76303Y-41476D01*
X76303Y-41542D01*
X76293Y-41579D01*
X76274Y-41598D01*
X76256Y-41607D01*
X76218Y-41607D01*
X76199Y-41598D01*
X76181Y-41579D01*
X76171Y-41542D01*
X76171Y-41476D01*
X76181Y-41438D01*
X76199Y-41420D01*
X76218Y-41410D01*
X76359Y-41410D02*
X76471Y-41410D01*
X76415Y-41607D02*
X76415Y-41410D01*
X76631Y-41410D02*
X76537Y-41410D01*
X76528Y-41504D01*
X76537Y-41495D01*
X76556Y-41485D01*
X76603Y-41485D01*
X76621Y-41495D01*
X76631Y-41504D01*
X76640Y-41523D01*
X76640Y-41570D01*
X76631Y-41588D01*
X76621Y-41598D01*
X76603Y-41607D01*
X76556Y-41607D01*
X76537Y-41598D01*
X76528Y-41588D01*
X76818Y-41410D02*
X76725Y-41410D01*
X76715Y-41504D01*
X76725Y-41495D01*
X76743Y-41485D01*
X76790Y-41485D01*
X76809Y-41495D01*
X76818Y-41504D01*
X76828Y-41523D01*
X76828Y-41570D01*
X76818Y-41588D01*
X76809Y-41598D01*
X76790Y-41607D01*
X76743Y-41607D01*
X76725Y-41598D01*
X76715Y-41588D01*
X76894Y-41410D02*
X77015Y-41410D01*
X76950Y-41485D01*
X76978Y-41485D01*
X76997Y-41495D01*
X77006Y-41504D01*
X77015Y-41523D01*
X77015Y-41570D01*
X77006Y-41588D01*
X76997Y-41598D01*
X76978Y-41607D01*
X76922Y-41607D01*
X76903Y-41598D01*
X76894Y-41588D01*
X76143Y-42413D02*
X76209Y-42610D01*
X76274Y-42413D01*
X76424Y-42610D02*
X76424Y-42507D01*
X76415Y-42488D01*
X76396Y-42479D01*
X76359Y-42479D01*
X76340Y-42488D01*
X76424Y-42601D02*
X76406Y-42610D01*
X76359Y-42610D01*
X76340Y-42601D01*
X76331Y-42582D01*
X76331Y-42563D01*
X76340Y-42545D01*
X76359Y-42535D01*
X76406Y-42535D01*
X76424Y-42526D01*
X76546Y-42610D02*
X76528Y-42601D01*
X76518Y-42582D01*
X76518Y-42413D01*
X76650Y-42413D02*
X76650Y-42460D01*
X76603Y-42441D02*
X76650Y-42460D01*
X76697Y-42441D01*
X76621Y-42498D02*
X76650Y-42460D01*
X76678Y-42498D01*
X76800Y-42413D02*
X76800Y-42460D01*
X76753Y-42441D02*
X76800Y-42460D01*
X76847Y-42441D01*
X76772Y-42498D02*
X76800Y-42460D01*
X76828Y-42498D01*
M02*
